<svg width="568" height="823" viewBox="0 0 568 823" fill="none" xmlns="http://www.w3.org/2000/svg">
<g id="5e8d91fd1ac94987a63482a4_5th_section_funnel 1" clip-path="url(#clip0_1:4)">
<path id="balls" d="M392.584 484.167C374.037 484.167 359.001 469.131 359.001 450.584C359.001 432.036 374.037 417 392.584 417C411.132 417 426.168 432.036 426.168 450.584C426.168 469.131 411.132 484.167 392.584 484.167Z" fill="url(#paint0_radial_1:4)"/>
<path id="balls_2" d="M380.584 168.167C362.037 168.167 347.001 153.131 347.001 134.584C347.001 116.036 362.037 101 380.584 101C399.132 101 414.168 116.036 414.168 134.584C414.168 153.131 399.132 168.167 380.584 168.167Z" fill="url(#paint1_radial_1:4)"/>
<path id="Vector" d="M240.584 67.1674C222.037 67.1674 207.001 52.1314 207.001 33.5837C207.001 15.0359 222.037 0 240.584 0C259.132 0 274.168 15.0359 274.168 33.5837C274.168 52.1314 259.132 67.1674 240.584 67.1674Z" fill="url(#paint2_radial_1:4)"/>
<path id="balls_3" d="M118.584 485.446C95.9404 470.285 184.208 431.007 252.138 428.923L152.249 405.414L104.078 424.921L71.0645 454.915C103.465 476.452 151.167 507.263 118.584 485.446Z" fill="#191A1C"/>
<path id="Vector_2" d="M154.597 607.995C126.086 575.982 137.757 554.305 146.594 545.968C197.281 551.303 275.646 538.967 232.628 545.968C178.983 554.698 135.59 571.981 154.597 607.995Z" fill="#191A1C"/>
<path id="Vector_3" d="M534.751 386.406C452.217 433.925 94.5728 388.907 25.5449 321.379L28.5461 360.395C49.0544 429.923 514.243 468.939 525.747 423.421L534.751 386.406Z" fill="#313238"/>
<path id="Vector_4" d="M429.208 633.005C383.859 685.378 166.356 646.547 118.082 582.985L123.084 631.005C132.487 664.651 206.047 695.55 278.914 701.664C354.164 707.977 418.704 686.527 424.434 663.467L429.208 633.005Z" fill="#313238"/>
<path id="Vector_5" d="M334.174 636.673V610.453H347.107L381.172 608.496L415.201 633.718L399.695 654.711C389.831 658.023 366.384 660.511 381.172 651.013C401.555 637.921 334.174 645.408 334.174 636.673Z" fill="#191A1C"/>
<path id="Vector_6" d="M358.18 283.364C288.152 281.763 40.5519 328.774 78.0675 341.888C-34.9787 302.372 152.121 268.191 233.654 261.355C286.008 267.024 428.209 284.965 358.18 283.364Z" fill="#191A1C"/>
<path id="Vector_7" d="M429.708 401.411C371.846 375.098 319.163 404.876 315.662 401.411C269.143 358.895 435.059 356.465 507.239 375.401C548.025 401.088 463.722 416.879 429.708 401.411Z" fill="#191A1C"/>
<path id="Vector_8" d="M4.53698 197.329L0.0351562 155.312C79.0761 216.598 411.122 236.316 567.265 238.515L559.261 279.862C557.743 302.073 415.556 295.324 273.646 273.36C135.99 252.053 7.50036 216.814 4.53698 197.329Z" fill="#313238"/>
<path id="Vector_9" d="M174.106 167.817C125.124 159.528 79.2786 169.405 65.2729 173.74C-53.175 143.328 98.5583 133.061 183.092 131.561L213.761 127.572V162.51C213.761 170.621 190.677 170.621 174.106 167.817Z" fill="#191A1C"/>
<path id="Vector_10" d="M414.201 532.465C382.988 522.861 289.984 528.463 263.64 532.465C232.627 528.964 202.515 521.961 200.114 521.961C197.713 521.961 228.793 511.623 238.63 503.954L336.669 495.45H432.208C435.009 495.45 456.718 509.456 467.222 516.459C462.554 525.796 445.413 542.069 414.201 532.465Z" fill="#191A1C"/>
<path id="Vector_11" d="M485.231 521.46C416.805 569.138 120.79 520.685 63.5605 452.932L66.0616 493.449C74.4263 527.768 174.507 567.437 272.645 580.484C373.992 593.957 470.381 579.677 475.227 556.474L485.231 521.46Z" fill="#313238"/>
<path id="Vector_12" fill-rule="evenodd" clip-rule="evenodd" d="M202.359 120.297C70.8884 107.607 -114.868 149.508 94.0323 196.525C166.59 212.856 232.903 224.792 290.753 233.392C158.298 247.306 26.0951 276.705 25.0439 321.051C24.4138 347.631 93.6468 372.158 181.271 389.309C107.305 407.58 54.103 432.326 64.3837 458.961C74.4133 484.945 110.107 506.587 156.773 522.82C131.928 537.934 116.755 557.434 118.062 581.741C122.663 667.28 388.594 712.668 429.275 633.53C430.796 623.832 417.759 604.784 353.447 606.181C331.678 606.181 329.183 612.873 341.558 612.873C365.486 612.873 415.278 619.705 405.984 633.53C382.122 669.026 159.196 656.806 140.298 578.832C135.311 558.257 150.935 541.919 177.672 529.522C299.565 565.56 476.228 564.478 486.732 519.733C495.275 483.346 293.659 465.744 185.116 508.943C144.926 497.122 110.074 480.774 88.9848 458.961C72.0793 439.093 145.722 415.818 236.101 398.741C376.732 419.862 535.705 421.641 534.752 385.642C533.804 349.862 374.187 344.388 236.101 372.4C128.44 357.779 43.2629 339.015 51.2711 317.56C63.5991 284.532 232.951 256.02 370.481 243.874C438.043 251.536 487.339 253.831 512.516 253.551C552.996 253.551 613.773 233.069 507.955 225.62C480.102 223.66 442.644 223.557 400.843 225.29C243.156 206.597 41.956 183.598 33.0265 156.375C27.2634 138.804 145.453 131.427 178.983 135.426C212.513 139.426 226.239 125.7 202.359 120.297ZM214.323 516.562C304.809 491.862 441.531 498.781 459.221 516.562C470.951 528.351 359.681 550.073 214.323 516.562ZM287.152 380.571C371.608 369.659 479.846 368.68 496.531 380.571C515.244 393.908 398.182 391.84 287.152 380.571ZM501.042 237.79C517.266 237.695 527.097 238.101 525.63 239.004C524.162 239.907 514.707 239.257 501.042 237.79Z" fill="#515258"/>
<path id="Vector_13" d="M152.596 550.972C147.394 550.172 133.089 543.969 126.586 540.968L147.594 519.96L181.608 530.964C174.105 537.967 157.799 551.772 152.596 550.972Z" fill="#313238"/>
<path id="Vector_14" d="M219.624 263.356L150.096 250.851L260.14 229.343L373.186 244.849L219.624 263.356Z" fill="#313238"/>
<path id="Vector_15" d="M168.103 418.419L115.582 404.913L180.79 389.407C214.959 396.353 237.484 399.468 280.149 404.457L168.103 418.419Z" fill="#313238"/>
<path id="balls_4" d="M228.584 354.167C210.037 354.167 195.001 339.131 195.001 320.584C195.001 302.036 210.037 287 228.584 287C247.132 287 262.168 302.036 262.168 320.584C262.168 339.131 247.132 354.167 228.584 354.167Z" fill="url(#paint3_radial_1:4)"/>
</g>
<defs>
<radialGradient id="paint0_radial_1:4" cx="0" cy="0" r="1" gradientUnits="userSpaceOnUse" gradientTransform="translate(403.626 444.143) rotate(105.422) scale(41.5194)">
<stop offset="0.484375" stop-color="#FF8E5E"/>
<stop offset="1" stop-color="#D16233"/>
</radialGradient>
<radialGradient id="paint1_radial_1:4" cx="0" cy="0" r="1" gradientUnits="userSpaceOnUse" gradientTransform="translate(391.626 128.143) rotate(105.422) scale(41.5194)">
<stop offset="0.484375" stop-color="#FF8E5E"/>
<stop offset="1" stop-color="#D16233"/>
</radialGradient>
<radialGradient id="paint2_radial_1:4" cx="0" cy="0" r="1" gradientUnits="userSpaceOnUse" gradientTransform="translate(251.626 27.143) rotate(105.422) scale(41.5194)">
<stop offset="0.484375" stop-color="#FF8E5E"/>
<stop offset="1" stop-color="#D16233"/>
</radialGradient>
<radialGradient id="paint3_radial_1:4" cx="0" cy="0" r="1" gradientUnits="userSpaceOnUse" gradientTransform="translate(239.626 314.143) rotate(105.422) scale(41.5194)">
<stop offset="0.484375" stop-color="#FF8E5E"/>
<stop offset="1" stop-color="#D16233"/>
</radialGradient>
<clipPath id="clip0_1:4">
<rect width="568" height="823" fill="white"/>
</clipPath>
</defs>
</svg>
