<svg width="1271" height="973" viewBox="0 0 1271 973" fill="none" xmlns="http://www.w3.org/2000/svg">
<g id="Frame 1">
<g id="undraw_town_r6pc 1" clip-path="url(#clip0_1:3)">
<path id="Vector" d="M419.588 588.33H254.36V594.695H419.588V588.33Z" fill="#F2F2F2"/>
<path id="Vector_2" d="M793.633 588.33H628.404V594.695H793.633V588.33Z" fill="#F2F2F2"/>
<path id="Vector_3" d="M1048.06 588.33H882.835V594.695H1048.06V588.33Z" fill="#F2F2F2"/>
<path id="Vector_4" d="M1049.03 491.905C1047.51 492.727 1046.1 493.749 1044.83 494.946C1043.53 493.743 1042.1 492.721 1040.55 491.905C1039.03 492.727 1037.62 493.749 1036.35 494.946C1035.06 493.743 1033.62 492.721 1032.08 491.905C1032.08 491.905 1025.48 495.297 1025.5 499.443C1025.5 499.546 1025.51 499.65 1025.52 499.752C1025.74 502.466 1032.56 503.158 1036.3 501.879C1039.07 502.706 1042.01 502.706 1044.78 501.879C1048.5 503.179 1055.46 502.434 1055.66 499.689C1055.67 499.586 1055.67 499.483 1055.67 499.379C1055.65 495.233 1049.03 491.905 1049.03 491.905Z" fill="#F2F2F2"/>
<path id="Vector_5" d="M176.067 349.298L170.22 344.403L202.959 313.808H285.974V340.732L232.19 378.669L176.067 349.298Z" fill="#3F3D56"/>
<path id="Vector_6" d="M301.111 330.97V314.419H290.089V318.472L285.974 313.808L259.083 344.403L248.56 351.746L232.243 476.518L256.85 502.273H314.037V345.627L301.111 330.97Z" fill="#CCCCCC"/>
<path id="Vector_7" d="M259.083 344.403H170.221V502.273H259.083V344.403Z" fill="#F2F2F2"/>
<path id="Vector_8" d="M221.082 463.724H204.713V502.273H221.082V463.724Z" fill="#CCCCCC"/>
<path id="Vector_9" d="M187.175 474.737V468.619H180.159V474.737H186.59H187.175Z" fill="#3F3D56"/>
<path id="Vector_10" d="M186.59 479.633H180.159V485.752H187.175V479.633H186.59Z" fill="#3F3D56"/>
<path id="Vector_11" d="M198.867 468.619H191.852V474.738H198.867V468.619Z" fill="#3F3D56"/>
<path id="Vector_12" d="M198.867 479.633H191.852V485.752H198.867V479.633Z" fill="#3F3D56"/>
<path id="Vector_13" d="M235.114 474.737V468.619H228.098V474.737H234.529H235.114Z" fill="#3F3D56"/>
<path id="Vector_14" d="M234.529 479.633H228.098V485.752H235.114V479.633H234.529Z" fill="#3F3D56"/>
<path id="Vector_15" d="M246.806 468.619H239.79V474.738H246.806V468.619Z" fill="#3F3D56"/>
<path id="Vector_16" d="M246.806 479.633H239.79V485.752H246.806V479.633Z" fill="#3F3D56"/>
<path id="Vector_17" d="M284.221 352.358V346.238H277.205V352.358H283.637H284.221Z" fill="#3F3D56"/>
<path id="Vector_18" d="M283.637 357.253H277.205V363.372H284.221V357.253H283.637Z" fill="#3F3D56"/>
<path id="Vector_19" d="M295.913 346.239H288.898V352.358H295.913V346.239Z" fill="#3F3D56"/>
<path id="Vector_20" d="M295.913 357.253H288.898V363.372H295.913V357.253Z" fill="#3F3D56"/>
<path id="Vector_21" d="M284.221 386.624V380.506H277.205V386.624H283.637H284.221Z" fill="#3F3D56"/>
<path id="Vector_22" d="M283.637 391.52H277.205V397.638H284.221V391.52H283.637Z" fill="#3F3D56"/>
<path id="Vector_23" d="M295.913 380.505H288.898V386.624H295.913V380.505Z" fill="#3F3D56"/>
<path id="Vector_24" d="M295.913 391.519H288.898V397.638H295.913V391.519Z" fill="#3F3D56"/>
<path id="Vector_25" d="M284.221 420.891V414.772H277.205V420.891H283.637H284.221Z" fill="#3F3D56"/>
<path id="Vector_26" d="M283.637 425.786H277.205V431.905H284.221V425.786H283.637Z" fill="#3F3D56"/>
<path id="Vector_27" d="M295.913 414.771H288.898V420.891H295.913V414.771Z" fill="#3F3D56"/>
<path id="Vector_28" d="M295.913 425.786H288.898V431.905H295.913V425.786Z" fill="#3F3D56"/>
<path id="Vector_29" d="M284.221 455.157V449.038H277.205V455.157H283.637H284.221Z" fill="#3F3D56"/>
<path id="Vector_30" d="M283.637 460.052H277.205V466.171H284.221V460.052H283.637Z" fill="#3F3D56"/>
<path id="Vector_31" d="M295.913 449.038H288.898V455.157H295.913V449.038Z" fill="#3F3D56"/>
<path id="Vector_32" d="M295.913 460.052H288.898V466.171H295.913V460.052Z" fill="#3F3D56"/>
<path id="Vector_33" d="M247.975 352.358H180.159V367.043H247.975V352.358Z" fill="#3F3D56"/>
<path id="Vector_34" d="M247.975 381.729H180.159V396.414H247.975V381.729Z" fill="#3F3D56"/>
<path id="Vector_35" d="M247.975 411.1H180.159V425.786H247.975V411.1Z" fill="#3F3D56"/>
<path id="Vector_36" d="M247.975 440.471H180.159V455.157H247.975V440.471Z" fill="#3F3D56"/>
<path id="Vector_37" d="M309.094 492.792C307.574 493.614 306.161 494.636 304.889 495.834C303.596 494.631 302.159 493.608 300.615 492.792C299.096 493.614 297.683 494.636 296.411 495.834C295.118 494.631 293.681 493.608 292.137 492.792C292.137 492.792 285.546 496.185 285.565 500.33C285.565 500.434 285.57 500.537 285.578 500.64C285.803 503.354 292.617 504.045 296.36 502.766C299.131 503.594 302.068 503.594 304.838 502.766C308.566 504.066 315.518 503.321 315.721 500.576C315.729 500.473 315.732 500.37 315.732 500.266C315.714 496.121 309.094 492.792 309.094 492.792Z" fill="#6C63FF"/>
<path id="Vector_38" d="M278.656 349.298L272.809 344.403L305.547 313.808H388.563V340.732L334.779 378.669L278.656 349.298Z" fill="#3F3D56"/>
<path id="Vector_39" d="M403.699 330.97V314.419H392.677V318.472L388.563 313.808L361.671 344.403L351.148 351.746L334.831 476.518L359.438 502.273H416.625V345.627L403.699 330.97Z" fill="#CCCCCC"/>
<path id="Vector_40" d="M361.671 344.403H272.809V502.273H361.671V344.403Z" fill="#F2F2F2"/>
<path id="Vector_41" d="M323.671 463.724H307.302V502.273H323.671V463.724Z" fill="#CCCCCC"/>
<path id="Vector_42" d="M289.764 474.737V468.619H282.748V474.737H289.179H289.764Z" fill="#3F3D56"/>
<path id="Vector_43" d="M289.179 479.633H282.748V485.752H289.764V479.633H289.179Z" fill="#3F3D56"/>
<path id="Vector_44" d="M301.455 468.619H294.44V474.738H301.455V468.619Z" fill="#3F3D56"/>
<path id="Vector_45" d="M301.455 479.633H294.44V485.752H301.455V479.633Z" fill="#3F3D56"/>
<path id="Vector_46" d="M337.702 474.737V468.619H330.686V474.737H337.117H337.702Z" fill="#3F3D56"/>
<path id="Vector_47" d="M337.117 479.633H330.686V485.752H337.702V479.633H337.117Z" fill="#3F3D56"/>
<path id="Vector_48" d="M349.394 468.619H342.379V474.738H349.394V468.619Z" fill="#3F3D56"/>
<path id="Vector_49" d="M349.394 479.633H342.379V485.752H349.394V479.633Z" fill="#3F3D56"/>
<path id="Vector_50" d="M386.809 352.358V346.238H379.794V352.358H386.225H386.809Z" fill="#3F3D56"/>
<path id="Vector_51" d="M386.225 357.253H379.794V363.372H386.809V357.253H386.225Z" fill="#3F3D56"/>
<path id="Vector_52" d="M398.502 346.239H391.486V352.358H398.502V346.239Z" fill="#3F3D56"/>
<path id="Vector_53" d="M398.502 357.253H391.486V363.372H398.502V357.253Z" fill="#3F3D56"/>
<path id="Vector_54" d="M386.809 386.624V380.506H379.794V386.624H386.225H386.809Z" fill="#3F3D56"/>
<path id="Vector_55" d="M386.225 391.52H379.794V397.638H386.809V391.52H386.225Z" fill="#3F3D56"/>
<path id="Vector_56" d="M398.502 380.505H391.486V386.624H398.502V380.505Z" fill="#3F3D56"/>
<path id="Vector_57" d="M398.502 391.519H391.486V397.638H398.502V391.519Z" fill="#3F3D56"/>
<path id="Vector_58" d="M386.809 420.891V414.772H379.794V420.891H386.225H386.809Z" fill="#3F3D56"/>
<path id="Vector_59" d="M386.225 425.786H379.794V431.905H386.809V425.786H386.225Z" fill="#3F3D56"/>
<path id="Vector_60" d="M398.502 414.771H391.486V420.891H398.502V414.771Z" fill="#3F3D56"/>
<path id="Vector_61" d="M398.502 425.786H391.486V431.905H398.502V425.786Z" fill="#3F3D56"/>
<path id="Vector_62" d="M386.809 455.157V449.038H379.794V455.157H386.225H386.809Z" fill="#3F3D56"/>
<path id="Vector_63" d="M386.225 460.052H379.794V466.171H386.809V460.052H386.225Z" fill="#3F3D56"/>
<path id="Vector_64" d="M398.502 449.038H391.486V455.157H398.502V449.038Z" fill="#3F3D56"/>
<path id="Vector_65" d="M398.502 460.052H391.486V466.171H398.502V460.052Z" fill="#3F3D56"/>
<path id="Vector_66" d="M350.563 352.358H282.748V367.043H350.563V352.358Z" fill="#3F3D56"/>
<path id="Vector_67" d="M350.563 381.729H282.748V396.414H350.563V381.729Z" fill="#3F3D56"/>
<path id="Vector_68" d="M350.563 411.1H282.748V425.786H350.563V411.1Z" fill="#3F3D56"/>
<path id="Vector_69" d="M350.563 440.471H282.748V455.157H350.563V440.471Z" fill="#3F3D56"/>
<path id="sun" d="M292.413 232.774C308.447 232.774 321.445 219.17 321.445 202.387C321.445 185.605 308.447 172 292.413 172C276.379 172 263.38 185.605 263.38 202.387C263.38 219.17 276.379 232.774 292.413 232.774Z" fill="#FF6584"/>
<path id="Vector_70" d="M478.478 384.672H475.647V501.718H478.478V384.672Z" fill="#3F3D56"/>
<path id="Vector_71" d="M506.105 418.736C506.111 420.024 506.1 421.305 506.071 422.58C505.056 468.655 452.28 468.91 450.859 422.847C450.82 421.572 450.797 420.291 450.791 419.003C450.564 367.5 478.037 325.615 478.037 325.615C478.037 325.615 505.878 367.233 506.105 418.736Z" fill="#E6E6E6"/>
<path id="Vector_72" d="M468.632 492.532C467.112 493.355 465.699 494.377 464.427 495.574C463.134 494.371 461.698 493.349 460.153 492.532C458.634 493.355 457.221 494.377 455.949 495.574C454.656 494.371 453.219 493.349 451.675 492.532C451.675 492.532 445.085 495.925 445.103 500.071C445.103 500.174 445.108 500.278 445.116 500.38C445.341 503.094 452.155 503.786 455.898 502.507C458.669 503.334 461.606 503.334 464.377 502.507C468.104 503.807 475.056 503.062 475.259 500.317C475.267 500.214 475.271 500.111 475.27 500.007C475.252 495.861 468.632 492.532 468.632 492.532Z" fill="#CCCCCC"/>
<path id="Vector_73" d="M547.848 452.097L544.341 445.978L577.079 389.985H661.263V398.552L630.863 459.44L595.786 466.783L547.848 452.097Z" fill="#3F3D56"/>
<path id="Vector_74" d="M675.755 433.843V388.073H664.733V394.111L661.263 389.985L633.202 445.978L628.525 450.874L622.679 475.35L633.202 502.273H686.986V447.202L675.755 433.843Z" fill="#CCCCCC"/>
<path id="Vector_75" d="M633.202 445.978H544.34V502.273H633.202V445.978Z" fill="#F2F2F2"/>
<path id="Vector_76" d="M620.925 463.724H602.217V480.857H620.925V463.724Z" fill="#3F3D56"/>
<path id="Vector_77" d="M594.617 463.112H578.248V502.273H594.617V463.112Z" fill="#CCCCCC"/>
<path id="Vector_78" d="M559.541 469.231V463.112H552.525V469.231H558.956H559.541Z" fill="#3F3D56"/>
<path id="Vector_79" d="M558.956 474.126H552.525V480.245H559.541V474.126H558.956Z" fill="#3F3D56"/>
<path id="Vector_80" d="M571.233 463.112H564.217V469.231H571.233V463.112Z" fill="#3F3D56"/>
<path id="Vector_81" d="M571.233 474.126H564.217V480.245H571.233V474.126Z" fill="#3F3D56"/>
<path id="Vector_82" d="M658.341 470.73V464.611H651.325V470.73H657.756H658.341Z" fill="#3F3D56"/>
<path id="Vector_83" d="M657.756 475.625H651.325V481.744H658.341V475.625H657.756Z" fill="#3F3D56"/>
<path id="Vector_84" d="M670.033 464.611H663.017V470.73H670.033V464.611Z" fill="#3F3D56"/>
<path id="Vector_85" d="M670.033 475.625H663.017V481.744H670.033V475.625Z" fill="#3F3D56"/>
<path id="Vector_86" d="M584.641 412.999L583.718 411.39L592.332 396.657H614.481V398.91L606.484 414.931L597.254 416.863L584.641 412.999Z" fill="#3F3D56"/>
<path id="Vector_87" d="M614.481 396.657L607.099 411.39L605.868 412.678L604.33 419.118L607.099 426.201H621.25V411.711L614.481 396.657Z" fill="#CCCCCC"/>
<path id="Vector_88" d="M607.098 411.389H583.718V426.201H607.098V411.389Z" fill="#F2F2F2"/>
<path id="Vector_89" d="M593.623 417.772V414.85H590.274V417.772H593.344H593.623Z" fill="#3F3D56"/>
<path id="Vector_90" d="M593.344 420.11H590.274V423.031H593.623V420.11H593.344Z" fill="#3F3D56"/>
<path id="Vector_91" d="M599.206 414.85H595.856V417.772H599.206V414.85Z" fill="#3F3D56"/>
<path id="Vector_92" d="M599.206 420.109H595.856V423.031H599.206V420.109Z" fill="#3F3D56"/>
<path id="Vector_93" d="M653.828 452.097L650.32 445.978L683.058 389.985H767.243V398.552L736.843 459.44L701.766 466.783L653.828 452.097Z" fill="#3F3D56"/>
<path id="Vector_94" d="M781.735 433.843V388.073H770.713V394.111L767.243 389.985L739.182 445.978L734.505 450.874L728.658 475.35L739.182 502.273H792.966V447.202L781.735 433.843Z" fill="#CCCCCC"/>
<path id="Vector_95" d="M739.182 445.978H650.32V502.273H739.182V445.978Z" fill="#F2F2F2"/>
<path id="Vector_96" d="M726.905 463.724H708.197V480.857H726.905V463.724Z" fill="#3F3D56"/>
<path id="Vector_97" d="M700.597 463.112H684.228V502.273H700.597V463.112Z" fill="#CCCCCC"/>
<path id="Vector_98" d="M665.52 469.231V463.111H658.504V469.231H664.936H665.52Z" fill="#3F3D56"/>
<path id="Vector_99" d="M664.936 474.126H658.504V480.245H665.52V474.126H664.936Z" fill="#3F3D56"/>
<path id="Vector_100" d="M677.212 463.112H670.197V469.231H677.212V463.112Z" fill="#3F3D56"/>
<path id="Vector_101" d="M677.212 474.126H670.197V480.245H677.212V474.126Z" fill="#3F3D56"/>
<path id="Vector_102" d="M764.32 469.843V463.723H757.304V469.843H763.735H764.32Z" fill="#3F3D56"/>
<path id="Vector_103" d="M763.735 474.737H757.304V480.857H764.32V474.737H763.735Z" fill="#3F3D56"/>
<path id="Vector_104" d="M776.013 463.724H768.997V469.843H776.013V463.724Z" fill="#3F3D56"/>
<path id="Vector_105" d="M776.013 474.738H768.997V480.857H776.013V474.738Z" fill="#3F3D56"/>
<path id="Vector_106" d="M756.416 452.097L752.908 445.978L785.647 389.985H869.832V398.552L839.432 459.44L804.355 466.783L756.416 452.097Z" fill="#3F3D56"/>
<path id="Vector_107" d="M884.323 433.843V388.073H873.302V394.111L869.832 389.985L841.771 445.978L837.093 450.874L831.247 475.35L841.771 502.273H895.555V447.202L884.323 433.843Z" fill="#CCCCCC"/>
<path id="Vector_108" d="M841.77 445.978H752.908V502.273H841.77V445.978Z" fill="#F2F2F2"/>
<path id="Vector_109" d="M829.493 463.724H810.786V480.857H829.493V463.724Z" fill="#3F3D56"/>
<path id="Vector_110" d="M803.185 463.112H786.816V502.273H803.185V463.112Z" fill="#CCCCCC"/>
<path id="Vector_111" d="M768.108 469.231V463.111H761.094V469.231H767.524H768.108Z" fill="#3F3D56"/>
<path id="Vector_112" d="M767.524 474.126H761.094V480.245H768.108V474.126H767.524Z" fill="#3F3D56"/>
<path id="Vector_113" d="M779.801 463.112H772.785V469.231H779.801V463.112Z" fill="#3F3D56"/>
<path id="Vector_114" d="M779.801 474.126H772.785V480.245H779.801V474.126Z" fill="#3F3D56"/>
<path id="Vector_115" d="M866.909 469.843V463.723H859.893V469.843H866.325H866.909Z" fill="#3F3D56"/>
<path id="Vector_116" d="M866.325 474.737H859.893V480.857H866.909V474.737H866.325Z" fill="#3F3D56"/>
<path id="Vector_117" d="M878.601 463.724H871.586V469.843H878.601V463.724Z" fill="#3F3D56"/>
<path id="Vector_118" d="M878.601 474.738H871.586V480.857H878.601V474.738Z" fill="#3F3D56"/>
<path id="Vector_119" d="M688.077 413.887L687.154 412.277L695.768 397.544H717.918V399.798L709.919 415.819L700.69 417.75L688.077 413.887Z" fill="#3F3D56"/>
<path id="Vector_120" d="M717.918 397.544L710.535 412.276L709.304 413.565L707.766 420.005L710.535 427.089H724.687V412.599L717.918 397.544Z" fill="#CCCCCC"/>
<path id="Vector_121" d="M710.535 412.277H687.154V427.088H710.535V412.277Z" fill="#F2F2F2"/>
<path id="Vector_122" d="M697.06 418.659V415.737H693.71V418.659H696.78H697.06Z" fill="#3F3D56"/>
<path id="Vector_123" d="M696.78 420.997H693.71V423.919H697.06V420.997H696.78Z" fill="#3F3D56"/>
<path id="Vector_124" d="M702.642 415.738H699.293V418.659H702.642V415.738Z" fill="#3F3D56"/>
<path id="Vector_125" d="M702.642 420.997H699.293V423.918H702.642V420.997Z" fill="#3F3D56"/>
<path id="Vector_126" d="M791.514 412.999L790.59 411.39L799.204 396.657H821.354V398.91L813.355 414.931L804.127 416.863L791.514 412.999Z" fill="#3F3D56"/>
<path id="Vector_127" d="M821.354 396.657L813.971 411.39L812.74 412.678L811.202 419.118L813.971 426.201H828.122V411.711L821.354 396.657Z" fill="#CCCCCC"/>
<path id="Vector_128" d="M813.971 411.389H790.591V426.201H813.971V411.389Z" fill="#F2F2F2"/>
<path id="Vector_129" d="M800.496 417.772V414.85H797.147V417.772H800.217H800.496Z" fill="#3F3D56"/>
<path id="Vector_130" d="M800.217 420.11H797.147V423.031H800.496V420.11H800.217Z" fill="#3F3D56"/>
<path id="Vector_131" d="M806.079 414.85H802.729V417.772H806.079V414.85Z" fill="#3F3D56"/>
<path id="Vector_132" d="M806.079 420.109H802.729V423.031H806.079V420.109Z" fill="#3F3D56"/>
<path id="Vector_133" d="M862.396 452.097L858.888 445.978L891.627 389.985H975.812V398.552L945.411 459.44L910.334 466.783L862.396 452.097Z" fill="#3F3D56"/>
<path id="Vector_134" d="M990.304 397.839V388.073H979.281V394.111L975.812 389.985L947.75 445.978L943.073 450.874L937.227 475.35L947.75 502.273H1001.53V447.202L990.304 397.839Z" fill="#CCCCCC"/>
<path id="Vector_135" d="M947.75 445.978H858.888V502.273H947.75V445.978Z" fill="#F2F2F2"/>
<path id="Vector_136" d="M935.473 463.724H916.765V480.857H935.473V463.724Z" fill="#3F3D56"/>
<path id="Vector_137" d="M909.165 463.112H892.796V502.273H909.165V463.112Z" fill="#CCCCCC"/>
<path id="Vector_138" d="M874.088 469.231V463.111H867.073V469.231H873.503H874.088Z" fill="#3F3D56"/>
<path id="Vector_139" d="M873.503 474.126H867.073V480.245H874.088V474.126H873.503Z" fill="#3F3D56"/>
<path id="Vector_140" d="M885.781 463.112H878.765V469.231H885.781V463.112Z" fill="#3F3D56"/>
<path id="Vector_141" d="M885.781 474.126H878.765V480.245H885.781V474.126Z" fill="#3F3D56"/>
<path id="Vector_142" d="M972.889 469.843V463.723H965.873V469.843H972.304H972.889Z" fill="#3F3D56"/>
<path id="Vector_143" d="M972.304 474.737H965.873V480.857H972.889V474.737H972.304Z" fill="#3F3D56"/>
<path id="Vector_144" d="M984.581 463.724H977.565V469.843H984.581V463.724Z" fill="#3F3D56"/>
<path id="Vector_145" d="M984.581 474.738H977.565V480.857H984.581V474.738Z" fill="#3F3D56"/>
<path id="Vector_146" d="M894.95 413.887L894.027 412.277L902.64 397.544H924.791V399.798L916.792 415.819L907.563 417.75L894.95 413.887Z" fill="#3F3D56"/>
<path id="Vector_147" d="M924.791 397.544L917.407 412.276L916.177 413.565L914.638 420.005L917.407 427.089H931.558V412.599L924.791 397.544Z" fill="#CCCCCC"/>
<path id="Vector_148" d="M917.407 412.277H894.027V427.088H917.407V412.277Z" fill="#F2F2F2"/>
<path id="Vector_149" d="M903.932 418.659V415.737H900.583V418.659H903.653H903.932Z" fill="#3F3D56"/>
<path id="Vector_150" d="M903.653 420.997H900.583V423.919H903.932V420.997H903.653Z" fill="#3F3D56"/>
<path id="Vector_151" d="M909.515 415.738H906.165V418.659H909.515V415.738Z" fill="#3F3D56"/>
<path id="Vector_152" d="M909.515 420.997H906.165V423.918H909.515V420.997Z" fill="#3F3D56"/>
<path id="Vector_153" d="M1102 501.665H169.848V503.44H1102V501.665Z" fill="#3F3D56"/>
<path id="Vector_154" d="M1101.15 667.61H169V669.385H1101.15V667.61Z" fill="#3F3D56"/>
<path id="Vector_155" d="M1041.03 384.655H1038.2V501.665H1041.03V384.655Z" fill="#3F3D56"/>
<path id="Vector_156" d="M1068.65 418.708C1068.65 419.995 1068.64 421.276 1068.61 422.551C1067.6 468.613 1014.84 468.867 1013.42 422.817C1013.38 421.543 1013.36 420.262 1013.35 418.975C1013.12 367.487 1040.59 325.615 1040.59 325.615C1040.59 325.615 1068.42 367.221 1068.65 418.708Z" fill="#E6E6E6"/>
<path id="Vector_157" d="M480.69 616.256H450.86V621.212H480.69V616.256Z" fill="#3F3D56"/>
<path id="Vector_158" d="M696.367 617.366L690.212 618.857L456.305 618.987L454.202 613.858C450.533 605.06 449.274 595.367 450.565 585.863C451.572 578.779 454.097 571.74 459.831 568.683L470.211 496.32L599.619 496.078L649.687 538.345C649.687 538.345 673.305 537.901 686.136 554.62C690.196 559.916 693.178 566.931 693.978 576.233L694.485 584.931L696.367 617.366Z" fill="#6C63FF"/>
<path id="second while" d="M644.992 646.387C660.944 646.387 673.875 632.852 673.875 616.156C673.875 599.46 660.944 585.925 644.992 585.925C629.04 585.925 616.109 599.46 616.109 616.156C616.109 632.852 629.04 646.387 644.992 646.387Z" fill="#3F3D56"/>
<path id="Vector_159" d="M644.992 632.067C653.387 632.067 660.194 624.944 660.194 616.156C660.194 607.369 653.387 600.245 644.992 600.245C636.596 600.245 629.79 607.369 629.79 616.156C629.79 624.944 636.596 632.067 644.992 632.067Z" fill="#CCCCCC"/>
<path id="while" d="M502.47 646.467C518.421 646.467 531.353 632.932 531.353 616.236C531.353 599.54 518.421 586.005 502.47 586.005C486.518 586.005 473.586 599.54 473.586 616.236C473.586 632.932 486.518 646.467 502.47 646.467Z" fill="#3F3D56"/>
<path id="Vector_160" d="M502.469 632.147C510.865 632.147 517.671 625.023 517.671 616.236C517.671 607.448 510.865 600.325 502.469 600.325C494.074 600.325 487.268 607.448 487.268 616.236C487.268 625.023 494.074 632.147 502.469 632.147Z" fill="#CCCCCC"/>
<path id="Vector_161" d="M629.795 533.404L559.925 533.436H551.396L536.995 533.447V532.347L536.984 519.094L536.974 504.211H546.554L555.083 504.201L570.192 504.19H578.721L596.163 504.18L629.795 533.404Z" fill="white"/>
<path id="Vector_162" d="M525.626 533.457L488.7 533.478L488.69 525.895V512.642L488.68 504.243H494.087L502.616 504.233L525.616 504.222L525.626 533.457Z" fill="white"/>
<path id="Vector_163" d="M541.741 555.257H537.006V564.673H541.741V555.257Z" fill="#3F3D56"/>
<path id="Vector_164" d="M619.861 546.787L619.859 541.831L610.862 541.836L610.865 546.792L619.861 546.787Z" fill="#3F3D56"/>
<path id="Vector_165" d="M614.172 523.296H614.693C617.318 523.296 619.835 524.387 621.691 526.33C623.547 528.272 624.589 530.907 624.589 533.654C624.589 536.401 623.547 539.036 621.691 540.978C619.835 542.921 617.318 544.012 614.693 544.012H614.172V523.296Z" fill="#3F3D56"/>
<path id="Vector_166" d="M694.485 584.931C690.904 585.338 687.301 584.41 684.309 582.31C681.318 580.21 679.131 577.072 678.133 573.45C677.136 569.827 677.391 565.953 678.855 562.508C680.319 559.063 682.897 556.27 686.136 554.62C690.196 559.916 693.178 566.931 693.978 576.233L694.485 584.931Z" fill="#3F3D56"/>
<path id="Vector_167" d="M555.083 504.201L536.995 532.347L536.984 519.094L546.554 504.211L555.083 504.201Z" fill="#F2F2F2"/>
<path id="Vector_168" d="M502.616 504.233L488.69 525.895V512.642L494.087 504.243L502.616 504.233Z" fill="#F2F2F2"/>
<path id="Vector_169" d="M578.721 504.19L559.925 533.436H551.396L570.192 504.19H578.721Z" fill="#F2F2F2"/>
<path id="Vector_170" d="M860.156 553.972L878.276 553.982L878.278 550.972L860.158 550.962L860.156 553.972Z" fill="#3F3D56"/>
<path id="Vector_171" d="M729.146 551.641L732.885 552.546L874.969 552.626L876.247 549.51C878.475 544.166 879.24 538.278 878.456 532.505C877.844 528.202 876.311 523.926 872.828 522.069L866.522 478.113L787.914 477.965L757.501 503.64C757.501 503.64 743.155 503.37 735.361 513.526C732.549 517.303 730.889 521.877 730.597 526.655L730.289 531.938L729.146 551.641Z" fill="#3F3D56"/>
<path id="Vector_172" d="M760.353 569.27C770.043 569.27 777.898 561.048 777.898 550.906C777.898 540.764 770.043 532.542 760.353 532.542C750.664 532.542 742.808 540.764 742.808 550.906C742.808 561.048 750.664 569.27 760.353 569.27Z" fill="#3F3D56"/>
<path id="Vector_173" d="M760.353 560.571C765.453 560.571 769.587 556.244 769.587 550.906C769.587 545.568 765.453 541.241 760.353 541.241C755.253 541.241 751.119 545.568 751.119 550.906C751.119 556.244 755.253 560.571 760.353 560.571Z" fill="#CCCCCC"/>
<path id="Vector_174" d="M846.927 569.318C856.617 569.318 864.472 561.096 864.472 550.954C864.472 540.812 856.617 532.591 846.927 532.591C837.237 532.591 829.382 540.812 829.382 550.954C829.382 561.096 837.237 569.318 846.927 569.318Z" fill="#3F3D56"/>
<path id="Vector_175" d="M846.927 560.619C852.027 560.619 856.161 556.292 856.161 550.954C856.161 545.616 852.027 541.289 846.927 541.289C841.827 541.289 837.693 545.616 837.693 550.954C837.693 556.292 841.827 560.619 846.927 560.619Z" fill="#CCCCCC"/>
<path id="Vector_176" d="M769.585 500.639L812.026 500.659H817.207L825.955 500.666V499.997L825.961 491.946L825.967 482.906H820.148L814.967 482.899L805.79 482.893H800.608L790.014 482.887L769.585 500.639Z" fill="white"/>
<path id="Vector_177" d="M832.86 500.672L855.291 500.685L855.297 496.078V488.027L855.303 482.926H852.019L846.838 482.92L832.867 482.913L832.86 500.672Z" fill="white"/>
<path id="Vector_178" d="M823.071 519.632L825.947 519.634L825.95 513.914L823.073 513.912L823.071 519.632Z" fill="#3F3D56"/>
<path id="Vector_179" d="M781.083 508.771L781.085 505.761L775.62 505.758L775.619 508.768L781.083 508.771Z" fill="#3F3D56"/>
<path id="Vector_180" d="M779.071 507.084L778.755 507.084C777.16 507.083 775.632 506.42 774.505 505.239C773.378 504.058 772.746 502.458 772.747 500.789C772.747 499.12 773.382 497.52 774.51 496.341C775.638 495.162 777.167 494.5 778.761 494.501L779.078 494.501L779.071 507.084Z" fill="#3F3D56"/>
<path id="Vector_181" d="M730.289 531.938C732.465 532.186 734.653 531.622 736.47 530.346C738.287 529.071 739.616 527.165 740.222 524.964C740.828 522.764 740.673 520.41 739.784 518.318C738.894 516.226 737.328 514.529 735.361 513.526C732.549 517.303 730.889 521.877 730.597 526.655L730.289 531.938Z" fill="#3F3D56"/>
<path id="Vector_182" d="M814.967 482.899L825.955 499.997L825.961 491.946L820.148 482.906L814.967 482.899Z" fill="#F2F2F2"/>
<path id="Vector_183" d="M846.838 482.92L855.297 496.078V488.027L852.019 482.926L846.838 482.92Z" fill="#F2F2F2"/>
<path id="Vector_184" d="M800.608 482.893L812.026 500.659H817.207L805.79 482.893H800.608Z" fill="#F2F2F2"/>
<path id="Vector_185" d="M331.33 688.652C331.33 688.652 331.33 722.305 338.709 731.132C338.709 731.132 340.29 735.545 340.817 737.2C341.112 738.142 341.464 739.064 341.872 739.959V742.165C341.872 742.165 356.103 740.51 357.684 736.649L355.049 733.338C355.049 733.338 354.522 732.787 355.049 731.132C355.139 730.952 355.181 730.749 355.171 730.546C355.161 730.343 355.098 730.146 354.991 729.977C354.883 729.808 354.733 729.672 354.558 729.584C354.383 729.496 354.188 729.459 353.994 729.477L350.305 720.65L350.832 684.239L348.197 634.036L325.532 632.933L331.33 688.652Z" fill="#2F2E41"/>
<path id="Vector_186" d="M342.926 738.855C342.926 738.855 339.236 750.441 342.926 750.992C346.615 751.544 378.767 752.096 378.24 747.682C377.713 743.269 367.172 743.82 367.172 743.82L356.103 736.649L342.926 738.855Z" fill="#2F2E41"/>
<path id="Vector_187" d="M310.247 634.036C309.794 639.225 310.9 644.432 313.409 648.931C317.626 656.655 314.99 682.584 314.99 682.584L277.568 716.788C277.568 716.788 284.947 730.028 287.582 729.477C290.218 728.925 331.857 693.617 331.857 693.617L348.197 636.243L310.247 634.036Z" fill="#2F2E41"/>
<path id="Vector_188" d="M278.082 715.326C278.082 715.326 266.758 718.267 268.288 721.824C269.818 725.381 286.585 754.1 289.864 751.271C293.144 748.443 287.055 739.419 287.055 739.419L286.917 725.794L278.082 715.326Z" fill="#2F2E41"/>
<path id="Vector_189" d="M330.803 544.112C337.498 544.112 342.926 538.431 342.926 531.423C342.926 524.416 337.498 518.735 330.803 518.735C324.108 518.735 318.68 524.416 318.68 531.423C318.68 538.431 324.108 544.112 330.803 544.112Z" fill="#FFB8B8"/>
<path id="Vector_190" d="M321.264 535.9L321.801 552.228L332.001 556.447C332.001 556.447 333.001 539.728 334.414 538.801C335.826 537.874 321.264 535.9 321.264 535.9Z" fill="#FFB8B8"/>
<path id="Vector_191" d="M334.492 558.456C334.492 558.456 320.261 543.56 316.572 544.112C312.882 544.664 312.882 546.319 312.882 547.422C312.882 548.525 313.936 549.077 312.882 549.629C311.828 550.181 310.774 549.629 310.774 551.284C310.774 552.939 301.286 569.489 304.449 587.695C307.611 605.9 311.301 614.727 309.72 624.657C308.138 634.588 309.192 636.794 309.192 636.794C309.192 636.794 348.724 640.104 349.251 636.243C349.778 632.381 347.669 634.588 350.305 631.829C352.94 629.071 351.886 629.071 351.886 627.416C351.886 625.761 340.29 558.456 334.492 558.456Z" fill="#575A89"/>
<path id="Vector_192" d="M327.113 633.484C327.113 633.484 333.438 649.483 338.182 645.621C342.926 641.759 336.074 628.519 336.074 628.519L327.113 633.484Z" fill="#FFB8B8"/>
<path id="Vector_193" d="M311.828 559.559C311.828 559.559 299.444 561.043 304.055 584.851C308.665 608.659 326.586 636.243 326.586 636.243L338.709 630.174L322.897 597.625L326.586 577.213C326.586 577.213 328.695 557.904 311.828 559.559Z" fill="#575A89"/>
<path id="Vector_194" opacity="0.2" d="M322.633 597.901L340.026 628.243L338.446 629.898L322.633 597.901Z" fill="black"/>
<path id="Vector_195" opacity="0.2" d="M313.427 612.041L327.377 635.967H322.633L313.427 612.041Z" fill="black"/>
<path id="Vector_196" d="M325.316 539.048C326.345 538.612 327.411 538.279 328.5 538.055C330.386 537.387 331.981 536.034 332.996 534.241C334.012 532.448 334.379 530.334 334.033 528.281C333.883 527.76 333.816 527.215 333.834 526.671C333.983 526.083 334.295 525.554 334.731 525.152C335.167 524.75 335.708 524.492 336.284 524.412C337.435 524.271 338.575 524.044 339.695 523.732C340.515 523.346 341.224 522.742 341.753 521.982C342.281 521.221 342.611 520.33 342.71 519.395C342.883 517.514 342.483 515.624 341.567 513.995L341.159 515.224C340.536 514.673 340.074 513.949 339.825 513.137C339.362 513.218 338.926 513.423 338.559 513.732C338.193 514.04 337.908 514.442 337.732 514.899C337.077 515.303 336.983 513.643 336.259 513.398C335.941 513.356 335.619 513.439 335.356 513.631C333.898 514.342 332.204 513.734 330.64 513.339C327.932 512.659 325.109 512.656 322.399 513.329C320.572 513.705 318.883 514.614 317.529 515.952C316.521 517.149 315.747 518.542 315.251 520.05C313.734 523.651 313.102 527.592 313.412 531.514C313.792 534.695 315.063 537.687 317.066 540.113C318.109 541.371 321.513 545.76 323.379 545.011C325.724 544.071 322.553 540.577 325.316 539.048Z" fill="#2F2E41"/>
<path id="Vector_197" opacity="0.2" d="M344.939 655.521L331.069 693.585L331.77 693.864L345.64 655.801L344.939 655.521Z" fill="black"/>
<path id="Vector_198" d="M334.418 561.485C334.832 561.485 335.168 561.133 335.168 560.7C335.168 560.266 334.832 559.915 334.418 559.915C334.004 559.915 333.668 560.266 333.668 560.7C333.668 561.133 334.004 561.485 334.418 561.485Z" fill="#D0CDE1"/>
<path id="Vector_199" d="M340.791 582.674C340.711 582.674 340.633 582.648 340.569 582.598C340.504 582.548 340.457 582.478 340.433 582.398L334.06 560.816C334.03 560.716 334.04 560.609 334.086 560.517C334.133 560.425 334.212 560.356 334.307 560.325C334.402 560.294 334.505 560.304 334.593 560.353C334.681 560.401 334.746 560.485 334.776 560.584L341.149 582.166C341.166 582.225 341.17 582.287 341.16 582.348C341.151 582.408 341.127 582.465 341.092 582.515C341.058 582.564 341.012 582.604 340.96 582.632C340.908 582.66 340.85 582.674 340.791 582.674Z" fill="#D0CDE1"/>
<path id="Vector_200" d="M1014.23 552.024C1021.22 552.024 1026.89 546.091 1026.89 538.773C1026.89 531.455 1021.22 525.523 1014.23 525.523C1007.24 525.523 1001.57 531.455 1001.57 538.773C1001.57 546.091 1007.24 552.024 1014.23 552.024Z" fill="#2F2E41"/>
<path id="Vector_201" d="M996.238 619.039L994.318 623.057C994.318 623.057 988.176 633.503 992.399 634.708C996.622 635.914 997.965 626.874 997.965 626.874L998.733 622.052L996.238 619.039Z" fill="#A0616A"/>
<path id="Vector_202" d="M1003.92 598.548L999.116 611.806L994.319 621.047L1000.27 625.065L1005.07 616.226L1010.83 602.365L1003.92 598.548Z" fill="#D0CDE1"/>
<path id="Vector_203" d="M1017.54 660.624L1027.14 671.271L1044.03 701.204L1051.32 698.793L1042.69 680.914C1042.69 680.914 1037.7 667.253 1035.2 665.445C1032.71 663.637 1028.48 651.784 1028.48 651.784L1023.88 647.967L1017.54 660.624Z" fill="#A0616A"/>
<path id="Vector_204" d="M997.773 666.449L997.006 669.865C997.006 669.865 994.51 680.512 990.672 685.333L981.459 702.007L974.549 699.597L988.177 665.847L997.773 666.449Z" fill="#A0616A"/>
<path id="Vector_205" d="M1012.07 554.251C1017.8 554.251 1022.44 549.394 1022.44 543.403C1022.44 537.411 1017.8 532.554 1012.07 532.554C1006.35 532.554 1001.71 537.411 1001.71 543.403C1001.71 549.394 1006.35 554.251 1012.07 554.251Z" fill="#A0616A"/>
<path id="Vector_206" d="M1020.23 548.726L1021.57 560.378L1012.94 564.798C1012.94 564.798 1012.94 554.753 1010.63 552.141L1020.23 548.726Z" fill="#A0616A"/>
<path id="Vector_207" d="M1047.29 623.86L1048.25 627.275C1048.25 627.275 1054.59 640.333 1049.21 640.333C1043.84 640.333 1042.88 628.28 1042.88 628.28L1042.3 625.266L1047.29 623.86Z" fill="#A0616A"/>
<path id="Vector_208" d="M1003.15 610.199L1004.49 620.043L988.177 656.003L987.217 666.449L1017.73 670.467L1024.45 650.981L1035.2 665.445L1029.06 650.579C1029.06 650.579 1027.14 640.534 1027.72 637.923C1028.29 635.311 1027.33 622.253 1025.6 619.039C1023.88 615.824 1003.15 610.199 1003.15 610.199Z" fill="#2F2E41"/>
<path id="Vector_209" d="M1042.88 701.204L1052.09 697.99L1054.97 702.811C1054.97 702.811 1060.54 704.418 1060.34 708.637C1060.37 712.474 1060.69 716.304 1061.3 720.088L1057.27 720.489L1055.74 712.253L1047.87 722.097C1047.87 722.097 1033.86 722.9 1033.28 720.489C1032.71 718.079 1043.26 715.467 1043.26 715.467L1044.99 706.829L1042.88 701.204Z" fill="#2F2E41"/>
<path id="Vector_210" d="M973.973 698.391L982.419 701.204V703.213C982.419 703.213 984.914 707.231 984.53 710.646C984.146 714.061 982.419 722.297 982.419 722.297H978.004L978.196 714.664L969.367 722.297C969.367 722.297 953.628 721.092 953.628 718.481C953.628 715.869 965.72 714.061 965.72 714.061L973.973 698.391Z" fill="#2F2E41"/>
<path id="Vector_211" d="M1012.36 562.387C1012.36 562.387 1020.23 554.15 1023.88 556.159V559.775C1023.88 559.775 1029.25 562.387 1029.44 566.405C1029.63 570.423 1035.2 606.985 1035.2 606.985L1048.25 654.597C1048.25 654.597 1044.22 661.226 1029.44 653.793L1020.23 621.048C1020.23 621.048 1030.02 658.012 1025.22 657.409C1020.42 656.807 1001.61 611.003 1001.61 611.003L1002.96 589.307C1002.96 589.307 999.884 579.865 1006.03 573.436L1012.36 562.387Z" fill="#D0CDE1"/>
<path id="Vector_212" d="M1025.8 563.592C1025.8 563.592 1029.06 564.798 1031.36 570.021C1033.67 575.244 1045.18 612.007 1045.18 612.007L1048.25 625.066L1039.62 627.275L1035.39 613.816L1019.65 583.28C1019.65 583.28 1017.16 567.208 1025.8 563.592Z" fill="#D0CDE1"/>
<path id="Vector_213" d="M1025.04 534.748C1024.99 533.501 1024.66 532.285 1024.06 531.205C1023.47 530.125 1022.62 529.216 1021.61 528.557C1022.66 526.342 1023.61 523.815 1022.91 521.45C1022.63 520.533 1022.12 519.71 1021.43 519.068C1020.75 518.425 1019.91 517.985 1019.01 517.794C1018 517.649 1016.98 517.663 1015.98 517.835L1011.25 518.397C1009.7 518.46 1008.18 518.887 1006.81 519.646C1006.13 520.096 1005.56 520.706 1005.15 521.428C1004.74 522.15 1004.49 522.963 1004.44 523.802C1004.38 524.641 1004.51 525.483 1004.82 526.259C1005.13 527.035 1005.61 527.725 1006.22 528.272C1002.91 531.042 1000.7 533.145 999.194 537.291C1001.72 535.137 1004.87 533.955 1008.13 533.942C1010.34 533.817 1012.52 534.6 1014.19 536.125C1015.86 537.651 1016.9 539.798 1017.08 542.111C1017.06 543.272 1017.16 544.431 1017.37 545.57C1017.49 546.137 1017.8 546.644 1018.23 547.006C1018.66 547.368 1019.2 547.563 1019.76 547.559C1019.61 547.582 1018.67 544.635 1019.33 543.275L1019.34 543.253C1019.49 542.972 1019.72 542.757 1020.01 542.649C1020.27 542.547 1020.54 542.502 1020.82 542.519C1021.09 542.535 1021.36 542.613 1021.6 542.746C1021.85 542.879 1022.06 543.065 1022.23 543.291C1022.4 543.518 1022.52 543.779 1022.59 544.058C1022.95 545.534 1023.54 547.417 1024.05 546.918C1024.73 546.263 1024.44 540.491 1024.62 539.596C1024.99 538.01 1025.13 536.377 1025.04 534.748Z" fill="#2F2E41"/>
<path id="Vector_214" d="M1021.56 528.517C1021.56 528.517 1011.16 529.227 1006.18 528.28L1021.56 528.517Z" fill="#D0CDE1"/>
<path id="Vector_215" d="M1020.97 527.06C1022.02 524.846 1022.96 522.318 1022.27 519.953C1021.95 518.887 1021.31 517.954 1020.46 517.284C1021.11 517.598 1021.69 518.052 1022.17 518.615C1022.65 519.178 1023.01 519.839 1023.23 520.556C1023.92 522.921 1022.98 525.448 1021.93 527.663C1021.09 527.532 1023.07 528.23 1020.97 527.06Z" fill="#2F2E41"/>
<path id="Vector_216" opacity="0.2" d="M1017.64 583.38L1032.61 611.104L1038.37 626.171L1030.31 611.706L1017.64 583.38Z" fill="black"/>
<path id="Vector_217" d="M309.929 740.951C309.929 740.951 305.236 751.643 301.425 754.641C297.567 751.635 292.782 740.951 292.782 740.951C292.782 740.951 288.089 751.643 284.278 754.641C280.42 751.635 275.635 740.951 275.635 740.951C275.635 740.951 262.306 755.212 262.343 761.967C262.344 762.135 262.353 762.303 262.371 762.471C262.825 766.893 276.606 768.02 284.176 765.936C289.819 767.283 295.68 767.283 301.323 765.936C308.861 768.053 322.921 766.84 323.332 762.367C323.348 762.199 323.355 762.031 323.354 761.863C323.317 755.108 309.929 740.951 309.929 740.951Z" fill="#6C63FF"/>
<path id="Vector_218" d="M589.944 740.951C589.944 740.951 585.251 751.643 581.441 754.641C577.583 751.635 572.798 740.951 572.798 740.951C572.798 740.951 568.105 751.643 564.294 754.641C560.436 751.635 555.651 740.951 555.651 740.951C555.651 740.951 542.322 755.212 542.359 761.967C542.36 762.135 542.369 762.303 542.386 762.471C542.841 766.893 556.622 768.02 564.192 765.936C569.835 767.283 575.696 767.283 581.339 765.936C588.876 768.053 602.937 766.84 603.348 762.367C603.364 762.199 603.371 762.031 603.37 761.863C603.333 755.108 589.944 740.951 589.944 740.951Z" fill="#E6E6E6"/>
<path id="Vector_219" d="M868.148 740.951C868.148 740.951 863.455 751.643 859.644 754.641C855.786 751.635 851.001 740.951 851.001 740.951C851.001 740.951 846.308 751.643 842.497 754.641C838.639 751.635 833.854 740.951 833.854 740.951C833.854 740.951 820.525 755.212 820.562 761.967C820.563 762.135 820.572 762.303 820.59 762.471C821.045 766.893 834.825 768.02 842.395 765.936C848.038 767.283 853.899 767.283 859.542 765.936C867.08 768.053 881.14 766.84 881.551 762.367C881.567 762.199 881.574 762.031 881.573 761.863C881.536 755.108 868.148 740.951 868.148 740.951Z" fill="#6C63FF"/>
<path id="cloud1" d="M326.742 222.175L326.619 222.245C325.292 223.004 323.805 223.405 322.292 223.41C320.78 223.416 319.29 223.026 317.958 222.276C317.882 222.233 317.805 222.19 317.729 222.148C316.398 221.404 314.91 221.017 313.4 221.023C311.891 221.028 310.406 221.426 309.079 222.179L308.964 222.245C307.637 223.004 306.15 223.405 304.638 223.41C303.126 223.416 301.636 223.026 300.304 222.276C300.224 222.231 300.145 222.187 300.066 222.143C298.75 221.402 297.28 221.013 295.785 221.011C294.291 221.008 292.819 221.391 291.5 222.127C287.472 224.398 282.026 228.28 282.05 232.664C282.051 232.838 282.061 233.011 282.078 233.183C282.547 237.736 296.735 238.896 304.529 236.751C310.34 238.138 316.374 238.138 322.184 236.751C329.945 238.931 344.422 237.682 344.845 233.076C344.861 232.904 344.868 232.731 344.868 232.557C344.844 228.171 339.35 224.329 335.296 222.091C333.974 221.366 332.501 220.995 331.009 221.01C329.517 221.025 328.051 221.425 326.742 222.175Z" fill="#E6E6E6"/>
<path id="cloud" d="M590.42 270.296L590.298 270.366C588.971 271.125 587.484 271.526 585.971 271.531C584.459 271.537 582.969 271.147 581.637 270.397C581.561 270.354 581.484 270.311 581.408 270.269C580.076 269.525 578.589 269.138 577.079 269.144C575.57 269.149 574.085 269.547 572.758 270.3L590.42 216C589.094 216.76 569.829 271.526 568.317 271.531C566.805 271.537 565.315 271.147 563.983 270.397C563.903 270.352 563.824 270.308 563.745 270.264C562.429 269.524 560.958 269.135 559.464 269.132C557.97 269.129 556.498 269.513 555.179 270.248C551.151 272.519 545.705 276.401 545.729 280.785C545.73 280.959 545.74 281.132 545.757 281.304C546.226 285.857 560.414 287.017 568.208 284.872C574.019 286.259 580.053 286.259 585.863 284.872C593.624 287.052 608.101 285.803 608.524 281.198C608.54 281.025 608.547 280.852 608.546 280.678C608.523 276.292 603.029 272.45 598.975 270.212C597.653 269.488 596.18 269.116 594.688 269.131C593.195 269.146 591.73 269.546 590.42 270.296Z" fill="#E6E6E6"/>
<path id="cloud2" d="M772.662 224.262L772.539 224.332C771.213 225.092 769.725 225.492 768.213 225.498C766.701 225.503 765.211 225.114 763.879 224.364C763.802 224.321 763.726 224.278 763.65 224.235C762.318 223.491 760.831 223.105 759.321 223.11C757.811 223.116 756.327 223.513 755 224.267L754.885 224.332C753.558 225.092 752.071 225.492 750.559 225.498C749.046 225.503 747.557 225.114 746.225 224.364C746.145 224.319 746.066 224.274 745.987 224.231C744.671 223.49 743.2 223.101 741.706 223.098C740.212 223.095 738.74 223.479 737.421 224.215C733.393 226.485 727.947 230.367 727.971 234.752C727.972 234.925 727.981 235.098 727.999 235.271C728.468 239.824 742.656 240.984 750.45 238.838C756.26 240.226 762.295 240.226 768.105 238.838C775.866 241.018 790.343 239.769 790.766 235.164C790.782 234.991 790.789 234.818 790.788 234.645C790.764 230.258 785.271 226.417 781.217 224.178C779.895 223.454 778.422 223.083 776.93 223.097C775.437 223.112 773.971 223.512 772.662 224.262Z" fill="#E6E6E6"/>
<path id="Vector_220" d="M1101.15 765.225H169V767H1101.15V765.225Z" fill="#3F3D56"/>
</g>
</g>
<defs>
<clipPath id="clip0_1:3">
<rect width="933" height="595" fill="white" transform="translate(169 172)"/>
</clipPath>
</defs>
</svg>
