<svg width="1362" height="786" viewBox="0 0 1362 786" fill="none" xmlns="http://www.w3.org/2000/svg">
<g id="maze 1">
<path id="Vector" d="M596.416 476.996V426.032L517.679 380.974V428.604L596.416 476.996Z" fill="#D6D2CD"/>
<path id="Vector_2" d="M963.104 371.34V320.376L732.525 186.753V234.609L963.104 371.34Z" fill="#D6D2CD"/>
<path id="Vector_3" d="M727.555 457.729V406.766L639.301 355.802V403.433L727.555 457.729Z" fill="#D6D2CD"/>
<path id="Vector_4" d="M879.627 449.339V398.375L800.89 353.316V400.947L879.627 449.339Z" fill="#D6D2CD"/>
<path id="Vector_5" d="M611.953 609.997V559.034L1025.88 319.754V367.61L611.953 609.997Z" fill="#C1BDB9"/>
<path id="Vector_6" d="M391.941 483.211V432.248L424.26 413.603V462.08L391.941 483.211Z" fill="#C1BDB9"/>
<path id="Vector_7" d="M449.119 414.224V362.639L480.816 343.994V393.093L449.119 414.224Z" fill="#C1BDB9"/>
<path id="Vector_8" d="M557.262 376.313V324.106L589.58 305.461V354.56L557.262 376.313Z" fill="#C1BDB9"/>
<path id="Vector_9" d="M660.432 196.145V144.56L610.711 115.901V163.757L660.432 196.145Z" fill="#D6D2CD"/>
<path id="Vector_10" d="M727.555 458.972V406.766L759.873 388.121V437.219L727.555 458.972Z" fill="#C1BDB9"/>
<path id="Vector_11" d="M544.209 544.773V493.81L661.052 426.263V474.119L544.209 544.773Z" fill="#C1BDB9"/>
<path id="Vector_12" d="M650.488 335.096V284.133L720.718 243.532V291.388L650.488 335.096Z" fill="#C1BDB9"/>
<path id="Vector_13" d="M746.199 379.94V328.976L813.943 289.923V337.779L746.199 379.94Z" fill="#C1BDB9"/>
<path id="Vector_14" d="M262.047 370.097V319.134L405.614 236.474V284.329L262.047 370.097Z" fill="#C1BDB9"/>
<path id="ball" d="M709.35 340.434C690.623 340.434 675.442 325.253 675.442 306.526C675.442 287.799 690.623 272.618 709.35 272.618C728.077 272.618 743.258 287.799 743.258 306.526C743.258 325.253 728.077 340.434 709.35 340.434Z" fill="url(#paint0_radial_1:2)"/>
<path id="Vector_15" d="M746.82 379.625V328.662L713.881 309.812V357.442L746.82 379.625Z" fill="#D6D2CD"/>
<path id="Vector_16" d="M436.689 269.414V218.451L611.332 117.146V165.001L436.689 269.414Z" fill="#C1BDB9"/>
<path id="Vector_17" d="M595.797 267.395V216.432L721.962 143.247V191.103L595.797 267.395Z" fill="#C1BDB9"/>
<path id="Vector_18" d="M611.953 609.998V559.035L449.119 465.333V513.189L611.953 609.998Z" fill="#D6D2CD"/>
<path id="Vector_19" d="M557.262 374.702V323.738L405.614 236.474V284.329L557.262 374.702Z" fill="#D6D2CD"/>
<path id="Vector_20" d="M650.488 335.293V284.329L537.374 212.856V260.712L650.488 335.293Z" fill="#D6D2CD"/>
<path id="Vector_21" d="M392.564 483.211V432.248L197.412 319.134V366.99L392.564 483.211Z" fill="#D6D2CD"/>
<path id="Vector_22" d="M449.119 414.224V362.64L359.622 311.055V358.911L449.119 414.224Z" fill="#D6D2CD"/>
<path id="Vector_23" fill-rule="evenodd" clip-rule="evenodd" d="M611.9 79.001L723.765 143.581L602.131 213.8L652.256 245.188L688.259 224.403L722.035 243.902L650.856 284.993L535.924 213.024L656.214 143.581L611.9 117.998L438.969 217.832L590.509 305.316L556.733 324.815L405.193 237.33L262.885 319.485L425.143 413.157L391.368 432.655L195.334 319.485L611.9 79.001ZM960.916 319.485L732.052 187.362L765.827 167.863L1028.47 319.485L611.9 559.969L448.021 465.361L481.797 445.862L521.562 468.819L594.967 426.442L516.923 381.387L550.699 361.888L662.519 426.442L555.337 488.318L611.9 520.971L850.672 383.129L800.188 353.985L833.964 334.486L884.448 363.63L960.916 319.485ZM713.592 309.736L780.963 270.842L814.739 290.341L747.368 329.234L713.592 309.736ZM726.693 407.021L637.885 355.753L671.661 336.254L760.468 387.522L726.693 407.021ZM448.021 363.234L359.213 311.965L392.989 292.467L481.797 343.735L448.021 363.234Z" fill="#E7E5E3"/>
</g>
<defs>
<radialGradient id="paint0_radial_1:2" cx="0" cy="0" r="1" gradientUnits="userSpaceOnUse" gradientTransform="translate(720.498 300.023) rotate(105.422) scale(41.92)">
<stop offset="0.484375" stop-color="#FF8E5E"/>
<stop offset="1" stop-color="#D16233"/>
</radialGradient>
</defs>
</svg>
