<svg width="1271" height="973" viewBox="0 0 1271 973" fill="none" xmlns="http://www.w3.org/2000/svg">
<g id="Frame 1">
<g id="undraw_town_r6pc 1" clip-path="url(#clip0_1:3)">
<path id="Vector" d="M419.588 585.33H254.36V591.695H419.588V585.33Z" fill="#F2F2F2"/>
<path id="Vector_2" d="M793.633 585.33H628.404V591.695H793.633V585.33Z" fill="#F2F2F2"/>
<path id="Vector_3" d="M1048.06 585.33H882.835V591.695H1048.06V585.33Z" fill="#F2F2F2"/>
<path id="Vector_4" d="M1049.03 488.905C1047.51 489.727 1046.1 490.749 1044.83 491.946C1043.53 490.743 1042.1 489.721 1040.55 488.905C1039.03 489.727 1037.62 490.749 1036.35 491.946C1035.06 490.743 1033.62 489.721 1032.08 488.905C1032.08 488.905 1025.48 492.297 1025.5 496.443C1025.5 496.546 1025.51 496.65 1025.52 496.752C1025.74 499.466 1032.56 500.158 1036.3 498.879C1039.07 499.706 1042.01 499.706 1044.78 498.879C1048.5 500.179 1055.46 499.434 1055.66 496.689C1055.67 496.586 1055.67 496.483 1055.67 496.379C1055.65 492.233 1049.03 488.905 1049.03 488.905Z" fill="#F2F2F2"/>
<path id="Vector_5" d="M176.067 346.298L170.22 341.403L202.959 310.808H285.974V337.732L232.19 375.669L176.067 346.298Z" fill="#3F3D56"/>
<path id="Vector_6" d="M301.111 327.97V311.419H290.089V315.472L285.974 310.808L259.083 341.403L248.56 348.746L232.243 473.518L256.85 499.273H314.037V342.627L301.111 327.97Z" fill="#CCCCCC"/>
<path id="Vector_7" d="M259.083 341.403H170.221V499.273H259.083V341.403Z" fill="#F2F2F2"/>
<path id="Vector_8" d="M221.082 460.724H204.713V499.273H221.082V460.724Z" fill="#CCCCCC"/>
<path id="Vector_9" d="M187.175 471.737V465.619H180.159V471.737H186.59H187.175Z" fill="#3F3D56"/>
<path id="Vector_10" d="M186.59 476.633H180.159V482.752H187.175V476.633H186.59Z" fill="#3F3D56"/>
<path id="Vector_11" d="M198.867 465.619H191.852V471.738H198.867V465.619Z" fill="#3F3D56"/>
<path id="Vector_12" d="M198.867 476.633H191.852V482.752H198.867V476.633Z" fill="#3F3D56"/>
<path id="Vector_13" d="M235.114 471.737V465.619H228.098V471.737H234.529H235.114Z" fill="#3F3D56"/>
<path id="Vector_14" d="M234.529 476.633H228.098V482.752H235.114V476.633H234.529Z" fill="#3F3D56"/>
<path id="Vector_15" d="M246.806 465.619H239.79V471.738H246.806V465.619Z" fill="#3F3D56"/>
<path id="Vector_16" d="M246.806 476.633H239.79V482.752H246.806V476.633Z" fill="#3F3D56"/>
<path id="Vector_17" d="M284.221 349.358V343.238H277.205V349.358H283.637H284.221Z" fill="#3F3D56"/>
<path id="Vector_18" d="M283.637 354.253H277.205V360.372H284.221V354.253H283.637Z" fill="#3F3D56"/>
<path id="Vector_19" d="M295.913 343.239H288.898V349.358H295.913V343.239Z" fill="#3F3D56"/>
<path id="Vector_20" d="M295.913 354.253H288.898V360.372H295.913V354.253Z" fill="#3F3D56"/>
<path id="Vector_21" d="M284.221 383.624V377.506H277.205V383.624H283.637H284.221Z" fill="#3F3D56"/>
<path id="Vector_22" d="M283.637 388.52H277.205V394.638H284.221V388.52H283.637Z" fill="#3F3D56"/>
<path id="Vector_23" d="M295.913 377.505H288.898V383.624H295.913V377.505Z" fill="#3F3D56"/>
<path id="Vector_24" d="M295.913 388.519H288.898V394.638H295.913V388.519Z" fill="#3F3D56"/>
<path id="Vector_25" d="M284.221 417.891V411.772H277.205V417.891H283.637H284.221Z" fill="#3F3D56"/>
<path id="Vector_26" d="M283.637 422.786H277.205V428.905H284.221V422.786H283.637Z" fill="#3F3D56"/>
<path id="Vector_27" d="M295.913 411.771H288.898V417.891H295.913V411.771Z" fill="#3F3D56"/>
<path id="Vector_28" d="M295.913 422.786H288.898V428.905H295.913V422.786Z" fill="#3F3D56"/>
<path id="Vector_29" d="M284.221 452.157V446.038H277.205V452.157H283.637H284.221Z" fill="#3F3D56"/>
<path id="Vector_30" d="M283.637 457.052H277.205V463.171H284.221V457.052H283.637Z" fill="#3F3D56"/>
<path id="Vector_31" d="M295.913 446.038H288.898V452.157H295.913V446.038Z" fill="#3F3D56"/>
<path id="Vector_32" d="M295.913 457.052H288.898V463.171H295.913V457.052Z" fill="#3F3D56"/>
<path id="Vector_33" d="M247.975 349.358H180.159V364.043H247.975V349.358Z" fill="#3F3D56"/>
<path id="Vector_34" d="M247.975 378.729H180.159V393.414H247.975V378.729Z" fill="#3F3D56"/>
<path id="Vector_35" d="M247.975 408.1H180.159V422.786H247.975V408.1Z" fill="#3F3D56"/>
<path id="Vector_36" d="M247.975 437.471H180.159V452.157H247.975V437.471Z" fill="#3F3D56"/>
<path id="Vector_37" d="M309.094 489.792C307.574 490.614 306.161 491.636 304.889 492.834C303.596 491.631 302.159 490.608 300.615 489.792C299.096 490.614 297.683 491.636 296.411 492.834C295.118 491.631 293.681 490.608 292.137 489.792C292.137 489.792 285.546 493.185 285.565 497.33C285.565 497.434 285.57 497.537 285.578 497.64C285.803 500.354 292.617 501.045 296.36 499.766C299.131 500.594 302.068 500.594 304.838 499.766C308.566 501.066 315.518 500.321 315.721 497.576C315.729 497.473 315.732 497.37 315.732 497.266C315.714 493.121 309.094 489.792 309.094 489.792Z" fill="#6C63FF"/>
<path id="Vector_38" d="M278.656 346.298L272.809 341.403L305.547 310.808H388.563V337.732L334.779 375.669L278.656 346.298Z" fill="#3F3D56"/>
<path id="Vector_39" d="M403.699 327.97V311.419H392.677V315.472L388.563 310.808L361.671 341.403L351.148 348.746L334.831 473.518L359.438 499.273H416.625V342.627L403.699 327.97Z" fill="#CCCCCC"/>
<path id="Vector_40" d="M361.671 341.403H272.809V499.273H361.671V341.403Z" fill="#F2F2F2"/>
<path id="Vector_41" d="M323.671 460.724H307.302V499.273H323.671V460.724Z" fill="#CCCCCC"/>
<path id="Vector_42" d="M289.764 471.737V465.619H282.748V471.737H289.179H289.764Z" fill="#3F3D56"/>
<path id="Vector_43" d="M289.179 476.633H282.748V482.752H289.764V476.633H289.179Z" fill="#3F3D56"/>
<path id="Vector_44" d="M301.455 465.619H294.44V471.738H301.455V465.619Z" fill="#3F3D56"/>
<path id="Vector_45" d="M301.455 476.633H294.44V482.752H301.455V476.633Z" fill="#3F3D56"/>
<path id="Vector_46" d="M337.702 471.737V465.619H330.686V471.737H337.117H337.702Z" fill="#3F3D56"/>
<path id="Vector_47" d="M337.117 476.633H330.686V482.752H337.702V476.633H337.117Z" fill="#3F3D56"/>
<path id="Vector_48" d="M349.394 465.619H342.379V471.738H349.394V465.619Z" fill="#3F3D56"/>
<path id="Vector_49" d="M349.394 476.633H342.379V482.752H349.394V476.633Z" fill="#3F3D56"/>
<path id="Vector_50" d="M386.809 349.358V343.238H379.794V349.358H386.225H386.809Z" fill="#3F3D56"/>
<path id="Vector_51" d="M386.225 354.253H379.794V360.372H386.809V354.253H386.225Z" fill="#3F3D56"/>
<path id="Vector_52" d="M398.502 343.239H391.486V349.358H398.502V343.239Z" fill="#3F3D56"/>
<path id="Vector_53" d="M398.502 354.253H391.486V360.372H398.502V354.253Z" fill="#3F3D56"/>
<path id="Vector_54" d="M386.809 383.624V377.506H379.794V383.624H386.225H386.809Z" fill="#3F3D56"/>
<path id="Vector_55" d="M386.225 388.52H379.794V394.638H386.809V388.52H386.225Z" fill="#3F3D56"/>
<path id="Vector_56" d="M398.502 377.505H391.486V383.624H398.502V377.505Z" fill="#3F3D56"/>
<path id="Vector_57" d="M398.502 388.519H391.486V394.638H398.502V388.519Z" fill="#3F3D56"/>
<path id="Vector_58" d="M386.809 417.891V411.772H379.794V417.891H386.225H386.809Z" fill="#3F3D56"/>
<path id="Vector_59" d="M386.225 422.786H379.794V428.905H386.809V422.786H386.225Z" fill="#3F3D56"/>
<path id="Vector_60" d="M398.502 411.771H391.486V417.891H398.502V411.771Z" fill="#3F3D56"/>
<path id="Vector_61" d="M398.502 422.786H391.486V428.905H398.502V422.786Z" fill="#3F3D56"/>
<path id="Vector_62" d="M386.809 452.157V446.038H379.794V452.157H386.225H386.809Z" fill="#3F3D56"/>
<path id="Vector_63" d="M386.225 457.052H379.794V463.171H386.809V457.052H386.225Z" fill="#3F3D56"/>
<path id="Vector_64" d="M398.502 446.038H391.486V452.157H398.502V446.038Z" fill="#3F3D56"/>
<path id="Vector_65" d="M398.502 457.052H391.486V463.171H398.502V457.052Z" fill="#3F3D56"/>
<path id="Vector_66" d="M350.563 349.358H282.748V364.043H350.563V349.358Z" fill="#3F3D56"/>
<path id="Vector_67" d="M350.563 378.729H282.748V393.414H350.563V378.729Z" fill="#3F3D56"/>
<path id="Vector_68" d="M350.563 408.1H282.748V422.786H350.563V408.1Z" fill="#3F3D56"/>
<path id="Vector_69" d="M350.563 437.471H282.748V452.157H350.563V437.471Z" fill="#3F3D56"/>
<path id="sun" d="M292.413 229.774C308.447 229.774 321.445 216.17 321.445 199.387C321.445 182.605 308.447 169 292.413 169C276.379 169 263.38 182.605 263.38 199.387C263.38 216.17 276.379 229.774 292.413 229.774Z" fill="#FF6584"/>
<path id="Vector_70" d="M478.478 381.672H475.647V498.718H478.478V381.672Z" fill="#3F3D56"/>
<path id="Vector_71" d="M506.105 415.736C506.111 417.024 506.1 418.305 506.071 419.58C505.056 465.655 452.28 465.91 450.859 419.847C450.82 418.572 450.797 417.291 450.791 416.003C450.564 364.5 478.037 322.615 478.037 322.615C478.037 322.615 505.878 364.233 506.105 415.736Z" fill="#E6E6E6"/>
<path id="Vector_72" d="M468.632 489.532C467.112 490.355 465.699 491.377 464.427 492.574C463.134 491.371 461.698 490.349 460.153 489.532C458.634 490.355 457.221 491.377 455.949 492.574C454.656 491.371 453.219 490.349 451.675 489.532C451.675 489.532 445.085 492.925 445.103 497.071C445.103 497.174 445.108 497.278 445.116 497.38C445.341 500.094 452.155 500.786 455.898 499.507C458.669 500.334 461.606 500.334 464.377 499.507C468.104 500.807 475.056 500.062 475.259 497.317C475.267 497.214 475.271 497.111 475.27 497.007C475.252 492.861 468.632 489.532 468.632 489.532Z" fill="#CCCCCC"/>
<path id="Vector_73" d="M547.848 449.097L544.341 442.978L577.079 386.985H661.263V395.552L630.863 456.44L595.786 463.783L547.848 449.097Z" fill="#3F3D56"/>
<path id="Vector_74" d="M675.755 430.843V385.073H664.733V391.111L661.263 386.985L633.202 442.978L628.525 447.874L622.679 472.35L633.202 499.273H686.986V444.202L675.755 430.843Z" fill="#CCCCCC"/>
<path id="Vector_75" d="M633.202 442.978H544.34V499.273H633.202V442.978Z" fill="#F2F2F2"/>
<path id="Vector_76" d="M620.925 460.724H602.217V477.857H620.925V460.724Z" fill="#3F3D56"/>
<path id="Vector_77" d="M594.617 460.112H578.248V499.273H594.617V460.112Z" fill="#CCCCCC"/>
<path id="Vector_78" d="M559.541 466.231V460.112H552.525V466.231H558.956H559.541Z" fill="#3F3D56"/>
<path id="Vector_79" d="M558.956 471.126H552.525V477.245H559.541V471.126H558.956Z" fill="#3F3D56"/>
<path id="Vector_80" d="M571.233 460.112H564.217V466.231H571.233V460.112Z" fill="#3F3D56"/>
<path id="Vector_81" d="M571.233 471.126H564.217V477.245H571.233V471.126Z" fill="#3F3D56"/>
<path id="Vector_82" d="M658.341 467.73V461.611H651.325V467.73H657.756H658.341Z" fill="#3F3D56"/>
<path id="Vector_83" d="M657.756 472.625H651.325V478.744H658.341V472.625H657.756Z" fill="#3F3D56"/>
<path id="Vector_84" d="M670.033 461.611H663.017V467.73H670.033V461.611Z" fill="#3F3D56"/>
<path id="Vector_85" d="M670.033 472.625H663.017V478.744H670.033V472.625Z" fill="#3F3D56"/>
<path id="Vector_86" d="M584.641 409.999L583.718 408.39L592.332 393.657H614.481V395.91L606.484 411.931L597.254 413.863L584.641 409.999Z" fill="#3F3D56"/>
<path id="Vector_87" d="M614.481 393.657L607.099 408.39L605.868 409.678L604.33 416.118L607.099 423.201H621.25V408.711L614.481 393.657Z" fill="#CCCCCC"/>
<path id="Vector_88" d="M607.098 408.389H583.718V423.201H607.098V408.389Z" fill="#F2F2F2"/>
<path id="Vector_89" d="M593.623 414.772V411.85H590.274V414.772H593.344H593.623Z" fill="#3F3D56"/>
<path id="Vector_90" d="M593.344 417.11H590.274V420.031H593.623V417.11H593.344Z" fill="#3F3D56"/>
<path id="Vector_91" d="M599.206 411.85H595.856V414.772H599.206V411.85Z" fill="#3F3D56"/>
<path id="Vector_92" d="M599.206 417.109H595.856V420.031H599.206V417.109Z" fill="#3F3D56"/>
<path id="Vector_93" d="M653.828 449.097L650.32 442.978L683.058 386.985H767.243V395.552L736.843 456.44L701.766 463.783L653.828 449.097Z" fill="#3F3D56"/>
<path id="Vector_94" d="M781.735 430.843V385.073H770.713V391.111L767.243 386.985L739.182 442.978L734.505 447.874L728.658 472.35L739.182 499.273H792.966V444.202L781.735 430.843Z" fill="#CCCCCC"/>
<path id="Vector_95" d="M739.182 442.978H650.32V499.273H739.182V442.978Z" fill="#F2F2F2"/>
<path id="Vector_96" d="M726.905 460.724H708.197V477.857H726.905V460.724Z" fill="#3F3D56"/>
<path id="Vector_97" d="M700.597 460.112H684.228V499.273H700.597V460.112Z" fill="#CCCCCC"/>
<path id="Vector_98" d="M665.52 466.231V460.111H658.504V466.231H664.936H665.52Z" fill="#3F3D56"/>
<path id="Vector_99" d="M664.936 471.126H658.504V477.245H665.52V471.126H664.936Z" fill="#3F3D56"/>
<path id="Vector_100" d="M677.212 460.112H670.197V466.231H677.212V460.112Z" fill="#3F3D56"/>
<path id="Vector_101" d="M677.212 471.126H670.197V477.245H677.212V471.126Z" fill="#3F3D56"/>
<path id="Vector_102" d="M764.32 466.843V460.723H757.304V466.843H763.735H764.32Z" fill="#3F3D56"/>
<path id="Vector_103" d="M763.735 471.737H757.304V477.857H764.32V471.737H763.735Z" fill="#3F3D56"/>
<path id="Vector_104" d="M776.013 460.724H768.997V466.843H776.013V460.724Z" fill="#3F3D56"/>
<path id="Vector_105" d="M776.013 471.738H768.997V477.857H776.013V471.738Z" fill="#3F3D56"/>
<path id="Vector_106" d="M756.416 449.097L752.908 442.978L785.647 386.985H869.832V395.552L839.432 456.44L804.355 463.783L756.416 449.097Z" fill="#3F3D56"/>
<path id="Vector_107" d="M884.323 430.843V385.073H873.302V391.111L869.832 386.985L841.771 442.978L837.093 447.874L831.247 472.35L841.771 499.273H895.555V444.202L884.323 430.843Z" fill="#CCCCCC"/>
<path id="Vector_108" d="M841.77 442.978H752.908V499.273H841.77V442.978Z" fill="#F2F2F2"/>
<path id="Vector_109" d="M829.493 460.724H810.786V477.857H829.493V460.724Z" fill="#3F3D56"/>
<path id="Vector_110" d="M803.185 460.112H786.816V499.273H803.185V460.112Z" fill="#CCCCCC"/>
<path id="Vector_111" d="M768.108 466.231V460.111H761.094V466.231H767.524H768.108Z" fill="#3F3D56"/>
<path id="Vector_112" d="M767.524 471.126H761.094V477.245H768.108V471.126H767.524Z" fill="#3F3D56"/>
<path id="Vector_113" d="M779.801 460.112H772.785V466.231H779.801V460.112Z" fill="#3F3D56"/>
<path id="Vector_114" d="M779.801 471.126H772.785V477.245H779.801V471.126Z" fill="#3F3D56"/>
<path id="Vector_115" d="M866.909 466.843V460.723H859.893V466.843H866.325H866.909Z" fill="#3F3D56"/>
<path id="Vector_116" d="M866.325 471.737H859.893V477.857H866.909V471.737H866.325Z" fill="#3F3D56"/>
<path id="Vector_117" d="M878.601 460.724H871.586V466.843H878.601V460.724Z" fill="#3F3D56"/>
<path id="Vector_118" d="M878.601 471.738H871.586V477.857H878.601V471.738Z" fill="#3F3D56"/>
<path id="Vector_119" d="M688.077 410.887L687.154 409.277L695.768 394.544H717.918V396.798L709.919 412.819L700.69 414.75L688.077 410.887Z" fill="#3F3D56"/>
<path id="Vector_120" d="M717.918 394.544L710.535 409.276L709.304 410.565L707.766 417.005L710.535 424.089H724.687V409.599L717.918 394.544Z" fill="#CCCCCC"/>
<path id="Vector_121" d="M710.535 409.277H687.154V424.088H710.535V409.277Z" fill="#F2F2F2"/>
<path id="Vector_122" d="M697.06 415.659V412.737H693.71V415.659H696.78H697.06Z" fill="#3F3D56"/>
<path id="Vector_123" d="M696.78 417.997H693.71V420.919H697.06V417.997H696.78Z" fill="#3F3D56"/>
<path id="Vector_124" d="M702.642 412.738H699.293V415.659H702.642V412.738Z" fill="#3F3D56"/>
<path id="Vector_125" d="M702.642 417.997H699.293V420.918H702.642V417.997Z" fill="#3F3D56"/>
<path id="Vector_126" d="M791.514 409.999L790.59 408.39L799.204 393.657H821.354V395.91L813.355 411.931L804.127 413.863L791.514 409.999Z" fill="#3F3D56"/>
<path id="Vector_127" d="M821.354 393.657L813.971 408.39L812.74 409.678L811.202 416.118L813.971 423.201H828.122V408.711L821.354 393.657Z" fill="#CCCCCC"/>
<path id="Vector_128" d="M813.971 408.389H790.591V423.201H813.971V408.389Z" fill="#F2F2F2"/>
<path id="Vector_129" d="M800.496 414.772V411.85H797.147V414.772H800.217H800.496Z" fill="#3F3D56"/>
<path id="Vector_130" d="M800.217 417.11H797.147V420.031H800.496V417.11H800.217Z" fill="#3F3D56"/>
<path id="Vector_131" d="M806.079 411.85H802.729V414.772H806.079V411.85Z" fill="#3F3D56"/>
<path id="Vector_132" d="M806.079 417.109H802.729V420.031H806.079V417.109Z" fill="#3F3D56"/>
<path id="Vector_133" d="M862.396 449.097L858.888 442.978L891.627 386.985H975.812V395.552L945.411 456.44L910.334 463.783L862.396 449.097Z" fill="#3F3D56"/>
<path id="Vector_134" d="M990.304 394.839V385.073H979.281V391.111L975.812 386.985L947.75 442.978L943.073 447.874L937.227 472.35L947.75 499.273H1001.53V444.202L990.304 394.839Z" fill="#CCCCCC"/>
<path id="Vector_135" d="M947.75 442.978H858.888V499.273H947.75V442.978Z" fill="#F2F2F2"/>
<path id="Vector_136" d="M935.473 460.724H916.765V477.857H935.473V460.724Z" fill="#3F3D56"/>
<path id="Vector_137" d="M909.165 460.112H892.796V499.273H909.165V460.112Z" fill="#CCCCCC"/>
<path id="Vector_138" d="M874.088 466.231V460.111H867.073V466.231H873.503H874.088Z" fill="#3F3D56"/>
<path id="Vector_139" d="M873.503 471.126H867.073V477.245H874.088V471.126H873.503Z" fill="#3F3D56"/>
<path id="Vector_140" d="M885.781 460.112H878.765V466.231H885.781V460.112Z" fill="#3F3D56"/>
<path id="Vector_141" d="M885.781 471.126H878.765V477.245H885.781V471.126Z" fill="#3F3D56"/>
<path id="Vector_142" d="M972.889 466.843V460.723H965.873V466.843H972.304H972.889Z" fill="#3F3D56"/>
<path id="Vector_143" d="M972.304 471.737H965.873V477.857H972.889V471.737H972.304Z" fill="#3F3D56"/>
<path id="Vector_144" d="M984.581 460.724H977.565V466.843H984.581V460.724Z" fill="#3F3D56"/>
<path id="Vector_145" d="M984.581 471.738H977.565V477.857H984.581V471.738Z" fill="#3F3D56"/>
<path id="Vector_146" d="M894.95 410.887L894.027 409.277L902.64 394.544H924.791V396.798L916.792 412.819L907.563 414.75L894.95 410.887Z" fill="#3F3D56"/>
<path id="Vector_147" d="M924.791 394.544L917.407 409.276L916.177 410.565L914.638 417.005L917.407 424.089H931.558V409.599L924.791 394.544Z" fill="#CCCCCC"/>
<path id="Vector_148" d="M917.407 409.277H894.027V424.088H917.407V409.277Z" fill="#F2F2F2"/>
<path id="Vector_149" d="M903.932 415.659V412.737H900.583V415.659H903.653H903.932Z" fill="#3F3D56"/>
<path id="Vector_150" d="M903.653 417.997H900.583V420.919H903.932V417.997H903.653Z" fill="#3F3D56"/>
<path id="Vector_151" d="M909.515 412.738H906.165V415.659H909.515V412.738Z" fill="#3F3D56"/>
<path id="Vector_152" d="M909.515 417.997H906.165V420.918H909.515V417.997Z" fill="#3F3D56"/>
<path id="Vector_153" d="M1102 498.665H169.848V500.44H1102V498.665Z" fill="#3F3D56"/>
<path id="Vector_154" d="M1101.15 664.61H169V666.385H1101.15V664.61Z" fill="#3F3D56"/>
<path id="Vector_155" d="M1041.03 381.655H1038.2V498.665H1041.03V381.655Z" fill="#3F3D56"/>
<path id="Vector_156" d="M1068.65 415.708C1068.65 416.995 1068.64 418.276 1068.61 419.551C1067.6 465.613 1014.84 465.867 1013.42 419.817C1013.38 418.543 1013.36 417.262 1013.35 415.975C1013.12 364.487 1040.59 322.615 1040.59 322.615C1040.59 322.615 1068.42 364.221 1068.65 415.708Z" fill="#E6E6E6"/>
<path id="Vector_157" d="M480.69 613.256H450.86V618.212H480.69V613.256Z" fill="#3F3D56"/>
<path id="Vector_158" d="M696.367 614.366L690.212 615.857L456.305 615.987L454.202 610.858C450.533 602.06 449.274 592.367 450.565 582.863C451.572 575.779 454.097 568.74 459.831 565.683L470.211 493.32L599.619 493.078L649.687 535.345C649.687 535.345 673.305 534.901 686.136 551.62C690.196 556.916 693.178 563.931 693.978 573.233L694.485 581.931L696.367 614.366Z" fill="#6C63FF"/>
<path id="second while" d="M644.992 643.387C660.944 643.387 673.875 629.852 673.875 613.156C673.875 596.46 660.944 582.925 644.992 582.925C629.04 582.925 616.109 596.46 616.109 613.156C616.109 629.852 629.04 643.387 644.992 643.387Z" fill="#3F3D56"/>
<path id="Vector_159" d="M644.992 629.067C653.387 629.067 660.194 621.944 660.194 613.156C660.194 604.369 653.387 597.245 644.992 597.245C636.596 597.245 629.79 604.369 629.79 613.156C629.79 621.944 636.596 629.067 644.992 629.067Z" fill="#CCCCCC"/>
<path id="while" d="M502.47 643.467C518.421 643.467 531.353 629.932 531.353 613.236C531.353 596.54 518.421 583.005 502.47 583.005C486.518 583.005 473.586 596.54 473.586 613.236C473.586 629.932 486.518 643.467 502.47 643.467Z" fill="#3F3D56"/>
<path id="Vector_160" d="M502.469 629.147C510.865 629.147 517.671 622.023 517.671 613.236C517.671 604.448 510.865 597.325 502.469 597.325C494.074 597.325 487.268 604.448 487.268 613.236C487.268 622.023 494.074 629.147 502.469 629.147Z" fill="#CCCCCC"/>
<path id="Vector_161" d="M629.795 530.404L559.925 530.436H551.396L536.995 530.447V529.347L536.984 516.094L536.974 501.211H546.554L555.083 501.201L570.192 501.19H578.721L596.163 501.18L629.795 530.404Z" fill="white"/>
<path id="Vector_162" d="M525.626 530.457L488.7 530.478L488.69 522.895V509.642L488.68 501.243H494.087L502.616 501.233L525.616 501.222L525.626 530.457Z" fill="white"/>
<path id="Vector_163" d="M555.083 501.201L536.995 529.347L536.984 516.094L546.554 501.211L555.083 501.201Z" fill="#F2F2F2"/>
<path id="Vector_164" d="M502.616 501.233L488.69 522.895V509.642L494.087 501.243L502.616 501.233Z" fill="#F2F2F2"/>
<path id="Vector_165" d="M578.721 501.19L559.925 530.436H551.396L570.192 501.19H578.721Z" fill="#F2F2F2"/>
<path id="Vector_166" d="M860.156 550.972L878.276 550.982L878.278 547.972L860.158 547.962L860.156 550.972Z" fill="#3F3D56"/>
<path id="Vector_167" d="M729.146 548.641L732.885 549.546L874.969 549.626L876.247 546.51C878.475 541.166 879.24 535.278 878.456 529.505C877.844 525.202 876.311 520.926 872.828 519.069L866.522 475.113L787.914 474.965L757.501 500.64C757.501 500.64 743.155 500.37 735.361 510.526C732.549 514.303 730.889 518.877 730.597 523.655L730.289 528.938L729.146 548.641Z" fill="#3F3D56"/>
<path id="Vector_168" d="M760.353 566.27C770.043 566.27 777.898 558.048 777.898 547.906C777.898 537.764 770.043 529.542 760.353 529.542C750.664 529.542 742.808 537.764 742.808 547.906C742.808 558.048 750.664 566.27 760.353 566.27Z" fill="#3F3D56"/>
<path id="Vector_169" d="M760.353 557.571C765.453 557.571 769.587 553.244 769.587 547.906C769.587 542.568 765.453 538.241 760.353 538.241C755.253 538.241 751.119 542.568 751.119 547.906C751.119 553.244 755.253 557.571 760.353 557.571Z" fill="#CCCCCC"/>
<path id="Vector_170" d="M846.927 566.318C856.617 566.318 864.472 558.096 864.472 547.954C864.472 537.812 856.617 529.591 846.927 529.591C837.237 529.591 829.382 537.812 829.382 547.954C829.382 558.096 837.237 566.318 846.927 566.318Z" fill="#3F3D56"/>
<path id="Vector_171" d="M846.927 557.619C852.027 557.619 856.161 553.292 856.161 547.954C856.161 542.616 852.027 538.289 846.927 538.289C841.827 538.289 837.693 542.616 837.693 547.954C837.693 553.292 841.827 557.619 846.927 557.619Z" fill="#CCCCCC"/>
<path id="Vector_172" d="M769.585 497.639L812.026 497.659H817.207L825.955 497.666V496.997L825.961 488.946L825.967 479.906H820.148L814.967 479.899L805.79 479.893H800.608L790.014 479.887L769.585 497.639Z" fill="white"/>
<path id="Vector_173" d="M832.86 497.672L855.291 497.685L855.297 493.078V485.027L855.303 479.926H852.019L846.838 479.92L832.867 479.913L832.86 497.672Z" fill="white"/>
<path id="Vector_174" d="M823.071 516.632L825.947 516.634L825.95 510.914L823.073 510.912L823.071 516.632Z" fill="#3F3D56"/>
<path id="Vector_175" d="M781.083 505.771L781.085 502.761L775.62 502.758L775.619 505.768L781.083 505.771Z" fill="#3F3D56"/>
<path id="Vector_176" d="M779.071 504.084L778.755 504.084C777.16 504.083 775.632 503.42 774.505 502.239C773.378 501.058 772.746 499.458 772.747 497.789C772.747 496.12 773.382 494.52 774.51 493.341C775.638 492.162 777.167 491.5 778.761 491.501L779.078 491.501L779.071 504.084Z" fill="#3F3D56"/>
<path id="Vector_177" d="M730.289 528.938C732.465 529.186 734.653 528.622 736.47 527.346C738.287 526.071 739.616 524.165 740.222 521.964C740.828 519.764 740.673 517.41 739.784 515.318C738.894 513.226 737.328 511.529 735.361 510.526C732.549 514.303 730.889 518.877 730.597 523.655L730.289 528.938Z" fill="#3F3D56"/>
<path id="Vector_178" d="M814.967 479.899L825.955 496.997L825.961 488.946L820.148 479.906L814.967 479.899Z" fill="#F2F2F2"/>
<path id="Vector_179" d="M846.838 479.92L855.297 493.078V485.027L852.019 479.926L846.838 479.92Z" fill="#F2F2F2"/>
<path id="Vector_180" d="M800.608 479.893L812.026 497.659H817.207L805.79 479.893H800.608Z" fill="#F2F2F2"/>
<path id="Vector_181" d="M331.33 685.652C331.33 685.652 331.33 719.305 338.709 728.132C338.709 728.132 340.29 732.545 340.817 734.2C341.112 735.142 341.464 736.064 341.872 736.959V739.165C341.872 739.165 356.103 737.51 357.684 733.649L355.049 730.338C355.049 730.338 354.522 729.787 355.049 728.132C355.139 727.952 355.181 727.749 355.171 727.546C355.161 727.343 355.098 727.146 354.991 726.977C354.883 726.808 354.733 726.672 354.558 726.584C354.383 726.496 354.188 726.459 353.994 726.477L350.305 717.65L350.832 681.239L348.197 631.036L325.532 629.933L331.33 685.652Z" fill="#2F2E41"/>
<path id="Vector_182" d="M342.926 735.855C342.926 735.855 339.236 747.441 342.926 747.992C346.615 748.544 378.767 749.096 378.24 744.682C377.713 740.269 367.172 740.82 367.172 740.82L356.103 733.649L342.926 735.855Z" fill="#2F2E41"/>
<path id="Vector_183" d="M310.247 631.036C309.794 636.225 310.9 641.432 313.409 645.931C317.626 653.655 314.99 679.584 314.99 679.584L277.568 713.788C277.568 713.788 284.947 727.028 287.582 726.477C290.218 725.925 331.857 690.617 331.857 690.617L348.197 633.243L310.247 631.036Z" fill="#2F2E41"/>
<path id="Vector_184" d="M278.082 712.326C278.082 712.326 266.758 715.267 268.288 718.824C269.818 722.381 286.585 751.1 289.864 748.271C293.144 745.443 287.055 736.419 287.055 736.419L286.917 722.794L278.082 712.326Z" fill="#2F2E41"/>
<path id="Vector_185" d="M330.803 541.112C337.498 541.112 342.926 535.431 342.926 528.423C342.926 521.416 337.498 515.735 330.803 515.735C324.108 515.735 318.68 521.416 318.68 528.423C318.68 535.431 324.108 541.112 330.803 541.112Z" fill="#FFB8B8"/>
<path id="Vector_186" d="M321.264 532.9L321.801 549.228L332.001 553.447C332.001 553.447 333.001 536.728 334.414 535.801C335.826 534.874 321.264 532.9 321.264 532.9Z" fill="#FFB8B8"/>
<path id="Vector_187" d="M334.492 555.456C334.492 555.456 320.261 540.56 316.572 541.112C312.882 541.664 312.882 543.319 312.882 544.422C312.882 545.525 313.936 546.077 312.882 546.629C311.828 547.181 310.774 546.629 310.774 548.284C310.774 549.939 301.286 566.489 304.449 584.695C307.611 602.9 311.301 611.727 309.72 621.657C308.138 631.588 309.192 633.794 309.192 633.794C309.192 633.794 348.724 637.104 349.251 633.243C349.778 629.381 347.669 631.588 350.305 628.829C352.94 626.071 351.886 626.071 351.886 624.416C351.886 622.761 340.29 555.456 334.492 555.456Z" fill="#575A89"/>
<path id="Vector_188" d="M327.113 630.484C327.113 630.484 333.438 646.483 338.182 642.621C342.926 638.759 336.074 625.519 336.074 625.519L327.113 630.484Z" fill="#FFB8B8"/>
<path id="Vector_189" d="M311.828 556.559C311.828 556.559 299.444 558.043 304.055 581.851C308.665 605.659 326.586 633.243 326.586 633.243L338.709 627.174L322.897 594.625L326.586 574.213C326.586 574.213 328.695 554.904 311.828 556.559Z" fill="#575A89"/>
<path id="Vector_190" opacity="0.2" d="M322.633 594.901L340.026 625.243L338.446 626.898L322.633 594.901Z" fill="black"/>
<path id="Vector_191" opacity="0.2" d="M313.427 609.041L327.377 632.967H322.633L313.427 609.041Z" fill="black"/>
<path id="Vector_192" d="M325.316 536.048C326.345 535.612 327.411 535.279 328.5 535.055C330.386 534.387 331.981 533.034 332.996 531.241C334.012 529.448 334.379 527.334 334.033 525.281C333.883 524.76 333.816 524.215 333.834 523.671C333.983 523.083 334.295 522.554 334.731 522.152C335.167 521.75 335.708 521.492 336.284 521.412C337.435 521.271 338.575 521.044 339.695 520.732C340.515 520.346 341.224 519.742 341.753 518.982C342.281 518.221 342.611 517.33 342.71 516.395C342.883 514.514 342.483 512.624 341.567 510.995L341.159 512.224C340.536 511.673 340.074 510.949 339.825 510.137C339.362 510.218 338.926 510.423 338.559 510.732C338.193 511.04 337.908 511.442 337.732 511.899C337.077 512.303 336.983 510.643 336.259 510.398C335.941 510.356 335.619 510.439 335.356 510.631C333.898 511.342 332.204 510.734 330.64 510.339C327.932 509.659 325.109 509.656 322.399 510.329C320.572 510.705 318.883 511.614 317.529 512.952C316.521 514.149 315.747 515.542 315.251 517.05C313.734 520.651 313.102 524.592 313.412 528.514C313.792 531.695 315.063 534.687 317.066 537.113C318.109 538.371 321.513 542.76 323.379 542.011C325.724 541.071 322.553 537.577 325.316 536.048Z" fill="#2F2E41"/>
<path id="Vector_193" opacity="0.2" d="M344.939 652.521L331.069 690.585L331.77 690.864L345.64 652.801L344.939 652.521Z" fill="black"/>
<path id="Vector_194" d="M334.418 558.485C334.832 558.485 335.168 558.133 335.168 557.7C335.168 557.266 334.832 556.915 334.418 556.915C334.004 556.915 333.668 557.266 333.668 557.7C333.668 558.133 334.004 558.485 334.418 558.485Z" fill="#D0CDE1"/>
<path id="Vector_195" d="M340.791 579.674C340.711 579.674 340.633 579.648 340.569 579.598C340.504 579.548 340.457 579.478 340.433 579.398L334.06 557.816C334.03 557.716 334.04 557.609 334.086 557.517C334.133 557.425 334.212 557.356 334.307 557.325C334.402 557.294 334.505 557.304 334.593 557.353C334.681 557.401 334.746 557.485 334.776 557.584L341.149 579.166C341.166 579.225 341.17 579.287 341.16 579.348C341.151 579.408 341.127 579.465 341.092 579.515C341.058 579.564 341.012 579.604 340.96 579.632C340.908 579.66 340.85 579.674 340.791 579.674Z" fill="#D0CDE1"/>
<path id="Vector_196" d="M1014.23 549.024C1021.22 549.024 1026.89 543.091 1026.89 535.773C1026.89 528.455 1021.22 522.523 1014.23 522.523C1007.24 522.523 1001.57 528.455 1001.57 535.773C1001.57 543.091 1007.24 549.024 1014.23 549.024Z" fill="#2F2E41"/>
<path id="Vector_197" d="M996.238 616.039L994.318 620.057C994.318 620.057 988.176 630.503 992.399 631.708C996.622 632.914 997.965 623.874 997.965 623.874L998.733 619.052L996.238 616.039Z" fill="#A0616A"/>
<path id="Vector_198" d="M1003.92 595.548L999.116 608.806L994.319 618.047L1000.27 622.065L1005.07 613.226L1010.83 599.365L1003.92 595.548Z" fill="#D0CDE1"/>
<path id="Vector_199" d="M1017.54 657.624L1027.14 668.271L1044.03 698.204L1051.32 695.793L1042.69 677.914C1042.69 677.914 1037.7 664.253 1035.2 662.445C1032.71 660.637 1028.48 648.784 1028.48 648.784L1023.88 644.967L1017.54 657.624Z" fill="#A0616A"/>
<path id="Vector_200" d="M997.773 663.449L997.006 666.865C997.006 666.865 994.51 677.512 990.672 682.333L981.459 699.007L974.549 696.597L988.177 662.847L997.773 663.449Z" fill="#A0616A"/>
<path id="Vector_201" d="M1012.07 551.251C1017.8 551.251 1022.44 546.394 1022.44 540.403C1022.44 534.411 1017.8 529.554 1012.07 529.554C1006.35 529.554 1001.71 534.411 1001.71 540.403C1001.71 546.394 1006.35 551.251 1012.07 551.251Z" fill="#A0616A"/>
<path id="Vector_202" d="M1020.23 545.726L1021.57 557.378L1012.94 561.798C1012.94 561.798 1012.94 551.753 1010.63 549.141L1020.23 545.726Z" fill="#A0616A"/>
<path id="Vector_203" d="M1047.29 620.86L1048.25 624.275C1048.25 624.275 1054.59 637.333 1049.21 637.333C1043.84 637.333 1042.88 625.28 1042.88 625.28L1042.3 622.266L1047.29 620.86Z" fill="#A0616A"/>
<path id="Vector_204" d="M1003.15 607.199L1004.49 617.043L988.177 653.003L987.217 663.449L1017.73 667.467L1024.45 647.981L1035.2 662.445L1029.06 647.579C1029.06 647.579 1027.14 637.534 1027.72 634.923C1028.29 632.311 1027.33 619.253 1025.6 616.039C1023.88 612.824 1003.15 607.199 1003.15 607.199Z" fill="#2F2E41"/>
<path id="Vector_205" d="M1042.88 698.204L1052.09 694.99L1054.97 699.811C1054.97 699.811 1060.54 701.418 1060.34 705.637C1060.37 709.474 1060.69 713.304 1061.3 717.088L1057.27 717.489L1055.74 709.253L1047.87 719.097C1047.87 719.097 1033.86 719.9 1033.28 717.489C1032.71 715.079 1043.26 712.467 1043.26 712.467L1044.99 703.829L1042.88 698.204Z" fill="#2F2E41"/>
<path id="Vector_206" d="M973.973 695.391L982.419 698.204V700.213C982.419 700.213 984.914 704.231 984.53 707.646C984.146 711.061 982.419 719.297 982.419 719.297H978.004L978.196 711.664L969.367 719.297C969.367 719.297 953.628 718.092 953.628 715.481C953.628 712.869 965.72 711.061 965.72 711.061L973.973 695.391Z" fill="#2F2E41"/>
<path id="Vector_207" d="M1012.36 559.387C1012.36 559.387 1020.23 551.15 1023.88 553.159V556.775C1023.88 556.775 1029.25 559.387 1029.44 563.405C1029.63 567.423 1035.2 603.985 1035.2 603.985L1048.25 651.597C1048.25 651.597 1044.22 658.226 1029.44 650.793L1020.23 618.048C1020.23 618.048 1030.02 655.012 1025.22 654.409C1020.42 653.807 1001.61 608.003 1001.61 608.003L1002.96 586.307C1002.96 586.307 999.884 576.865 1006.03 570.436L1012.36 559.387Z" fill="#D0CDE1"/>
<path id="Vector_208" d="M1025.8 560.592C1025.8 560.592 1029.06 561.798 1031.36 567.021C1033.67 572.244 1045.18 609.007 1045.18 609.007L1048.25 622.066L1039.62 624.275L1035.39 610.816L1019.65 580.28C1019.65 580.28 1017.16 564.208 1025.8 560.592Z" fill="#D0CDE1"/>
<path id="Vector_209" d="M1025.04 531.748C1024.99 530.501 1024.66 529.285 1024.06 528.205C1023.47 527.125 1022.62 526.216 1021.61 525.557C1022.66 523.342 1023.61 520.815 1022.91 518.45C1022.63 517.533 1022.12 516.71 1021.43 516.068C1020.75 515.425 1019.91 514.985 1019.01 514.794C1018 514.649 1016.98 514.663 1015.98 514.835L1011.25 515.397C1009.7 515.46 1008.18 515.887 1006.81 516.646C1006.13 517.096 1005.56 517.706 1005.15 518.428C1004.74 519.15 1004.49 519.963 1004.44 520.802C1004.38 521.641 1004.51 522.483 1004.82 523.259C1005.13 524.035 1005.61 524.725 1006.22 525.272C1002.91 528.042 1000.7 530.145 999.194 534.291C1001.72 532.137 1004.87 530.955 1008.13 530.942C1010.34 530.817 1012.52 531.6 1014.19 533.125C1015.86 534.651 1016.9 536.798 1017.08 539.111C1017.06 540.272 1017.16 541.431 1017.37 542.57C1017.49 543.137 1017.8 543.644 1018.23 544.006C1018.66 544.368 1019.2 544.563 1019.76 544.559C1019.61 544.582 1018.67 541.635 1019.33 540.275L1019.34 540.253C1019.49 539.972 1019.72 539.757 1020.01 539.649C1020.27 539.547 1020.54 539.502 1020.82 539.519C1021.09 539.535 1021.36 539.613 1021.6 539.746C1021.85 539.879 1022.06 540.065 1022.23 540.291C1022.4 540.518 1022.52 540.779 1022.59 541.058C1022.95 542.534 1023.54 544.417 1024.05 543.918C1024.73 543.263 1024.44 537.491 1024.62 536.596C1024.99 535.01 1025.13 533.377 1025.04 531.748Z" fill="#2F2E41"/>
<path id="Vector_210" d="M1021.56 525.517C1021.56 525.517 1011.16 526.227 1006.18 525.28L1021.56 525.517Z" fill="#D0CDE1"/>
<path id="Vector_211" d="M1020.97 524.06C1022.02 521.846 1022.96 519.318 1022.27 516.953C1021.95 515.887 1021.31 514.954 1020.46 514.284C1021.11 514.598 1021.69 515.052 1022.17 515.615C1022.65 516.178 1023.01 516.839 1023.23 517.556C1023.92 519.921 1022.98 522.448 1021.93 524.663C1021.09 524.532 1023.07 525.23 1020.97 524.06Z" fill="#2F2E41"/>
<path id="Vector_212" opacity="0.2" d="M1017.64 580.38L1032.61 608.104L1038.37 623.171L1030.31 608.706L1017.64 580.38Z" fill="black"/>
<path id="Vector_213" d="M309.929 737.951C309.929 737.951 305.236 748.643 301.425 751.641C297.567 748.635 292.782 737.951 292.782 737.951C292.782 737.951 288.089 748.643 284.278 751.641C280.42 748.635 275.635 737.951 275.635 737.951C275.635 737.951 262.306 752.212 262.343 758.967C262.344 759.135 262.353 759.303 262.371 759.471C262.825 763.893 276.606 765.02 284.176 762.936C289.819 764.283 295.68 764.283 301.323 762.936C308.861 765.053 322.921 763.84 323.332 759.367C323.348 759.199 323.355 759.031 323.354 758.863C323.317 752.108 309.929 737.951 309.929 737.951Z" fill="#6C63FF"/>
<path id="Vector_214" d="M589.944 737.951C589.944 737.951 585.251 748.643 581.441 751.641C577.583 748.635 572.798 737.951 572.798 737.951C572.798 737.951 568.105 748.643 564.294 751.641C560.436 748.635 555.651 737.951 555.651 737.951C555.651 737.951 542.322 752.212 542.359 758.967C542.36 759.135 542.369 759.303 542.386 759.471C542.841 763.893 556.622 765.02 564.192 762.936C569.835 764.283 575.696 764.283 581.339 762.936C588.876 765.053 602.937 763.84 603.348 759.367C603.364 759.199 603.371 759.031 603.37 758.863C603.333 752.108 589.944 737.951 589.944 737.951Z" fill="#E6E6E6"/>
<path id="Vector_215" d="M868.148 737.951C868.148 737.951 863.455 748.643 859.644 751.641C855.786 748.635 851.001 737.951 851.001 737.951C851.001 737.951 846.308 748.643 842.497 751.641C838.639 748.635 833.854 737.951 833.854 737.951C833.854 737.951 820.525 752.212 820.562 758.967C820.563 759.135 820.572 759.303 820.59 759.471C821.045 763.893 834.825 765.02 842.395 762.936C848.038 764.283 853.899 764.283 859.542 762.936C867.08 765.053 881.14 763.84 881.551 759.367C881.567 759.199 881.574 759.031 881.573 758.863C881.536 752.108 868.148 737.951 868.148 737.951Z" fill="#6C63FF"/>
<path id="cloud1" d="M326.742 219.175L326.619 219.245C325.292 220.004 323.805 220.405 322.292 220.41C320.78 220.416 319.29 220.026 317.958 219.276C317.882 219.233 317.805 219.19 317.729 219.148C316.398 218.404 314.91 218.017 313.4 218.023C311.891 218.028 310.406 218.426 309.079 219.179L308.964 219.245C307.637 220.004 306.15 220.405 304.638 220.41C303.126 220.416 301.636 220.026 300.304 219.276C300.224 219.231 300.145 219.187 300.066 219.143C298.75 218.402 297.28 218.013 295.785 218.011C294.291 218.008 292.819 218.391 291.5 219.127C287.472 221.398 282.026 225.28 282.05 229.664C282.051 229.838 282.061 230.011 282.078 230.183C282.547 234.736 296.735 235.896 304.529 233.751C310.34 235.138 316.374 235.138 322.184 233.751C329.945 235.931 344.422 234.682 344.845 230.076C344.861 229.904 344.868 229.731 344.868 229.557C344.844 225.171 339.35 221.329 335.296 219.091C333.974 218.366 332.501 217.995 331.009 218.01C329.517 218.025 328.051 218.425 326.742 219.175Z" fill="#E6E6E6"/>
<path id="cloud" d="M590.42 267.296L590.298 267.366C588.971 268.125 587.484 268.526 585.971 268.531C584.459 268.537 582.969 268.147 581.637 267.397C581.561 267.354 581.484 267.311 581.408 267.269C580.076 266.525 578.589 266.138 577.079 266.144C575.57 266.149 574.085 266.547 572.758 267.3L590.42 213C589.094 213.76 569.829 268.526 568.317 268.531C566.805 268.537 565.315 268.147 563.983 267.397C563.903 267.352 563.824 267.308 563.745 267.264C562.429 266.524 560.958 266.135 559.464 266.132C557.97 266.129 556.498 266.513 555.179 267.248C551.151 269.519 545.705 273.401 545.729 277.785C545.73 277.959 545.74 278.132 545.757 278.304C546.226 282.857 560.414 284.017 568.208 281.872C574.019 283.259 580.053 283.259 585.863 281.872C593.624 284.052 608.101 282.803 608.524 278.198C608.54 278.025 608.547 277.852 608.546 277.678C608.523 273.292 603.029 269.45 598.975 267.212C597.653 266.488 596.18 266.116 594.688 266.131C593.195 266.146 591.73 266.546 590.42 267.296Z" fill="#E6E6E6"/>
<path id="cloud2" d="M772.662 221.262L772.539 221.332C771.213 222.092 769.725 222.492 768.213 222.498C766.701 222.503 765.211 222.114 763.879 221.364C763.802 221.321 763.726 221.278 763.65 221.235C762.318 220.491 760.831 220.105 759.321 220.11C757.811 220.116 756.327 220.513 755 221.267L754.885 221.332C753.558 222.092 752.071 222.492 750.559 222.498C749.046 222.503 747.557 222.114 746.225 221.364C746.145 221.319 746.066 221.274 745.987 221.231C744.671 220.49 743.2 220.101 741.706 220.098C740.212 220.095 738.74 220.479 737.421 221.215C733.393 223.485 727.947 227.367 727.971 231.752C727.972 231.925 727.981 232.098 727.999 232.271C728.468 236.824 742.656 237.984 750.45 235.838C756.26 237.226 762.295 237.226 768.105 235.838C775.866 238.018 790.343 236.769 790.766 232.164C790.782 231.991 790.789 231.818 790.788 231.645C790.764 227.258 785.271 223.417 781.217 221.178C779.895 220.454 778.422 220.083 776.93 220.097C775.437 220.112 773.971 220.512 772.662 221.262Z" fill="#E6E6E6"/>
<path id="Vector_216" d="M1101.15 762.225H169V764H1101.15V762.225Z" fill="#3F3D56"/>
</g>
</g>
<defs>
<clipPath id="clip0_1:3">
<rect width="933" height="595" fill="white" transform="translate(169 169)"/>
</clipPath>
</defs>
</svg>
