<svg width="933" height="595" viewBox="0 0 933 595" fill="none" xmlns="http://www.w3.org/2000/svg">
<g id="undraw_town_r6pc 1" clip-path="url(#clip0_1:4)">
<path id="Vector" d="M250.588 416.33H85.3602V422.695H250.588V416.33Z" fill="#F2F2F2"/>
<path id="Vector_2" d="M624.633 416.33H459.404V422.695H624.633V416.33Z" fill="#F2F2F2"/>
<path id="Vector_3" d="M879.064 416.33H713.835V422.695H879.064V416.33Z" fill="#F2F2F2"/>
<path id="Vector_4" d="M880.032 319.905C878.512 320.727 877.099 321.749 875.827 322.946C874.534 321.743 873.098 320.721 871.554 319.905C870.034 320.727 868.621 321.749 867.349 322.946C866.056 321.743 864.619 320.721 863.075 319.905C863.075 319.905 856.485 323.297 856.503 327.443C856.503 327.546 856.508 327.65 856.517 327.752C856.742 330.466 863.555 331.158 867.298 329.879C870.069 330.706 873.006 330.706 875.777 329.879C879.504 331.179 886.456 330.434 886.66 327.689C886.667 327.586 886.671 327.483 886.67 327.379C886.652 323.233 880.032 319.905 880.032 319.905Z" fill="#F2F2F2"/>
<path id="Vector_5" d="M7.06731 177.298L1.22046 172.403L33.959 141.808H116.974V168.732L63.1901 206.669L7.06731 177.298Z" fill="#3F3D56"/>
<path id="Vector_6" d="M132.111 158.97V142.419H121.089V146.472L116.974 141.808L90.0828 172.403L79.5599 179.746L63.2429 304.518L87.8497 330.273H145.037V173.627L132.111 158.97Z" fill="#CCCCCC"/>
<path id="Vector_7" d="M90.0825 172.403H1.22073V330.273H90.0825V172.403Z" fill="#F2F2F2"/>
<path id="Vector_8" d="M52.0824 291.724H35.7131V330.273H52.0824V291.724Z" fill="#CCCCCC"/>
<path id="Vector_9" d="M18.1751 302.737V296.619H11.1595V302.737H17.5902H18.1751Z" fill="#3F3D56"/>
<path id="Vector_10" d="M17.5902 307.633H11.1595V313.752H18.1751V307.633H17.5902Z" fill="#3F3D56"/>
<path id="Vector_11" d="M29.867 296.619H22.8516V302.738H29.867V296.619Z" fill="#3F3D56"/>
<path id="Vector_12" d="M29.867 307.633H22.8516V313.752H29.867V307.633Z" fill="#3F3D56"/>
<path id="Vector_13" d="M66.1136 302.737V296.619H59.098V302.737H65.5287H66.1136Z" fill="#3F3D56"/>
<path id="Vector_14" d="M65.5287 307.633H59.098V313.752H66.1136V307.633H65.5287Z" fill="#3F3D56"/>
<path id="Vector_15" d="M77.8056 296.619H70.7902V302.738H77.8056V296.619Z" fill="#3F3D56"/>
<path id="Vector_16" d="M77.8056 307.633H70.7902V313.752H77.8056V307.633Z" fill="#3F3D56"/>
<path id="Vector_17" d="M115.221 180.358V174.238H108.205V180.358H114.637H115.221Z" fill="#3F3D56"/>
<path id="Vector_18" d="M114.637 185.253H108.205V191.372H115.221V185.253H114.637Z" fill="#3F3D56"/>
<path id="Vector_19" d="M126.913 174.239H119.898V180.358H126.913V174.239Z" fill="#3F3D56"/>
<path id="Vector_20" d="M126.913 185.253H119.898V191.372H126.913V185.253Z" fill="#3F3D56"/>
<path id="Vector_21" d="M115.221 214.624V208.506H108.205V214.624H114.637H115.221Z" fill="#3F3D56"/>
<path id="Vector_22" d="M114.637 219.52H108.205V225.638H115.221V219.52H114.637Z" fill="#3F3D56"/>
<path id="Vector_23" d="M126.913 208.505H119.898V214.624H126.913V208.505Z" fill="#3F3D56"/>
<path id="Vector_24" d="M126.913 219.519H119.898V225.638H126.913V219.519Z" fill="#3F3D56"/>
<path id="Vector_25" d="M115.221 248.891V242.772H108.205V248.891H114.637H115.221Z" fill="#3F3D56"/>
<path id="Vector_26" d="M114.637 253.786H108.205V259.905H115.221V253.786H114.637Z" fill="#3F3D56"/>
<path id="Vector_27" d="M126.913 242.771H119.898V248.891H126.913V242.771Z" fill="#3F3D56"/>
<path id="Vector_28" d="M126.913 253.786H119.898V259.905H126.913V253.786Z" fill="#3F3D56"/>
<path id="Vector_29" d="M115.221 283.157V277.038H108.205V283.157H114.637H115.221Z" fill="#3F3D56"/>
<path id="Vector_30" d="M114.637 288.052H108.205V294.171H115.221V288.052H114.637Z" fill="#3F3D56"/>
<path id="Vector_31" d="M126.913 277.038H119.898V283.157H126.913V277.038Z" fill="#3F3D56"/>
<path id="Vector_32" d="M126.913 288.052H119.898V294.171H126.913V288.052Z" fill="#3F3D56"/>
<path id="Vector_33" d="M78.9748 180.358H11.1592V195.043H78.9748V180.358Z" fill="#3F3D56"/>
<path id="Vector_34" d="M78.9748 209.729H11.1592V224.414H78.9748V209.729Z" fill="#3F3D56"/>
<path id="Vector_35" d="M78.9748 239.1H11.1592V253.786H78.9748V239.1Z" fill="#3F3D56"/>
<path id="Vector_36" d="M78.9748 268.471H11.1592V283.157H78.9748V268.471Z" fill="#3F3D56"/>
<path id="Vector_37" d="M140.094 320.792C138.574 321.614 137.161 322.636 135.889 323.834C134.596 322.631 133.159 321.608 131.615 320.792C130.096 321.614 128.683 322.636 127.411 323.834C126.118 322.631 124.681 321.608 123.137 320.792C123.137 320.792 116.546 324.185 116.565 328.33C116.565 328.434 116.57 328.537 116.578 328.64C116.803 331.354 123.617 332.045 127.36 330.766C130.131 331.594 133.068 331.594 135.838 330.766C139.566 332.066 146.518 331.321 146.721 328.576C146.729 328.473 146.732 328.37 146.732 328.266C146.714 324.121 140.094 320.792 140.094 320.792Z" fill="#6C63FF"/>
<path id="Vector_38" d="M109.656 177.298L103.809 172.403L136.547 141.808H219.563V168.732L165.779 206.669L109.656 177.298Z" fill="#3F3D56"/>
<path id="Vector_39" d="M234.699 158.97V142.419H223.677V146.472L219.563 141.808L192.671 172.403L182.148 179.746L165.831 304.518L190.438 330.273H247.625V173.627L234.699 158.97Z" fill="#CCCCCC"/>
<path id="Vector_40" d="M192.671 172.403H103.809V330.273H192.671V172.403Z" fill="#F2F2F2"/>
<path id="Vector_41" d="M154.671 291.724H138.302V330.273H154.671V291.724Z" fill="#CCCCCC"/>
<path id="Vector_42" d="M120.764 302.737V296.619H113.748V302.737H120.179H120.764Z" fill="#3F3D56"/>
<path id="Vector_43" d="M120.179 307.633H113.748V313.752H120.764V307.633H120.179Z" fill="#3F3D56"/>
<path id="Vector_44" d="M132.455 296.619H125.44V302.738H132.455V296.619Z" fill="#3F3D56"/>
<path id="Vector_45" d="M132.455 307.633H125.44V313.752H132.455V307.633Z" fill="#3F3D56"/>
<path id="Vector_46" d="M168.702 302.737V296.619H161.686V302.737H168.117H168.702Z" fill="#3F3D56"/>
<path id="Vector_47" d="M168.117 307.633H161.686V313.752H168.702V307.633H168.117Z" fill="#3F3D56"/>
<path id="Vector_48" d="M180.394 296.619H173.379V302.738H180.394V296.619Z" fill="#3F3D56"/>
<path id="Vector_49" d="M180.394 307.633H173.379V313.752H180.394V307.633Z" fill="#3F3D56"/>
<path id="Vector_50" d="M217.809 180.358V174.238H210.794V180.358H217.225H217.809Z" fill="#3F3D56"/>
<path id="Vector_51" d="M217.225 185.253H210.794V191.372H217.809V185.253H217.225Z" fill="#3F3D56"/>
<path id="Vector_52" d="M229.502 174.239H222.486V180.358H229.502V174.239Z" fill="#3F3D56"/>
<path id="Vector_53" d="M229.502 185.253H222.486V191.372H229.502V185.253Z" fill="#3F3D56"/>
<path id="Vector_54" d="M217.809 214.624V208.506H210.794V214.624H217.225H217.809Z" fill="#3F3D56"/>
<path id="Vector_55" d="M217.225 219.52H210.794V225.638H217.809V219.52H217.225Z" fill="#3F3D56"/>
<path id="Vector_56" d="M229.502 208.505H222.486V214.624H229.502V208.505Z" fill="#3F3D56"/>
<path id="Vector_57" d="M229.502 219.519H222.486V225.638H229.502V219.519Z" fill="#3F3D56"/>
<path id="Vector_58" d="M217.809 248.891V242.772H210.794V248.891H217.225H217.809Z" fill="#3F3D56"/>
<path id="Vector_59" d="M217.225 253.786H210.794V259.905H217.809V253.786H217.225Z" fill="#3F3D56"/>
<path id="Vector_60" d="M229.502 242.771H222.486V248.891H229.502V242.771Z" fill="#3F3D56"/>
<path id="Vector_61" d="M229.502 253.786H222.486V259.905H229.502V253.786Z" fill="#3F3D56"/>
<path id="Vector_62" d="M217.809 283.157V277.038H210.794V283.157H217.225H217.809Z" fill="#3F3D56"/>
<path id="Vector_63" d="M217.225 288.052H210.794V294.171H217.809V288.052H217.225Z" fill="#3F3D56"/>
<path id="Vector_64" d="M229.502 277.038H222.486V283.157H229.502V277.038Z" fill="#3F3D56"/>
<path id="Vector_65" d="M229.502 288.052H222.486V294.171H229.502V288.052Z" fill="#3F3D56"/>
<path id="Vector_66" d="M181.563 180.358H113.748V195.043H181.563V180.358Z" fill="#3F3D56"/>
<path id="Vector_67" d="M181.563 209.729H113.748V224.414H181.563V209.729Z" fill="#3F3D56"/>
<path id="Vector_68" d="M181.563 239.1H113.748V253.786H181.563V239.1Z" fill="#3F3D56"/>
<path id="Vector_69" d="M181.563 268.471H113.748V283.157H181.563V268.471Z" fill="#3F3D56"/>
<path id="Vector_70" d="M123.413 60.7745C139.447 60.7745 152.445 47.1696 152.445 30.3872C152.445 13.6048 139.447 0 123.413 0C107.379 0 94.3804 13.6048 94.3804 30.3872C94.3804 47.1696 107.379 60.7745 123.413 60.7745Z" fill="#FF6584"/>
<path id="Vector_71" d="M309.478 212.672H306.647V329.718H309.478V212.672Z" fill="#3F3D56"/>
<path id="Vector_72" d="M337.105 246.736C337.111 248.024 337.1 249.305 337.071 250.58C336.056 296.655 283.28 296.91 281.859 250.847C281.82 249.572 281.797 248.291 281.791 247.003C281.564 195.5 309.037 153.615 309.037 153.615C309.037 153.615 336.878 195.233 337.105 246.736Z" fill="#E6E6E6"/>
<path id="Vector_73" d="M299.632 320.532C298.112 321.355 296.699 322.377 295.427 323.574C294.134 322.371 292.698 321.349 291.153 320.532C289.634 321.355 288.221 322.377 286.949 323.574C285.656 322.371 284.219 321.349 282.675 320.532C282.675 320.532 276.085 323.925 276.103 328.071C276.103 328.174 276.108 328.278 276.116 328.38C276.341 331.094 283.155 331.786 286.898 330.507C289.669 331.334 292.606 331.334 295.377 330.507C299.104 331.807 306.056 331.062 306.259 328.317C306.267 328.214 306.271 328.111 306.27 328.007C306.252 323.861 299.632 320.532 299.632 320.532Z" fill="#CCCCCC"/>
<path id="Vector_74" d="M378.848 280.097L375.341 273.978L408.079 217.985H492.263V226.552L461.863 287.44L426.786 294.783L378.848 280.097Z" fill="#3F3D56"/>
<path id="Vector_75" d="M506.755 261.843V216.073H495.733V222.111L492.263 217.985L464.202 273.978L459.525 278.874L453.679 303.35L464.202 330.273H517.986V275.202L506.755 261.843Z" fill="#CCCCCC"/>
<path id="Vector_76" d="M464.202 273.978H375.34V330.273H464.202V273.978Z" fill="#F2F2F2"/>
<path id="Vector_77" d="M451.925 291.724H433.217V308.857H451.925V291.724Z" fill="#3F3D56"/>
<path id="Vector_78" d="M425.617 291.112H409.248V330.273H425.617V291.112Z" fill="#CCCCCC"/>
<path id="Vector_79" d="M390.541 297.231V291.112H383.525V297.231H389.956H390.541Z" fill="#3F3D56"/>
<path id="Vector_80" d="M389.956 302.126H383.525V308.245H390.541V302.126H389.956Z" fill="#3F3D56"/>
<path id="Vector_81" d="M402.233 291.112H395.217V297.231H402.233V291.112Z" fill="#3F3D56"/>
<path id="Vector_82" d="M402.233 302.126H395.217V308.245H402.233V302.126Z" fill="#3F3D56"/>
<path id="Vector_83" d="M489.341 298.73V292.611H482.325V298.73H488.756H489.341Z" fill="#3F3D56"/>
<path id="Vector_84" d="M488.756 303.625H482.325V309.744H489.341V303.625H488.756Z" fill="#3F3D56"/>
<path id="Vector_85" d="M501.033 292.611H494.017V298.73H501.033V292.611Z" fill="#3F3D56"/>
<path id="Vector_86" d="M501.033 303.625H494.017V309.744H501.033V303.625Z" fill="#3F3D56"/>
<path id="Vector_87" d="M415.641 240.999L414.718 239.39L423.332 224.657H445.481V226.91L437.484 242.931L428.254 244.863L415.641 240.999Z" fill="#3F3D56"/>
<path id="Vector_88" d="M445.481 224.657L438.099 239.39L436.868 240.678L435.33 247.118L438.099 254.201H452.25V239.711L445.481 224.657Z" fill="#CCCCCC"/>
<path id="Vector_89" d="M438.098 239.389H414.718V254.201H438.098V239.389Z" fill="#F2F2F2"/>
<path id="Vector_90" d="M424.623 245.772V242.85H421.274V245.772H424.344H424.623Z" fill="#3F3D56"/>
<path id="Vector_91" d="M424.344 248.11H421.274V251.031H424.623V248.11H424.344Z" fill="#3F3D56"/>
<path id="Vector_92" d="M430.206 242.85H426.856V245.772H430.206V242.85Z" fill="#3F3D56"/>
<path id="Vector_93" d="M430.206 248.109H426.856V251.031H430.206V248.109Z" fill="#3F3D56"/>
<path id="Vector_94" d="M484.828 280.097L481.32 273.978L514.058 217.985H598.243V226.552L567.843 287.44L532.766 294.783L484.828 280.097Z" fill="#3F3D56"/>
<path id="Vector_95" d="M612.735 261.843V216.073H601.713V222.111L598.244 217.985L570.182 273.978L565.505 278.874L559.658 303.35L570.182 330.273H623.966V275.202L612.735 261.843Z" fill="#CCCCCC"/>
<path id="Vector_96" d="M570.182 273.978H481.32V330.273H570.182V273.978Z" fill="#F2F2F2"/>
<path id="Vector_97" d="M557.905 291.724H539.197V308.857H557.905V291.724Z" fill="#3F3D56"/>
<path id="Vector_98" d="M531.597 291.112H515.228V330.273H531.597V291.112Z" fill="#CCCCCC"/>
<path id="Vector_99" d="M496.52 297.231V291.111H489.504V297.231H495.936H496.52Z" fill="#3F3D56"/>
<path id="Vector_100" d="M495.936 302.126H489.504V308.245H496.52V302.126H495.936Z" fill="#3F3D56"/>
<path id="Vector_101" d="M508.212 291.112H501.197V297.231H508.212V291.112Z" fill="#3F3D56"/>
<path id="Vector_102" d="M508.212 302.126H501.197V308.245H508.212V302.126Z" fill="#3F3D56"/>
<path id="Vector_103" d="M595.32 297.843V291.723H588.304V297.843H594.735H595.32Z" fill="#3F3D56"/>
<path id="Vector_104" d="M594.735 302.737H588.304V308.857H595.32V302.737H594.735Z" fill="#3F3D56"/>
<path id="Vector_105" d="M607.013 291.724H599.997V297.843H607.013V291.724Z" fill="#3F3D56"/>
<path id="Vector_106" d="M607.013 302.738H599.997V308.857H607.013V302.738Z" fill="#3F3D56"/>
<path id="Vector_107" d="M587.416 280.097L583.908 273.978L616.647 217.985H700.832V226.552L670.432 287.44L635.355 294.783L587.416 280.097Z" fill="#3F3D56"/>
<path id="Vector_108" d="M715.323 261.843V216.073H704.302V222.111L700.832 217.985L672.771 273.978L668.093 278.874L662.247 303.35L672.771 330.273H726.555V275.202L715.323 261.843Z" fill="#CCCCCC"/>
<path id="Vector_109" d="M672.77 273.978H583.908V330.273H672.77V273.978Z" fill="#F2F2F2"/>
<path id="Vector_110" d="M660.493 291.724H641.786V308.857H660.493V291.724Z" fill="#3F3D56"/>
<path id="Vector_111" d="M634.185 291.112H617.816V330.273H634.185V291.112Z" fill="#CCCCCC"/>
<path id="Vector_112" d="M599.108 297.231V291.111H592.094V297.231H598.524H599.108Z" fill="#3F3D56"/>
<path id="Vector_113" d="M598.524 302.126H592.094V308.245H599.108V302.126H598.524Z" fill="#3F3D56"/>
<path id="Vector_114" d="M610.801 291.112H603.785V297.231H610.801V291.112Z" fill="#3F3D56"/>
<path id="Vector_115" d="M610.801 302.126H603.785V308.245H610.801V302.126Z" fill="#3F3D56"/>
<path id="Vector_116" d="M697.909 297.843V291.723H690.893V297.843H697.325H697.909Z" fill="#3F3D56"/>
<path id="Vector_117" d="M697.325 302.737H690.893V308.857H697.909V302.737H697.325Z" fill="#3F3D56"/>
<path id="Vector_118" d="M709.601 291.724H702.586V297.843H709.601V291.724Z" fill="#3F3D56"/>
<path id="Vector_119" d="M709.601 302.738H702.586V308.857H709.601V302.738Z" fill="#3F3D56"/>
<path id="Vector_120" d="M519.077 241.887L518.154 240.277L526.768 225.544H548.918V227.798L540.919 243.819L531.69 245.75L519.077 241.887Z" fill="#3F3D56"/>
<path id="Vector_121" d="M548.918 225.544L541.535 240.276L540.304 241.565L538.766 248.005L541.535 255.089H555.687V240.599L548.918 225.544Z" fill="#CCCCCC"/>
<path id="Vector_122" d="M541.535 240.277H518.154V255.088H541.535V240.277Z" fill="#F2F2F2"/>
<path id="Vector_123" d="M528.06 246.659V243.737H524.71V246.659H527.78H528.06Z" fill="#3F3D56"/>
<path id="Vector_124" d="M527.78 248.997H524.71V251.919H528.06V248.997H527.78Z" fill="#3F3D56"/>
<path id="Vector_125" d="M533.642 243.738H530.293V246.659H533.642V243.738Z" fill="#3F3D56"/>
<path id="Vector_126" d="M533.642 248.997H530.293V251.918H533.642V248.997Z" fill="#3F3D56"/>
<path id="Vector_127" d="M622.514 240.999L621.59 239.39L630.204 224.657H652.354V226.91L644.355 242.931L635.127 244.863L622.514 240.999Z" fill="#3F3D56"/>
<path id="Vector_128" d="M652.354 224.657L644.971 239.39L643.74 240.678L642.202 247.118L644.971 254.201H659.122V239.711L652.354 224.657Z" fill="#CCCCCC"/>
<path id="Vector_129" d="M644.971 239.389H621.591V254.201H644.971V239.389Z" fill="#F2F2F2"/>
<path id="Vector_130" d="M631.496 245.772V242.85H628.147V245.772H631.217H631.496Z" fill="#3F3D56"/>
<path id="Vector_131" d="M631.217 248.11H628.147V251.031H631.496V248.11H631.217Z" fill="#3F3D56"/>
<path id="Vector_132" d="M637.079 242.85H633.729V245.772H637.079V242.85Z" fill="#3F3D56"/>
<path id="Vector_133" d="M637.079 248.109H633.729V251.031H637.079V248.109Z" fill="#3F3D56"/>
<path id="Vector_134" d="M693.396 280.097L689.888 273.978L722.627 217.985H806.812V226.552L776.411 287.44L741.334 294.783L693.396 280.097Z" fill="#3F3D56"/>
<path id="Vector_135" d="M821.304 225.839V216.073H810.281V222.111L806.812 217.985L778.75 273.978L774.073 278.874L768.227 303.35L778.75 330.273H832.535V275.202L821.304 225.839Z" fill="#CCCCCC"/>
<path id="Vector_136" d="M778.75 273.978H689.888V330.273H778.75V273.978Z" fill="#F2F2F2"/>
<path id="Vector_137" d="M766.473 291.724H747.765V308.857H766.473V291.724Z" fill="#3F3D56"/>
<path id="Vector_138" d="M740.165 291.112H723.796V330.273H740.165V291.112Z" fill="#CCCCCC"/>
<path id="Vector_139" d="M705.088 297.231V291.111H698.073V297.231H704.503H705.088Z" fill="#3F3D56"/>
<path id="Vector_140" d="M704.503 302.126H698.073V308.245H705.088V302.126H704.503Z" fill="#3F3D56"/>
<path id="Vector_141" d="M716.781 291.112H709.765V297.231H716.781V291.112Z" fill="#3F3D56"/>
<path id="Vector_142" d="M716.781 302.126H709.765V308.245H716.781V302.126Z" fill="#3F3D56"/>
<path id="Vector_143" d="M803.889 297.843V291.723H796.873V297.843H803.304H803.889Z" fill="#3F3D56"/>
<path id="Vector_144" d="M803.304 302.737H796.873V308.857H803.889V302.737H803.304Z" fill="#3F3D56"/>
<path id="Vector_145" d="M815.581 291.724H808.565V297.843H815.581V291.724Z" fill="#3F3D56"/>
<path id="Vector_146" d="M815.581 302.738H808.565V308.857H815.581V302.738Z" fill="#3F3D56"/>
<path id="Vector_147" d="M725.95 241.887L725.027 240.277L733.64 225.544H755.791V227.798L747.792 243.819L738.563 245.75L725.95 241.887Z" fill="#3F3D56"/>
<path id="Vector_148" d="M755.791 225.544L748.407 240.276L747.177 241.565L745.638 248.005L748.407 255.089H762.558V240.599L755.791 225.544Z" fill="#CCCCCC"/>
<path id="Vector_149" d="M748.407 240.277H725.027V255.088H748.407V240.277Z" fill="#F2F2F2"/>
<path id="Vector_150" d="M734.932 246.659V243.737H731.583V246.659H734.653H734.932Z" fill="#3F3D56"/>
<path id="Vector_151" d="M734.653 248.997H731.583V251.919H734.932V248.997H734.653Z" fill="#3F3D56"/>
<path id="Vector_152" d="M740.515 243.738H737.165V246.659H740.515V243.738Z" fill="#3F3D56"/>
<path id="Vector_153" d="M740.515 248.997H737.165V251.918H740.515V248.997Z" fill="#3F3D56"/>
<path id="Vector_154" d="M933 329.665H0.847839V331.44H933V329.665Z" fill="#3F3D56"/>
<path id="Vector_155" d="M932.152 495.61H0V497.385H932.152V495.61Z" fill="#3F3D56"/>
<path id="Vector_156" d="M872.03 212.655H869.199V329.665H872.03V212.655Z" fill="#3F3D56"/>
<path id="Vector_157" d="M899.649 246.708C899.654 247.995 899.643 249.276 899.615 250.551C898.6 296.613 845.839 296.867 844.419 250.817C844.38 249.543 844.357 248.262 844.351 246.975C844.124 195.487 871.589 153.615 871.589 153.615C871.589 153.615 899.422 195.221 899.649 246.708Z" fill="#E6E6E6"/>
<path id="Vector_158" d="M311.69 444.256H281.86V449.212H311.69V444.256Z" fill="#3F3D56"/>
<path id="Vector_159" d="M527.367 445.366L521.212 446.857L287.305 446.987L285.202 441.858C281.533 433.06 280.274 423.367 281.565 413.863C282.572 406.779 285.097 399.74 290.831 396.683L301.211 324.32L430.619 324.078L480.687 366.345C480.687 366.345 504.305 365.901 517.136 382.62C521.196 387.916 524.178 394.931 524.978 404.233L525.485 412.931L527.367 445.366Z" fill="#6C63FF"/>
<path id="second while" d="M475.992 474.387C491.944 474.387 504.875 460.852 504.875 444.156C504.875 427.46 491.944 413.925 475.992 413.925C460.04 413.925 447.109 427.46 447.109 444.156C447.109 460.852 460.04 474.387 475.992 474.387Z" fill="#3F3D56"/>
<path id="Vector_160" d="M475.992 460.067C484.387 460.067 491.194 452.944 491.194 444.156C491.194 435.369 484.387 428.245 475.992 428.245C467.596 428.245 460.79 435.369 460.79 444.156C460.79 452.944 467.596 460.067 475.992 460.067Z" fill="#CCCCCC"/>
<path id="while" d="M333.47 474.467C349.421 474.467 362.353 460.932 362.353 444.236C362.353 427.54 349.421 414.005 333.47 414.005C317.518 414.005 304.586 427.54 304.586 444.236C304.586 460.932 317.518 474.467 333.47 474.467Z" fill="#3F3D56"/>
<path id="Vector_161" d="M333.469 460.147C341.865 460.147 348.671 453.023 348.671 444.236C348.671 435.448 341.865 428.325 333.469 428.325C325.074 428.325 318.268 435.448 318.268 444.236C318.268 453.023 325.074 460.147 333.469 460.147Z" fill="#CCCCCC"/>
<path id="Vector_162" d="M460.795 361.404L390.925 361.436H382.396L367.995 361.447V360.347L367.984 347.094L367.974 332.211H377.554L386.083 332.201L401.192 332.19H409.721L427.163 332.18L460.795 361.404Z" fill="white"/>
<path id="Vector_163" d="M356.626 361.457L319.7 361.478L319.69 353.895V340.642L319.68 332.243H325.087L333.616 332.233L356.616 332.222L356.626 361.457Z" fill="white"/>
<path id="Vector_164" d="M372.741 383.257H368.006V392.673H372.741V383.257Z" fill="#3F3D56"/>
<path id="Vector_165" d="M450.861 374.787L450.859 369.831L441.862 369.836L441.865 374.792L450.861 374.787Z" fill="#3F3D56"/>
<path id="Vector_166" d="M445.172 351.296H445.693C448.318 351.296 450.835 352.387 452.691 354.33C454.547 356.272 455.589 358.907 455.589 361.654V361.654C455.589 364.401 454.547 367.036 452.691 368.978C450.835 370.921 448.318 372.012 445.693 372.012H445.172V351.296Z" fill="#3F3D56"/>
<path id="Vector_167" d="M525.485 412.931C521.904 413.338 518.301 412.41 515.309 410.31C512.318 408.21 510.131 405.072 509.133 401.45C508.136 397.827 508.391 393.953 509.855 390.508C511.319 387.063 513.897 384.27 517.136 382.62C521.196 387.916 524.178 394.931 524.978 404.233L525.485 412.931Z" fill="#3F3D56"/>
<path id="Vector_168" d="M386.083 332.201L367.995 360.347L367.984 347.094L377.554 332.211L386.083 332.201Z" fill="#F2F2F2"/>
<path id="Vector_169" d="M333.616 332.233L319.69 353.895V340.642L325.087 332.243L333.616 332.233Z" fill="#F2F2F2"/>
<path id="Vector_170" d="M409.721 332.19L390.925 361.436H382.396L401.192 332.19H409.721Z" fill="#F2F2F2"/>
<path id="Vector_171" d="M691.156 381.972L709.276 381.982L709.278 378.972L691.158 378.962L691.156 381.972Z" fill="#3F3D56"/>
<path id="Vector_172" d="M560.146 379.641L563.885 380.546L705.969 380.626L707.247 377.51C709.475 372.166 710.24 366.278 709.456 360.505C708.844 356.202 707.311 351.926 703.828 350.069L697.522 306.113L618.914 305.965L588.501 331.64C588.501 331.64 574.155 331.37 566.361 341.526C563.549 345.303 561.889 349.877 561.597 354.655L561.289 359.938L560.146 379.641Z" fill="#3F3D56"/>
<path id="Vector_173" d="M591.353 397.27C601.043 397.27 608.898 389.048 608.898 378.906C608.898 368.764 601.043 360.542 591.353 360.542C581.664 360.542 573.808 368.764 573.808 378.906C573.808 389.048 581.664 397.27 591.353 397.27Z" fill="#3F3D56"/>
<path id="Vector_174" d="M591.353 388.571C596.453 388.571 600.587 384.244 600.587 378.906C600.587 373.568 596.453 369.241 591.353 369.241C586.253 369.241 582.119 373.568 582.119 378.906C582.119 384.244 586.253 388.571 591.353 388.571Z" fill="#CCCCCC"/>
<path id="Vector_175" d="M677.927 397.318C687.617 397.318 695.472 389.096 695.472 378.954C695.472 368.812 687.617 360.591 677.927 360.591C668.237 360.591 660.382 368.812 660.382 378.954C660.382 389.096 668.237 397.318 677.927 397.318Z" fill="#3F3D56"/>
<path id="Vector_176" d="M677.927 388.619C683.027 388.619 687.161 384.292 687.161 378.954C687.161 373.616 683.027 369.289 677.927 369.289C672.827 369.289 668.693 373.616 668.693 378.954C668.693 384.292 672.827 388.619 677.927 388.619Z" fill="#CCCCCC"/>
<path id="Vector_177" d="M600.585 328.639L643.026 328.659H648.207L656.955 328.666V327.997L656.961 319.946L656.967 310.906H651.148L645.967 310.899L636.79 310.893H631.608L621.014 310.887L600.585 328.639Z" fill="white"/>
<path id="Vector_178" d="M663.86 328.672L686.291 328.685L686.297 324.078V316.027L686.303 310.926H683.019L677.838 310.92L663.867 310.913L663.86 328.672Z" fill="white"/>
<path id="Vector_179" d="M654.071 347.632L656.947 347.634L656.95 341.914L654.073 341.912L654.071 347.632Z" fill="#3F3D56"/>
<path id="Vector_180" d="M612.083 336.771L612.085 333.761L606.62 333.758L606.619 336.768L612.083 336.771Z" fill="#3F3D56"/>
<path id="Vector_181" d="M610.071 335.084L609.755 335.084C608.16 335.083 606.632 334.42 605.505 333.239C604.378 332.058 603.746 330.458 603.747 328.789C603.747 327.12 604.382 325.52 605.51 324.341C606.638 323.162 608.167 322.5 609.761 322.501L610.078 322.501L610.071 335.084Z" fill="#3F3D56"/>
<path id="Vector_182" d="M561.289 359.938C563.465 360.186 565.653 359.622 567.47 358.346C569.287 357.071 570.616 355.165 571.222 352.964C571.828 350.764 571.673 348.41 570.784 346.318C569.894 344.226 568.328 342.529 566.361 341.526C563.549 345.303 561.889 349.877 561.597 354.655L561.289 359.938Z" fill="#3F3D56"/>
<path id="Vector_183" d="M645.967 310.899L656.955 327.997L656.961 319.946L651.148 310.906L645.967 310.899Z" fill="#F2F2F2"/>
<path id="Vector_184" d="M677.838 310.92L686.297 324.078V316.027L683.019 310.926L677.838 310.92Z" fill="#F2F2F2"/>
<path id="Vector_185" d="M631.608 310.893L643.026 328.659H648.207L636.79 310.893H631.608Z" fill="#F2F2F2"/>
<path id="Vector_186" d="M162.33 516.652C162.33 516.652 162.33 550.305 169.709 559.132C169.709 559.132 171.29 563.545 171.817 565.2C172.112 566.142 172.464 567.064 172.872 567.959V570.165C172.872 570.165 187.103 568.51 188.684 564.649L186.049 561.338C186.049 561.338 185.522 560.787 186.049 559.132C186.139 558.952 186.181 558.749 186.171 558.546C186.161 558.343 186.098 558.146 185.991 557.977C185.883 557.808 185.733 557.672 185.558 557.584C185.383 557.496 185.188 557.459 184.994 557.477L181.305 548.65L181.832 512.239L179.197 462.036L156.532 460.933L162.33 516.652Z" fill="#2F2E41"/>
<path id="Vector_187" d="M173.926 566.855C173.926 566.855 170.236 578.441 173.926 578.992C177.615 579.544 209.767 580.096 209.24 575.682C208.713 571.269 198.172 571.82 198.172 571.82L187.103 564.649L173.926 566.855Z" fill="#2F2E41"/>
<path id="Vector_188" d="M141.247 462.036C140.794 467.225 141.9 472.432 144.409 476.931C148.626 484.655 145.99 510.584 145.99 510.584L108.568 544.788C108.568 544.788 115.947 558.028 118.582 557.477C121.218 556.925 162.857 521.617 162.857 521.617L179.197 464.243L141.247 462.036Z" fill="#2F2E41"/>
<path id="Vector_189" d="M109.082 543.326C109.082 543.326 97.7577 546.267 99.2877 549.824C100.818 553.381 117.585 582.1 120.864 579.271C124.144 576.443 118.055 567.419 118.055 567.419L117.917 553.794L109.082 543.326Z" fill="#2F2E41"/>
<path id="Vector_190" d="M161.803 372.112C168.498 372.112 173.926 366.431 173.926 359.423C173.926 352.416 168.498 346.735 161.803 346.735C155.108 346.735 149.68 352.416 149.68 359.423C149.68 366.431 155.108 372.112 161.803 372.112Z" fill="#FFB8B8"/>
<path id="Vector_191" d="M152.264 363.9L152.801 380.228L163.001 384.447C163.001 384.447 164.001 367.728 165.414 366.801C166.826 365.874 152.264 363.9 152.264 363.9Z" fill="#FFB8B8"/>
<path id="Vector_192" d="M165.492 386.456C165.492 386.456 151.261 371.56 147.572 372.112C143.882 372.664 143.882 374.319 143.882 375.422C143.882 376.525 144.936 377.077 143.882 377.629C142.828 378.181 141.774 377.629 141.774 379.284C141.774 380.939 132.286 397.489 135.449 415.695C138.611 433.9 142.301 442.727 140.72 452.657C139.138 462.588 140.192 464.794 140.192 464.794C140.192 464.794 179.724 468.104 180.251 464.243C180.778 460.381 178.669 462.588 181.305 459.829C183.94 457.071 182.886 457.071 182.886 455.416C182.886 453.761 171.29 386.456 165.492 386.456Z" fill="#575A89"/>
<path id="Vector_193" d="M158.113 461.484C158.113 461.484 164.438 477.483 169.182 473.621C173.926 469.759 167.074 456.519 167.074 456.519L158.113 461.484Z" fill="#FFB8B8"/>
<path id="Vector_194" d="M142.828 387.559C142.828 387.559 130.444 389.043 135.055 412.851C139.665 436.659 157.586 464.243 157.586 464.243L169.709 458.174L153.897 425.625L157.586 405.213C157.586 405.213 159.695 385.904 142.828 387.559Z" fill="#575A89"/>
<path id="Vector_195" opacity="0.2" d="M153.633 425.901L171.026 456.243L169.446 457.898L153.633 425.901Z" fill="black"/>
<path id="Vector_196" opacity="0.2" d="M144.427 440.041L158.377 463.967H153.633L144.427 440.041Z" fill="black"/>
<path id="Vector_197" d="M156.316 367.048C157.345 366.612 158.411 366.279 159.5 366.055C161.386 365.387 162.981 364.034 163.996 362.241C165.012 360.448 165.379 358.334 165.033 356.281C164.883 355.76 164.816 355.215 164.834 354.671C164.983 354.083 165.295 353.554 165.731 353.152C166.167 352.75 166.708 352.492 167.284 352.412C168.435 352.271 169.575 352.044 170.695 351.732C171.515 351.346 172.224 350.742 172.753 349.982C173.281 349.221 173.611 348.33 173.71 347.395C173.883 345.514 173.483 343.624 172.567 341.995L172.159 343.224C171.536 342.673 171.074 341.949 170.825 341.137C170.362 341.218 169.926 341.423 169.559 341.732C169.193 342.04 168.908 342.442 168.732 342.899C168.077 343.303 167.983 341.643 167.259 341.398C166.941 341.356 166.619 341.439 166.356 341.631C164.898 342.342 163.204 341.734 161.64 341.339C158.932 340.659 156.109 340.656 153.399 341.329C151.572 341.705 149.883 342.614 148.529 343.952C147.521 345.149 146.747 346.542 146.251 348.05C144.734 351.651 144.102 355.592 144.412 359.514C144.792 362.695 146.063 365.687 148.066 368.113C149.109 369.371 152.513 373.76 154.379 373.011C156.724 372.071 153.553 368.577 156.316 367.048Z" fill="#2F2E41"/>
<path id="Vector_198" opacity="0.2" d="M175.939 483.521L162.069 521.585L162.77 521.864L176.64 483.801L175.939 483.521Z" fill="black"/>
<path id="Vector_199" d="M165.418 389.485C165.832 389.485 166.168 389.133 166.168 388.7C166.168 388.266 165.832 387.915 165.418 387.915C165.004 387.915 164.668 388.266 164.668 388.7C164.668 389.133 165.004 389.485 165.418 389.485Z" fill="#D0CDE1"/>
<path id="Vector_200" d="M171.791 410.674C171.711 410.674 171.633 410.648 171.569 410.598C171.504 410.548 171.457 410.478 171.433 410.398L165.06 388.816C165.03 388.716 165.04 388.609 165.086 388.517C165.133 388.425 165.212 388.356 165.307 388.325C165.402 388.294 165.505 388.304 165.593 388.353C165.681 388.401 165.746 388.485 165.776 388.584L172.149 410.166C172.166 410.225 172.17 410.287 172.16 410.348C172.151 410.408 172.127 410.465 172.092 410.515C172.058 410.564 172.012 410.604 171.96 410.632C171.908 410.66 171.85 410.674 171.791 410.674V410.674Z" fill="#D0CDE1"/>
<path id="Vector_201" d="M845.233 380.024C852.224 380.024 857.892 374.091 857.892 366.773C857.892 359.455 852.224 353.523 845.233 353.523C838.241 353.523 832.573 359.455 832.573 366.773C832.573 374.091 838.241 380.024 845.233 380.024Z" fill="#2F2E41"/>
<path id="Vector_202" d="M827.238 447.039L825.318 451.057C825.318 451.057 819.176 461.503 823.399 462.708C827.622 463.914 828.965 454.874 828.965 454.874L829.733 450.052L827.238 447.039Z" fill="#A0616A"/>
<path id="Vector_203" d="M834.915 426.548L830.116 439.806L825.319 449.047L831.269 453.065L836.067 444.226L841.825 430.365L834.915 426.548Z" fill="#D0CDE1"/>
<path id="Vector_204" d="M848.543 488.624L858.139 499.271L875.03 529.204L882.323 526.793L873.686 508.914C873.686 508.914 868.696 495.253 866.201 493.445C863.705 491.637 859.483 479.784 859.483 479.784L854.876 475.967L848.543 488.624Z" fill="#A0616A"/>
<path id="Vector_205" d="M828.773 494.449L828.006 497.865C828.006 497.865 825.51 508.512 821.672 513.333L812.459 530.007L805.549 527.597L819.177 493.847L828.773 494.449Z" fill="#A0616A"/>
<path id="Vector_206" d="M843.072 382.251C848.797 382.251 853.437 377.394 853.437 371.403C853.437 365.411 848.797 360.554 843.072 360.554C837.348 360.554 832.708 365.411 832.708 371.403C832.708 377.394 837.348 382.251 843.072 382.251Z" fill="#A0616A"/>
<path id="Vector_207" d="M851.23 376.726L852.573 388.378L843.936 392.798C843.936 392.798 843.936 382.753 841.633 380.141L851.23 376.726Z" fill="#A0616A"/>
<path id="Vector_208" d="M878.293 451.86L879.252 455.275C879.252 455.275 885.586 468.333 880.212 468.333C874.838 468.333 873.878 456.28 873.878 456.28L873.302 453.266L878.293 451.86Z" fill="#A0616A"/>
<path id="Vector_209" d="M834.147 438.199L835.491 448.043L819.177 484.003L818.217 494.449L848.735 498.467L855.452 478.981L866.201 493.445L860.059 478.579C860.059 478.579 858.139 468.534 858.715 465.923C859.291 463.311 858.331 450.253 856.604 447.039C854.876 443.824 834.147 438.199 834.147 438.199Z" fill="#2F2E41"/>
<path id="Vector_210" d="M873.878 529.204L883.091 525.99L885.97 530.811C885.97 530.811 891.536 532.418 891.344 536.637C891.371 540.474 891.692 544.304 892.304 548.088L888.273 548.489L886.738 540.253L878.868 550.097C878.868 550.097 864.857 550.9 864.281 548.489C863.705 546.079 874.262 543.467 874.262 543.467L875.989 534.829L873.878 529.204Z" fill="#2F2E41"/>
<path id="Vector_211" d="M804.973 526.391L813.419 529.204V531.213C813.419 531.213 815.914 535.231 815.53 538.646C815.146 542.061 813.419 550.297 813.419 550.297H809.004L809.196 542.664L800.367 550.297C800.367 550.297 784.628 549.092 784.628 546.481C784.628 543.869 796.72 542.061 796.72 542.061L804.973 526.391Z" fill="#2F2E41"/>
<path id="Vector_212" d="M843.36 390.387C843.36 390.387 851.23 382.15 854.876 384.159V387.775C854.876 387.775 860.251 390.387 860.443 394.405C860.634 398.423 866.201 434.985 866.201 434.985L879.252 482.597C879.252 482.597 875.221 489.226 860.442 481.793L851.23 449.048C851.23 449.048 861.018 486.012 856.22 485.409C851.422 484.807 832.612 439.003 832.612 439.003L833.955 417.307C833.955 417.307 830.884 407.865 837.026 401.436L843.36 390.387Z" fill="#D0CDE1"/>
<path id="Vector_213" d="M856.796 391.592C856.796 391.592 860.059 392.798 862.362 398.021C864.665 403.244 876.181 440.007 876.181 440.007L879.252 453.066L870.615 455.275L866.393 441.816L850.654 411.28C850.654 411.28 848.159 395.208 856.796 391.592Z" fill="#D0CDE1"/>
<path id="Vector_214" d="M856.037 362.748C855.995 361.501 855.66 360.285 855.062 359.205C854.465 358.125 853.623 357.216 852.611 356.557C853.665 354.342 854.606 351.815 853.912 349.45C853.63 348.533 853.12 347.71 852.434 347.068C851.748 346.425 850.91 345.985 850.008 345.794C849.001 345.649 847.979 345.663 846.975 345.835L842.246 346.397C840.697 346.46 839.182 346.887 837.813 347.646C837.134 348.096 836.565 348.706 836.152 349.428C835.739 350.15 835.494 350.963 835.436 351.802C835.379 352.641 835.51 353.483 835.82 354.259C836.13 355.035 836.609 355.725 837.22 356.272C833.911 359.042 831.7 361.145 830.194 365.291C832.719 363.137 835.873 361.955 839.13 361.942C841.345 361.817 843.518 362.6 845.189 364.125C846.861 365.651 847.898 367.798 848.08 370.111C848.06 371.272 848.158 372.431 848.371 373.57C848.492 374.137 848.795 374.644 849.23 375.006C849.664 375.368 850.204 375.563 850.76 375.559C850.607 375.582 849.67 372.635 850.33 371.275L850.34 371.253C850.486 370.972 850.725 370.757 851.012 370.649C851.269 370.547 851.543 370.502 851.817 370.519C852.092 370.535 852.359 370.613 852.603 370.746C852.846 370.879 853.06 371.065 853.229 371.291C853.398 371.518 853.52 371.779 853.585 372.058C853.953 373.534 854.54 375.417 855.053 374.918C855.725 374.263 855.443 368.491 855.624 367.596C855.986 366.01 856.125 364.377 856.037 362.748V362.748Z" fill="#2F2E41"/>
<path id="Vector_215" d="M852.559 356.517C852.559 356.517 842.157 357.227 837.182 356.28Z" fill="#D0CDE1"/>
<path id="Vector_216" d="M851.969 355.06C853.023 352.846 853.964 350.318 853.27 347.953C852.945 346.887 852.311 345.954 851.455 345.284C852.109 345.598 852.693 346.052 853.17 346.615C853.648 347.178 854.009 347.839 854.229 348.556C854.924 350.921 853.982 353.448 852.929 355.663C852.093 355.532 854.067 356.23 851.969 355.06Z" fill="#2F2E41"/>
<path id="Vector_217" opacity="0.2" d="M848.638 411.38L863.609 439.104L869.368 454.171L861.306 439.706L848.638 411.38Z" fill="black"/>
<path id="Vector_218" d="M140.929 568.951C140.929 568.951 136.236 579.643 132.425 582.641C128.567 579.635 123.782 568.951 123.782 568.951C123.782 568.951 119.089 579.643 115.278 582.641C111.42 579.635 106.635 568.951 106.635 568.951C106.635 568.951 93.3063 583.212 93.3432 589.967C93.3442 590.135 93.3533 590.303 93.3705 590.471C93.8255 594.893 107.606 596.02 115.176 593.936C120.819 595.283 126.68 595.283 132.323 593.936C139.861 596.053 153.921 594.84 154.332 590.367C154.348 590.199 154.355 590.031 154.354 589.863C154.317 583.108 140.929 568.951 140.929 568.951Z" fill="#6C63FF"/>
<path id="Vector_219" d="M420.944 568.951C420.944 568.951 416.251 579.643 412.441 582.641C408.583 579.635 403.798 568.951 403.798 568.951C403.798 568.951 399.105 579.643 395.294 582.641C391.436 579.635 386.651 568.951 386.651 568.951C386.651 568.951 373.322 583.212 373.359 589.967C373.36 590.135 373.369 590.303 373.386 590.471C373.841 594.893 387.622 596.02 395.192 593.936C400.835 595.283 406.696 595.283 412.339 593.936C419.876 596.053 433.937 594.84 434.348 590.367C434.364 590.199 434.371 590.031 434.37 589.863C434.333 583.108 420.944 568.951 420.944 568.951Z" fill="#E6E6E6"/>
<path id="Vector_220" d="M699.148 568.951C699.148 568.951 694.455 579.643 690.644 582.641C686.786 579.635 682.001 568.951 682.001 568.951C682.001 568.951 677.308 579.643 673.497 582.641C669.639 579.635 664.854 568.951 664.854 568.951C664.854 568.951 651.525 583.212 651.562 589.967C651.563 590.135 651.572 590.303 651.59 590.471C652.045 594.893 665.825 596.02 673.395 593.936C679.038 595.283 684.899 595.283 690.542 593.936C698.08 596.053 712.14 594.84 712.551 590.367C712.567 590.199 712.574 590.031 712.573 589.863C712.536 583.108 699.148 568.951 699.148 568.951Z" fill="#6C63FF"/>
<path id="Vector_221" d="M157.742 50.1745L157.619 50.2445C156.292 51.0041 154.805 51.4048 153.292 51.4104C151.78 51.416 150.29 51.0262 148.958 50.2764C148.882 50.233 148.805 50.1902 148.729 50.148C147.398 49.4039 145.91 49.0173 144.4 49.0227C142.891 49.0282 141.406 49.4256 140.079 50.1793L139.964 50.2446C138.637 51.0041 137.15 51.4049 135.638 51.4104C134.126 51.416 132.636 51.0262 131.304 50.2764C131.224 50.2314 131.145 50.187 131.066 50.1432C129.75 49.4025 128.28 49.0135 126.785 49.0107C125.291 49.0079 123.819 49.3915 122.5 50.1273C118.472 52.3978 113.026 56.28 113.05 60.6642C113.051 60.8376 113.061 61.0108 113.078 61.1832C113.547 65.7362 127.735 66.8964 135.529 64.7506C141.34 66.1382 147.374 66.1382 153.184 64.7506C160.945 66.9307 175.422 65.6817 175.845 61.0765C175.861 60.9039 175.868 60.7306 175.868 60.5573C175.844 56.1707 170.35 52.3293 166.296 50.0906C164.974 49.3665 163.501 48.9953 162.009 49.0099C160.517 49.0245 159.051 49.4246 157.742 50.1745V50.1745Z" fill="#E6E6E6"/>
<path id="Vector_222" d="M421.42 98.2956L421.298 98.3656C419.971 99.1252 418.484 99.5259 416.971 99.5314C415.459 99.537 413.969 99.1472 412.637 98.3975C412.561 98.3541 412.484 98.3113 412.408 98.2691C411.076 97.525 409.589 97.1383 408.079 97.1438C406.57 97.1492 405.085 97.5466 403.758 98.3003L403.643 98.3657C402.316 99.1252 400.829 99.5259 399.317 99.5315C397.805 99.537 396.315 99.1473 394.983 98.3975C394.903 98.3525 394.824 98.3081 394.745 98.2642C393.429 97.5236 391.958 97.1346 390.464 97.1318C388.97 97.129 387.498 97.5126 386.179 98.2484C382.151 100.519 376.705 104.401 376.729 108.785C376.73 108.959 376.74 109.132 376.757 109.304C377.226 113.857 391.414 115.017 399.208 112.872C405.019 114.259 411.053 114.259 416.863 112.872C424.624 115.052 439.101 113.803 439.524 109.198C439.54 109.025 439.547 108.852 439.546 108.678C439.523 104.292 434.029 100.45 429.975 98.2117C428.653 97.4876 427.18 97.1164 425.688 97.131C424.195 97.1456 422.73 97.5457 421.42 98.2956V98.2956Z" fill="#E6E6E6"/>
<path id="Vector_223" d="M603.662 52.262L603.539 52.332C602.213 53.0916 600.725 53.4923 599.213 53.4979C597.701 53.5034 596.211 53.1136 594.879 52.3639C594.802 52.3205 594.726 52.2777 594.65 52.2355C593.318 51.4914 591.831 51.1048 590.321 51.1102C588.811 51.1157 587.327 51.513 586 52.2667L585.885 52.3321C584.558 53.0916 583.071 53.4924 581.559 53.4979C580.046 53.5035 578.557 53.1137 577.225 52.3639C577.145 52.3189 577.066 52.2745 576.987 52.2307C575.671 51.49 574.2 51.101 572.706 51.0982C571.212 51.0954 569.74 51.479 568.421 52.2148C564.393 54.4853 558.947 58.3675 558.971 62.7517C558.972 62.9251 558.981 63.0983 558.999 63.2707C559.468 67.8237 573.656 68.9839 581.45 66.8381C587.26 68.2257 593.295 68.2257 599.105 66.8381C606.866 69.0182 621.343 67.7692 621.766 63.164C621.782 62.9914 621.789 62.8181 621.788 62.6448C621.764 58.2582 616.271 54.4168 612.217 52.1781C610.895 51.454 609.422 51.0828 607.93 51.0974C606.437 51.112 604.971 51.5121 603.662 52.262V52.262Z" fill="#E6E6E6"/>
<path id="Vector_224" d="M932.152 593.225H0V595H932.152V593.225Z" fill="#3F3D56"/>
</g>
<defs>
<clipPath id="clip0_1:4">
<rect width="933" height="595" fill="white"/>
</clipPath>
</defs>
</svg>
