<svg width="427" height="435" viewBox="0 0 427 435" fill="none" xmlns="http://www.w3.org/2000/svg">
<path d="M213.984 143.333L264.906 172.729L213.984 202.126L163.063 172.729L213.984 143.333Z" fill="#E7E5E3"/>
<path d="M213.984 201.278L163.721 172.773L163.721 230.77L214.318 260.78L213.984 201.278Z" fill="#D6D2CD"/>
<path d="M213.988 201.278L264.67 172.773L264.67 231.334L213.65 261.594L213.988 201.278Z" fill="#C1BDB9"/>
<path d="M213.984 71.6663L264.906 101.063L213.984 130.46L163.063 101.063L213.984 71.6663Z" fill="#E7E5E3"/>
<path d="M213.984 129.611L163.721 101.106L163.721 159.104L214.318 189.113L213.984 129.611Z" fill="#D6D2CD"/>
<path d="M213.988 129.612L264.67 101.106L264.67 159.668L213.65 189.928L213.988 129.612Z" fill="#C1BDB9"/>
<path d="M213.984 0L264.906 29.3968L213.984 58.7935L163.063 29.3968L213.984 0Z" fill="#E7E5E3"/>
<path d="M213.984 57.945L163.721 29.4401L163.721 87.4372L214.318 117.447L213.984 57.945Z" fill="#D6D2CD"/>
<path d="M213.984 57.946L264.666 29.4403L264.666 88.0016L213.646 118.262L213.984 57.946Z" fill="#C1BDB9"/>
<path d="M143.258 183.5L194.179 212.897L143.258 242.294L92.3367 212.897L143.258 183.5Z" fill="#E7E5E3"/>
<path d="M143.256 241.445L92.9923 212.94L92.9924 270.937L143.59 300.947L143.256 241.445Z" fill="#D6D2CD"/>
<path d="M143.258 241.446L193.939 212.941L193.939 271.502L142.92 301.762L143.258 241.446Z" fill="#C1BDB9"/>
<path d="M143.258 111.834L194.179 141.231L143.258 170.627L92.3367 141.231L143.258 111.834Z" fill="#E7E5E3"/>
<path d="M143.256 169.779L92.9923 141.274L92.9924 199.271L143.59 229.281L143.256 169.779Z" fill="#D6D2CD"/>
<path d="M143.258 169.78L193.939 141.274L193.939 199.835L142.92 230.096L143.258 169.78Z" fill="#C1BDB9"/>
<path d="M143.258 40.1675L194.179 69.5642L143.258 98.961L92.3367 69.5642L143.258 40.1675Z" fill="#E7E5E3"/>
<path d="M143.256 98.1125L92.9923 69.6076L92.9924 127.605L143.59 157.614L143.256 98.1125Z" fill="#D6D2CD"/>
<path d="M143.258 98.1135L193.939 69.6078L193.939 128.169L142.92 158.429L143.258 98.1135Z" fill="#C1BDB9"/>
<path d="M282.098 183.5L333.019 212.897L282.098 242.294L231.177 212.897L282.098 183.5Z" fill="#E7E5E3"/>
<path d="M282.096 241.445L231.832 212.94L231.832 270.937L282.429 300.947L282.096 241.445Z" fill="#D6D2CD"/>
<path d="M282.1 241.446L332.781 212.94L332.781 271.502L281.761 301.762L282.1 241.446Z" fill="#C1BDB9"/>
<path d="M282.096 111.834L333.017 141.231L282.096 170.627L231.175 141.231L282.096 111.834Z" fill="#E7E5E3"/>
<path d="M282.096 169.779L231.832 141.274L231.832 199.271L282.429 229.281L282.096 169.779Z" fill="#D6D2CD"/>
<path d="M282.098 169.78L332.779 141.274L332.779 199.835L281.759 230.096L282.098 169.78Z" fill="#C1BDB9"/>
<path d="M282.098 40.1675L333.019 69.5643L282.098 98.9611L231.177 69.5643L282.098 40.1675Z" fill="#E7E5E3"/>
<path d="M282.096 98.1125L231.832 69.6075L231.832 127.605L282.429 157.614L282.096 98.1125Z" fill="#D6D2CD"/>
<path d="M282.1 98.1135L332.781 69.6079L332.781 128.169L281.761 158.429L282.1 98.1135Z" fill="#C1BDB9"/>
<path d="M350.207 220.175L401.128 249.572L350.207 278.968L299.286 249.572L350.207 220.175Z" fill="#E7E5E3"/>
<path d="M350.207 278.12L299.944 249.615L299.944 307.612L350.541 337.622L350.207 278.12Z" fill="#D6D2CD"/>
<path d="M350.209 278.121L400.89 249.615L400.89 308.176L349.871 338.437L350.209 278.121Z" fill="#C1BDB9"/>
<path d="M350.207 148.508L401.128 177.905L350.207 207.302L299.286 177.905L350.207 148.508Z" fill="#E7E5E3"/>
<path d="M350.211 206.454L299.947 177.949L299.947 235.946L350.545 265.956L350.211 206.454Z" fill="#D6D2CD"/>
<path d="M350.211 206.454L400.892 177.949L400.892 236.51L349.873 266.77L350.211 206.454Z" fill="#C1BDB9"/>
<path d="M350.207 76.842L401.128 106.239L350.207 135.636L299.286 106.239L350.207 76.842Z" fill="#E7E5E3"/>
<path d="M350.207 134.787L299.944 106.282L299.944 164.279L350.541 194.289L350.207 134.787Z" fill="#D6D2CD"/>
<path d="M350.209 134.788L400.89 106.282L400.89 164.844L349.871 195.104L350.209 134.788Z" fill="#C1BDB9"/>
<path d="M76.0195 220.175L126.941 249.571L76.0195 278.968L25.0984 249.571L76.0195 220.175Z" fill="#E7E5E3"/>
<path d="M76.0195 278.12L25.756 249.615L25.756 307.612L76.3532 337.622L76.0195 278.12Z" fill="#D6D2CD"/>
<path d="M76.0195 278.121L126.701 249.615L126.701 308.176L75.6813 338.437L76.0195 278.121Z" fill="#C1BDB9"/>
<path d="M76.0195 148.508L126.941 177.905L76.0195 207.302L25.0984 177.905L76.0195 148.508Z" fill="#E7E5E3"/>
<path d="M76.0195 206.453L25.756 177.949L25.756 235.946L76.3532 265.955L76.0195 206.453Z" fill="#D6D2CD"/>
<path d="M76.0195 206.454L126.701 177.949L126.701 236.51L75.6813 266.77L76.0195 206.454Z" fill="#C1BDB9"/>
<path d="M76.0195 76.842L126.941 106.239L76.0195 135.636L25.0984 106.239L76.0195 76.842Z" fill="#E7E5E3"/>
<path d="M76.0195 134.787L25.756 106.282L25.756 164.279L76.3532 194.289L76.0195 134.787Z" fill="#D6D2CD"/>
<path d="M76.0195 134.788L126.701 106.282L126.701 164.844L75.6813 195.104L76.0195 134.788Z" fill="#C1BDB9"/>
<path d="M213.984 222.794L264.906 252.191L213.984 281.588L163.063 252.191L213.984 222.794Z" fill="#E7E5E3"/>
<path d="M213.984 280.739L163.721 252.234L163.721 310.231L214.318 340.241L213.984 280.739Z" fill="#D6D2CD"/>
<path d="M213.988 280.74L264.67 252.234L264.67 310.796L213.65 341.056L213.988 280.74Z" fill="#C1BDB9"/>
<path d="M213.984 151.128L264.906 180.525L213.984 209.922L163.063 180.525L213.984 151.128Z" fill="#E7E5E3"/>
<path d="M213.984 209.073L163.721 180.568L163.721 238.565L214.318 268.575L213.984 209.073Z" fill="#D6D2CD"/>
<path d="M213.984 209.074L264.666 180.568L264.666 239.13L213.646 269.39L213.984 209.074Z" fill="#C1BDB9"/>
<path d="M213.984 79.4616L264.906 108.858L213.984 138.255L163.063 108.858L213.984 79.4616Z" fill="#E7E5E3"/>
<path d="M213.984 137.407L163.721 108.902L163.721 166.899L214.318 196.908L213.984 137.407Z" fill="#D6D2CD"/>
<path d="M213.984 137.408L264.666 108.902L264.666 167.463L213.646 197.724L213.984 137.408Z" fill="#C1BDB9"/>
<path d="M282.098 259.469L333.019 288.866L282.098 318.262L231.177 288.866L282.098 259.469Z" fill="#E7E5E3"/>
<path d="M282.096 317.414L231.832 288.909L231.832 346.906L282.429 376.916L282.096 317.414Z" fill="#D6D2CD"/>
<path d="M282.1 317.415L332.781 288.909L332.781 347.471L281.761 377.731L282.1 317.415Z" fill="#C1BDB9"/>
<path d="M144.129 259.469L195.05 288.866L144.129 318.262L93.2078 288.866L144.129 259.469Z" fill="#E7E5E3"/>
<path d="M144.129 317.414L93.8654 288.909L93.8654 346.906L144.463 376.916L144.129 317.414Z" fill="#D6D2CD"/>
<path d="M144.131 317.415L194.812 288.909L194.812 347.471L143.793 377.731L144.131 317.415Z" fill="#C1BDB9"/>
<path d="M144.129 187.803L195.05 217.199L144.129 246.596L93.2078 217.199L144.129 187.803Z" fill="#E7E5E3"/>
<path d="M144.129 245.748L93.8654 217.243L93.8654 275.24L144.463 305.25L144.129 245.748Z" fill="#D6D2CD"/>
<path d="M144.131 245.749L194.812 217.243L194.812 275.804L143.793 306.065L144.131 245.749Z" fill="#C1BDB9"/>
<path d="M144.129 116.136L195.05 145.533L144.129 174.93L93.2078 145.533L144.129 116.136Z" fill="#E7E5E3"/>
<path d="M144.129 174.081L93.8654 145.576L93.8654 203.573L144.463 233.583L144.129 174.081Z" fill="#D6D2CD"/>
<path d="M144.131 174.082L194.812 145.577L194.812 204.138L143.793 234.398L144.131 174.082Z" fill="#C1BDB9"/>
<path d="M213.984 301.256L264.906 330.652L213.984 360.049L163.063 330.652L213.984 301.256Z" fill="#E7E5E3"/>
<path d="M213.984 359.201L163.721 330.696L163.721 388.693L214.318 418.703L213.984 359.201Z" fill="#D6D2CD"/>
<path d="M213.988 359.201L264.67 330.695L264.67 389.256L213.65 419.517L213.988 359.201Z" fill="#C1BDB9"/>
<path d="M282.096 187.803L333.017 217.199L282.096 246.596L231.175 217.199L282.096 187.803Z" fill="#E7E5E3"/>
<path d="M282.096 245.748L231.832 217.243L231.832 275.24L282.429 305.249L282.096 245.748Z" fill="#D6D2CD"/>
<path d="M282.098 245.749L332.779 217.243L332.779 275.804L281.759 306.065L282.098 245.749Z" fill="#C1BDB9"/>
<path d="M213.984 228.78L264.906 258.177L213.984 287.573L163.063 258.177L213.984 228.78Z" fill="#E7E5E3"/>
<path d="M213.984 286.725L163.721 258.22L163.721 316.217L214.318 346.227L213.984 286.725Z" fill="#D6D2CD"/>
<path d="M213.988 286.725L264.67 258.22L264.67 316.781L213.65 347.041L213.988 286.725Z" fill="#C1BDB9"/>
<path d="M282.098 116.136L333.019 145.533L282.098 174.93L231.177 145.533L282.098 116.136Z" fill="#E7E5E3"/>
<path d="M282.096 174.081L231.832 145.576L231.832 203.573L282.429 233.583L282.096 174.081Z" fill="#D6D2CD"/>
<path d="M282.1 174.082L332.781 145.577L332.781 204.138L281.761 234.398L282.1 174.082Z" fill="#C1BDB9"/>
<path d="M214.121 156.958L263.772 185.622L214.121 214.285L164.471 185.622L214.121 156.958Z" fill="#FF8E5E"/>
<path d="M214.123 213.457L165.114 185.664L165.114 242.214L214.448 271.475L214.123 213.457Z" fill="#F2723C"/>
<path d="M214.127 213.458L263.544 185.664L263.544 242.764L213.797 272.269L214.127 213.458Z" fill="#DF561C"/>
</svg>
