<svg width="702" height="697" viewBox="0 0 702 697" fill="none" xmlns="http://www.w3.org/2000/svg">
<path d="M197.535 70.1223L246.793 98.5588L197.535 126.995L148.277 98.5588L197.535 70.1223Z" fill="#E7E5E3"/>
<path d="M197.539 126.174L148.917 98.6006L148.917 154.703L197.862 183.733L197.539 126.174Z" fill="#D6D2CD"/>
<path d="M197.541 126.175L246.567 98.6009L246.567 155.249L197.214 184.521L197.541 126.175Z" fill="#C1BDB9"/>
<path d="M280.537 256L329.795 284.437L280.537 312.873L231.279 284.437L280.537 256Z" fill="#E7E5E3"/>
<path d="M280.537 312.052L231.915 284.478L231.915 340.581L280.86 369.61L280.537 312.052Z" fill="#D6D2CD"/>
<path d="M280.537 312.053L329.563 284.479L329.563 341.127L280.21 370.399L280.537 312.053Z" fill="#C1BDB9"/>
<path d="M488.285 445.297L537.543 473.733L488.285 502.17L439.027 473.733L488.285 445.297Z" fill="#E7E5E3"/>
<path d="M488.287 501.349L439.665 473.775L439.665 529.878L488.61 558.907L488.287 501.349Z" fill="#D6D2CD"/>
<path d="M488.281 501.35L537.307 473.776L537.307 530.424L487.954 559.696L488.281 501.35Z" fill="#C1BDB9"/>
<path d="M461.703 0L510.961 28.4365L461.703 56.873L412.445 28.4365L461.703 0Z" fill="#E7E5E3"/>
<path d="M461.701 56.0522L413.08 28.4784L413.08 84.581L462.024 113.61L461.701 56.0522Z" fill="#D6D2CD"/>
<path d="M461.703 56.0532L510.729 28.4787L510.729 85.1271L461.376 114.399L461.703 56.0532Z" fill="#C1BDB9"/>
<path d="M562.686 341.358L611.943 369.794L562.686 398.231L513.428 369.794L562.686 341.358Z" fill="#E7E5E3"/>
<path d="M562.686 397.41L514.064 369.836L514.064 425.939L563.008 454.968L562.686 397.41Z" fill="#D6D2CD"/>
<path d="M562.688 397.411L611.713 369.837L611.713 426.485L562.36 455.757L562.688 397.411Z" fill="#C1BDB9"/>
<path d="M358.092 504.378L407.35 532.814L358.092 561.251L308.834 532.814L358.092 504.378Z" fill="#E7E5E3"/>
<path d="M358.09 560.43L309.468 532.856L309.468 588.959L358.413 617.988L358.09 560.43Z" fill="#D6D2CD"/>
<path d="M358.094 560.431L407.12 532.857L407.12 589.505L357.767 618.777L358.094 560.431Z" fill="#C1BDB9"/>
<path d="M162.242 331.51L211.5 359.947L162.242 388.383L112.984 359.947L162.242 331.51Z" fill="#E7E5E3"/>
<path d="M162.24 387.563L113.619 359.989L113.619 416.091L162.563 445.121L162.24 387.563Z" fill="#D6D2CD"/>
<path d="M162.24 387.564L211.266 359.989L211.266 416.637L161.913 445.909L162.24 387.564Z" fill="#C1BDB9"/>
<path d="M245.395 452.955L294.652 481.392L245.395 509.828L196.137 481.392L245.395 452.955Z" fill="#E7E5E3"/>
<path d="M245.398 509.007L196.777 481.434L196.777 537.536L245.721 566.566L245.398 509.007Z" fill="#D6D2CD"/>
<path d="M245.4 509.008L294.426 481.434L294.426 538.082L245.073 567.354L245.4 509.008Z" fill="#C1BDB9"/>
<path d="M323.076 12.0338L372.334 40.4703L323.076 68.9068L273.818 40.4703L323.076 12.0338Z" fill="#E7E5E3"/>
<path d="M323.078 68.0861L274.457 40.5123L274.457 96.6149L323.401 125.644L323.078 68.0861Z" fill="#D6D2CD"/>
<path d="M323.082 68.0872L372.108 40.5127L372.108 97.161L322.755 126.433L323.082 68.0872Z" fill="#C1BDB9"/>
<path d="M323.074 152.179L372.332 180.615L323.074 209.052L273.816 180.615L323.074 152.179Z" fill="#E7E5E3"/>
<path d="M323.078 208.231L274.457 180.657L274.457 236.76L323.401 265.789L323.078 208.231Z" fill="#D6D2CD"/>
<path d="M323.08 208.232L372.106 180.658L372.106 237.306L322.753 266.578L323.08 208.232Z" fill="#C1BDB9"/>
<path d="M627.238 178.337L676.496 206.773L627.238 235.21L577.981 206.773L627.238 178.337Z" fill="#E7E5E3"/>
<path d="M627.238 234.389L578.617 206.815L578.617 262.918L627.561 291.947L627.238 234.389Z" fill="#D6D2CD"/>
<path d="M627.24 234.39L676.266 206.816L676.266 263.464L626.913 292.736L627.24 234.39Z" fill="#C1BDB9"/>
<path d="M587.236 82.0568L636.494 110.493L587.236 138.93L537.979 110.493L587.236 82.0568Z" fill="#E7E5E3"/>
<path d="M587.236 138.109L538.615 110.535L538.615 166.638L587.559 195.667L587.236 138.109Z" fill="#D6D2CD"/>
<path d="M587.238 138.11L636.264 110.536L636.264 167.184L586.911 196.456L587.238 138.11Z" fill="#C1BDB9"/>
<path d="M440.146 78.7738L489.404 107.21L440.146 135.647L390.889 107.21L440.146 78.7738Z" fill="#E7E5E3"/>
<path d="M440.146 134.826L391.525 107.252L391.525 163.355L440.469 192.384L440.146 134.826Z" fill="#D6D2CD"/>
<path d="M440.15 134.827L489.176 107.253L489.176 163.901L439.823 193.173L440.15 134.827Z" fill="#C1BDB9"/>
<path d="M350.615 284.291L399.873 312.727L350.615 341.164L301.357 312.727L350.615 284.291Z" fill="#E7E5E3"/>
<path d="M350.611 340.341L301.99 312.767L301.99 368.87L350.934 397.899L350.611 340.341Z" fill="#D6D2CD"/>
<path d="M350.547 340.344L399.573 312.769L399.573 369.418L350.22 398.689L350.547 340.344Z" fill="#C1BDB9"/>
<path d="M73.6172 235.23L122.875 263.666L73.6172 292.103L24.3594 263.666L73.6172 235.23Z" fill="#E7E5E3"/>
<path d="M73.5371 291.271L24.9155 263.697L24.9155 319.8L73.8599 348.829L73.5371 291.271Z" fill="#D6D2CD"/>
<path d="M73.6211 291.283L122.647 263.709L122.647 320.357L73.2939 349.629L73.6211 291.283Z" fill="#C1BDB9"/>
<path d="M360.279 370.898L409.537 399.335L360.279 427.771L311.022 399.335L360.279 370.898Z" fill="#E7E5E3"/>
<path d="M360.279 426.95L311.658 399.376L311.658 455.479L360.602 484.508L360.279 426.95Z" fill="#D6D2CD"/>
<path d="M360.281 426.951L409.307 399.377L409.307 456.025L359.954 485.297L360.281 426.951Z" fill="#C1BDB9"/>
<path d="M394.191 567.836L443.449 596.272L394.191 624.709L344.934 596.272L394.191 567.836Z" fill="#E7E5E3"/>
<path d="M394.193 623.888L345.572 596.314L345.572 652.417L394.516 681.446L394.193 623.888Z" fill="#D6D2CD"/>
<path d="M394.197 623.889L443.223 596.314L443.223 652.963L393.87 682.234L394.197 623.889Z" fill="#C1BDB9"/>
<path d="M123.572 395.759L172.83 424.195L123.572 452.632L74.3145 424.195L123.572 395.759Z" fill="#E7E5E3"/>
<path d="M123.572 451.811L74.9506 424.237L74.9507 480.34L123.895 509.369L123.572 451.811Z" fill="#D6D2CD"/>
<path d="M123.574 451.812L172.6 424.238L172.6 480.886L123.247 510.158L123.574 451.812Z" fill="#C1BDB9"/>
<path d="M456.559 256.018L505.816 284.454L456.559 312.891L407.301 284.454L456.559 256.018Z" fill="#FF8E5E"/>
<path d="M456.559 312.07L407.937 284.496L407.937 340.599L456.881 369.628L456.559 312.07Z" fill="#F2723C"/>
<path d="M456.562 312.071L505.588 284.497L505.588 341.145L456.235 370.417L456.562 312.071Z" fill="#DF561C"/>
</svg>
