<svg width="259" height="210" viewBox="0 0 259 210" fill="none" xmlns="http://www.w3.org/2000/svg">
<path d="M83.448 0.519989C34.0123 0.519989 0.0799999 45.27 0.0799999 105.2H2.08C2.08 45.898 35.5397 2.51999 83.448 2.51999V0.519989ZM0.0799999 105.2C0.0799999 133.019 7.75754 159.16 22.0211 178.372C36.301 197.606 57.1783 209.88 83.448 209.88V207.88C57.8777 207.88 37.571 195.962 23.6269 177.18C9.66646 158.376 2.08 132.677 2.08 105.2H0.0799999ZM83.448 209.88C132.884 209.88 166.816 165.13 166.816 105.2H164.816C164.816 164.502 131.356 207.88 83.448 207.88V209.88ZM166.816 105.2C166.816 77.3805 159.138 51.24 144.875 32.0279C130.595 12.7937 109.718 0.519989 83.448 0.519989V2.51999C109.018 2.51999 129.325 14.4383 143.269 33.2201C157.23 52.024 164.816 77.7235 164.816 105.2H166.816ZM83.448 172.744C71.4214 172.744 60.4816 166.954 52.5137 155.636C44.5303 144.297 39.52 127.382 39.52 105.2H37.52C37.52 127.658 42.5897 145.015 50.8783 156.788C59.1824 168.582 70.7066 174.744 83.448 174.744V172.744ZM39.52 105.2C39.52 83.0179 44.5303 66.1029 52.5137 54.7637C60.4816 43.4464 71.4214 37.656 83.448 37.656V35.656C70.7066 35.656 59.1824 41.8176 50.8783 53.6123C42.5897 65.3851 37.52 82.7421 37.52 105.2H39.52ZM83.448 37.656C95.4746 37.656 106.414 43.4464 114.382 54.7637C122.366 66.1029 127.376 83.0179 127.376 105.2H129.376C129.376 82.7421 124.306 65.3851 116.018 53.6123C107.714 41.8176 96.1894 35.656 83.448 35.656V37.656ZM127.376 105.2C127.376 127.382 122.366 144.297 114.382 155.636C106.414 166.954 95.4746 172.744 83.448 172.744V174.744C96.1894 174.744 107.714 168.582 116.018 156.788C124.306 145.015 129.376 127.658 129.376 105.2H127.376ZM257.031 4.39999H258.031V3.39999H257.031V4.39999ZM227.655 4.39999V3.39999H227.415L227.2 3.50934L227.655 4.39999ZM172.935 32.336L172.48 31.4453L171.935 31.7237V32.336H172.935ZM172.935 69.776H171.935V71.4028L173.387 70.6683L172.935 69.776ZM220.743 45.584H221.743V43.9572L220.292 44.6917L220.743 45.584ZM220.743 206H219.743V207H220.743V206ZM257.031 206V207H258.031V206H257.031ZM257.031 3.39999H227.655V5.39999H257.031V3.39999ZM227.2 3.50934L172.48 31.4453L173.39 33.2266L228.11 5.29063L227.2 3.50934ZM171.935 32.336V69.776H173.935V32.336H171.935ZM173.387 70.6683L221.195 46.4763L220.292 44.6917L172.483 68.8837L173.387 70.6683ZM219.743 45.584V206H221.743V45.584H219.743ZM220.743 207H257.031V205H220.743V207ZM258.031 206V4.39999H256.031V206H258.031Z" fill="#FF8E5E" fill-opacity="0.5"/>
</svg>
