<svg width="320" height="210" viewBox="0 0 320 210" fill="none" xmlns="http://www.w3.org/2000/svg">
<path d="M83.448 0.519989C34.0123 0.519989 0.0799999 45.27 0.0799999 105.2H2.08C2.08 45.898 35.5397 2.51999 83.448 2.51999V0.519989ZM0.0799999 105.2C0.0799999 133.019 7.75754 159.16 22.0211 178.372C36.301 197.606 57.1783 209.88 83.448 209.88V207.88C57.8777 207.88 37.571 195.962 23.6269 177.18C9.66646 158.376 2.08 132.677 2.08 105.2H0.0799999ZM83.448 209.88C132.884 209.88 166.816 165.13 166.816 105.2H164.816C164.816 164.502 131.356 207.88 83.448 207.88V209.88ZM166.816 105.2C166.816 77.3805 159.138 51.24 144.875 32.0279C130.595 12.7937 109.718 0.519989 83.448 0.519989V2.51999C109.018 2.51999 129.325 14.4383 143.269 33.2201C157.23 52.024 164.816 77.7235 164.816 105.2H166.816ZM83.448 172.744C71.4214 172.744 60.4816 166.954 52.5137 155.636C44.5303 144.297 39.52 127.382 39.52 105.2H37.52C37.52 127.658 42.5897 145.015 50.8783 156.788C59.1824 168.582 70.7066 174.744 83.448 174.744V172.744ZM39.52 105.2C39.52 83.0179 44.5303 66.1029 52.5137 54.7637C60.4816 43.4464 71.4214 37.656 83.448 37.656V35.656C70.7066 35.656 59.1824 41.8176 50.8783 53.6123C42.5897 65.3851 37.52 82.7421 37.52 105.2H39.52ZM83.448 37.656C95.4746 37.656 106.414 43.4464 114.382 54.7637C122.366 66.1029 127.376 83.0179 127.376 105.2H129.376C129.376 82.7421 124.306 65.3851 116.018 53.6123C107.714 41.8176 96.1894 35.656 83.448 35.656V37.656ZM127.376 105.2C127.376 127.382 122.366 144.297 114.382 155.636C106.414 166.954 95.4746 172.744 83.448 172.744V174.744C96.1894 174.744 107.714 168.582 116.018 156.788C124.306 145.015 129.376 127.658 129.376 105.2H127.376ZM230.501 171.44H229.501V172.44H230.501V171.44ZM230.501 170.864L229.85 170.105L229.501 170.404V170.864H230.501ZM282.917 124.208L283.586 124.952L283.59 124.948L282.917 124.208ZM182.405 68.048H181.405V69.048H182.405V68.048ZM218.693 68.048V69.048H219.693V68.048H218.693ZM248.069 111.248L248.723 112.005L248.725 112.003L248.069 111.248ZM181.541 170.288L180.868 169.549L180.541 169.846V170.288H181.541ZM181.541 206H180.541V207H181.541V206ZM318.917 206V207H319.917V206H318.917ZM318.917 171.44H319.917V170.44H318.917V171.44ZM231.501 171.44V170.864H229.501V171.44H231.501ZM231.152 171.623C247.292 157.789 257.961 147.985 283.586 124.952L282.249 123.464C256.609 146.511 245.967 156.291 229.85 170.105L231.152 171.623ZM283.59 124.948C302.576 107.688 318.765 91.5763 318.765 65.168H316.765C316.765 90.5997 301.275 106.168 282.245 123.468L283.59 124.948ZM318.765 65.168C318.765 26.8127 289.439 1.096 250.661 1.096V3.096C288.491 3.096 316.765 28.0673 316.765 65.168H318.765ZM250.661 1.096C211.281 1.096 181.405 27.989 181.405 68.048H183.405C183.405 29.195 212.281 3.096 250.661 3.096V1.096ZM182.405 69.048H218.693V67.048H182.405V69.048ZM219.693 68.048C219.693 49.898 233.34 37.08 250.661 37.08V35.08C232.271 35.08 217.693 48.7579 217.693 68.048H219.693ZM250.661 37.08C267.473 37.08 280.765 48.8084 280.765 65.168H282.765C282.765 47.5436 268.41 35.08 250.661 35.08V37.08ZM280.765 65.168C280.765 73.7668 276.89 81.2486 270.741 88.5351C264.576 95.8404 256.229 102.834 247.413 110.493L248.725 112.003C257.478 104.398 265.978 97.2796 272.27 89.8249C278.576 82.3514 282.765 74.4251 282.765 65.168H280.765ZM247.415 110.491C230.417 125.185 213.781 139.949 201.394 151.039C195.201 156.584 190.07 161.211 186.486 164.452C184.695 166.073 183.29 167.347 182.334 168.216C181.855 168.65 181.489 168.983 181.242 169.208C181.119 169.32 181.025 169.406 180.962 169.463C180.931 169.491 180.907 169.513 180.891 169.527C180.884 169.534 180.878 169.54 180.874 169.543C180.872 169.545 180.87 169.547 180.869 169.548C180.869 169.548 180.868 169.548 180.868 169.549C180.868 169.549 180.868 169.549 181.541 170.288C182.215 171.027 182.215 171.027 182.215 171.027C182.215 171.027 182.216 171.026 182.216 171.026C182.217 171.025 182.219 171.023 182.221 171.022C182.225 171.018 182.231 171.013 182.238 171.006C182.254 170.991 182.278 170.97 182.309 170.941C182.371 170.884 182.465 170.799 182.588 170.687C182.834 170.463 183.2 170.13 183.678 169.696C184.634 168.828 186.038 167.555 187.828 165.936C191.409 162.697 196.538 158.072 202.728 152.529C215.11 141.443 231.737 126.687 248.723 112.005L247.415 110.491ZM180.541 170.288V206H182.541V170.288H180.541ZM181.541 207H318.917V205H181.541V207ZM319.917 206V171.44H317.917V206H319.917ZM318.917 170.44H230.501V172.44H318.917V170.44Z" fill="#FF8E5E" fill-opacity="0.5"/>
</svg>
