<svg width="322" height="210" viewBox="0 0 322 210" fill="none" xmlns="http://www.w3.org/2000/svg">
<path d="M83.448 0.519989C34.0123 0.519989 0.0799999 45.27 0.0799999 105.2H2.08C2.08 45.898 35.5397 2.51999 83.448 2.51999V0.519989ZM0.0799999 105.2C0.0799999 133.019 7.75754 159.16 22.0211 178.372C36.301 197.606 57.1783 209.88 83.448 209.88V207.88C57.8777 207.88 37.571 195.962 23.6269 177.18C9.66646 158.376 2.08 132.677 2.08 105.2H0.0799999ZM83.448 209.88C132.884 209.88 166.816 165.13 166.816 105.2H164.816C164.816 164.502 131.356 207.88 83.448 207.88V209.88ZM166.816 105.2C166.816 77.3805 159.138 51.24 144.875 32.0279C130.595 12.7937 109.718 0.519989 83.448 0.519989V2.51999C109.018 2.51999 129.325 14.4383 143.269 33.2201C157.23 52.024 164.816 77.7235 164.816 105.2H166.816ZM83.448 172.744C71.4214 172.744 60.4816 166.954 52.5137 155.636C44.5303 144.297 39.52 127.382 39.52 105.2H37.52C37.52 127.658 42.5897 145.015 50.8783 156.788C59.1824 168.582 70.7066 174.744 83.448 174.744V172.744ZM39.52 105.2C39.52 83.0179 44.5303 66.1029 52.5137 54.7637C60.4816 43.4464 71.4214 37.656 83.448 37.656V35.656C70.7066 35.656 59.1824 41.8176 50.8783 53.6123C42.5897 65.3851 37.52 82.7421 37.52 105.2H39.52ZM83.448 37.656C95.4746 37.656 106.414 43.4464 114.382 54.7637C122.366 66.1029 127.376 83.0179 127.376 105.2H129.376C129.376 82.7421 124.306 65.3851 116.018 53.6123C107.714 41.8176 96.1894 35.656 83.448 35.656V37.656ZM127.376 105.2C127.376 127.382 122.366 144.297 114.382 155.636C106.414 166.954 95.4746 172.744 83.448 172.744V174.744C96.1894 174.744 107.714 168.582 116.018 156.788C124.306 145.015 129.376 127.658 129.376 105.2H127.376ZM213.221 89.36L212.491 88.6765L211.884 89.3252L212.457 90.0047L213.221 89.36ZM233.381 113.264L232.617 113.909L233.226 114.631L233.981 114.064L233.381 113.264ZM217.541 144.368L218.533 144.237L218.407 143.284L217.449 143.372L217.541 144.368ZM180.101 147.824L180.009 146.828L178.994 146.922L179.107 147.935L180.101 147.824ZM264.197 82.448H263.197V83.448H264.197V82.448ZM264.197 81.872L263.482 81.1727L263.197 81.4642V81.872H264.197ZM316.037 28.88L316.752 29.5793L317.037 29.2878V28.88H316.037ZM316.037 4.39999H317.037V3.39999H316.037V4.39999ZM186.437 4.39999V3.39999H185.437V4.39999H186.437ZM186.437 38.96H185.437V39.96H186.437V38.96ZM259.877 38.96H260.877V37.96H259.877V38.96ZM259.877 39.536L260.607 40.2195L260.877 39.9311V39.536H259.877ZM212.457 90.0047L232.617 113.909L234.146 112.619L213.986 88.7153L212.457 90.0047ZM233.981 114.064C237.268 111.599 242.819 109.08 250.661 109.08V107.08C242.376 107.08 236.406 109.745 232.781 112.464L233.981 114.064ZM250.661 109.08C271.043 109.08 282.493 124.666 282.493 141.2H284.493C284.493 123.75 272.328 107.08 250.661 107.08V109.08ZM282.493 141.2C282.493 149.468 279.62 157.354 274.228 163.164C268.847 168.961 260.91 172.744 250.661 172.744V174.744C261.436 174.744 269.915 170.751 275.694 164.524C281.462 158.31 284.493 149.924 284.493 141.2H282.493ZM250.661 172.744C240.539 172.744 233.023 169.308 227.788 164.073C222.538 158.822 219.518 151.696 218.533 144.237L216.55 144.499C217.581 152.304 220.753 159.866 226.374 165.487C232.011 171.124 240.048 174.744 250.661 174.744V172.744ZM217.449 143.372L180.009 146.828L180.193 148.82L217.633 145.364L217.449 143.372ZM179.107 147.935C183.199 184.466 212.737 209.88 250.085 209.88V207.88C213.705 207.88 185.068 183.182 181.095 147.713L179.107 147.935ZM250.085 209.88C271.625 209.88 289.597 202.672 302.19 190.445C314.784 178.218 321.933 161.032 321.933 141.2H319.933C319.933 160.536 312.971 177.19 300.797 189.011C288.621 200.832 271.17 207.88 250.085 207.88V209.88ZM321.933 141.2C321.933 105.467 291.776 81.448 264.197 81.448V83.448C290.763 83.448 319.933 106.661 319.933 141.2H321.933ZM265.197 82.448V81.872H263.197V82.448H265.197ZM264.912 82.5713L316.752 29.5793L315.322 28.1807L263.482 81.1727L264.912 82.5713ZM317.037 28.88V4.39999H315.037V28.88H317.037ZM316.037 3.39999H186.437V5.39999H316.037V3.39999ZM185.437 4.39999V38.96H187.437V4.39999H185.437ZM186.437 39.96H259.877V37.96H186.437V39.96ZM258.877 38.96V39.536H260.877V38.96H258.877ZM259.147 38.8525L212.491 88.6765L213.951 90.0435L260.607 40.2195L259.147 38.8525Z" fill="#FF8E5E" fill-opacity="0.5"/>
</svg>
