<svg width="17" height="14" viewBox="0 0 17 14" fill="none" xmlns="http://www.w3.org/2000/svg">
<path opacity="0.5" fill-rule="evenodd" clip-rule="evenodd" d="M14.8918 4.12066C14.8976 4.26158 14.9009 4.40333 14.9009 4.54591C14.9009 8.88294 11.5995 13.8831 5.56194 13.8831C3.70807 13.8831 1.98271 13.3402 0.529297 12.4093C0.786318 12.4391 1.04749 12.4549 1.3128 12.4549C2.85078 12.4549 4.26606 11.9301 5.38949 11.0498C3.95266 11.0233 2.74051 10.0741 2.32347 8.77021C2.52329 8.80917 2.7289 8.82989 2.94032 8.82989C3.23963 8.82989 3.52982 8.78927 3.80508 8.71467C2.30357 8.41293 1.17268 7.08662 1.17268 5.49671C1.17268 5.48262 1.17268 5.46853 1.17268 5.45526C1.61542 5.70063 2.12117 5.84818 2.65926 5.86559C1.77875 5.27704 1.19921 4.27236 1.19921 3.13422C1.19921 2.53241 1.36089 1.96873 1.64361 1.4838C3.26284 3.46911 5.68133 4.77636 8.40908 4.91313C8.35353 4.67274 8.32451 4.4224 8.32451 4.1646C8.32451 2.35253 9.79368 0.882812 11.6069 0.882812C12.5513 0.882812 13.4044 1.28153 14.003 1.91982C14.7509 1.77227 15.4531 1.49955 16.0874 1.12321C15.8428 1.88915 15.3221 2.53241 14.6439 2.93859C15.308 2.85984 15.9406 2.68328 16.5293 2.42216C16.089 3.08034 15.5327 3.65811 14.8918 4.12066Z" fill="#959595"/>
</svg>
