<svg width="238" height="51" viewBox="0 0 238 51" fill="none" xmlns="http://www.w3.org/2000/svg">
<path d="M76.6646 31.097V12.1577H73.2915V20.0326H64.0778V12.1577H60.6916V31.097H64.0778V22.8807H73.2915V31.097H76.6646Z" fill="white"/>
<path d="M86.0358 31.307C90.2883 31.307 92.9527 28.4982 92.9527 23.9176C92.9527 19.3764 90.2621 16.5545 86.0358 16.5545C81.8359 16.5545 79.1321 19.3895 79.1321 23.9176C79.1321 28.4982 81.8096 31.307 86.0358 31.307ZM86.0358 28.6951C83.8046 28.6951 82.4527 26.9363 82.4527 23.9307C82.4527 20.9383 83.8046 19.1664 86.0358 19.1664C88.2802 19.1664 89.6321 20.9251 89.6321 23.9307C89.6321 26.9363 88.2933 28.6951 86.0358 28.6951Z" fill="white"/>
<path d="M96.0633 13.5489V16.7514H94.1077V19.2845H96.0633V27.2907C96.0633 30.0601 97.2708 31.1626 100.316 31.1626C101.011 31.1626 101.681 31.1101 102.035 31.0313V28.5245C101.825 28.5507 101.379 28.5901 101.064 28.5901C99.8827 28.5901 99.3314 28.0257 99.3314 26.8445V19.2845H102.048V16.7514H99.3314V13.5489H96.0633Z" fill="white"/>
<path d="M104.109 20.8989C104.109 22.9332 105.448 24.2851 108.073 24.902L110.671 25.532C112.102 25.8732 112.627 26.3195 112.627 27.1595C112.627 28.2226 111.59 28.892 109.923 28.892C108.217 28.892 107.154 28.1701 106.957 26.8707H103.741C103.951 29.5351 106.274 31.307 109.792 31.307C113.388 31.307 115.882 29.5088 115.882 26.8445C115.882 24.7314 114.779 23.642 111.892 22.9726L109.372 22.3951C107.954 22.067 107.285 21.5158 107.285 20.7151C107.285 19.6651 108.283 18.9695 109.805 18.9695C111.367 18.9695 112.404 19.7308 112.509 20.9383H115.554C115.488 18.3395 113.178 16.5545 109.871 16.5545C106.419 16.5545 104.109 18.3001 104.109 20.8989Z" fill="white"/>
<path d="M125.844 16.5939C123.836 16.5939 122.103 17.5914 121.316 19.1664H121.25V16.7514H118.061V35.7038H121.329V28.7213H121.394C122.221 30.3226 123.836 31.2545 125.896 31.2545C129.506 31.2545 131.816 28.4195 131.816 23.9307C131.816 19.4289 129.493 16.5939 125.844 16.5939ZM124.886 28.5376C122.746 28.5376 121.316 26.7001 121.316 23.9307C121.316 21.1745 122.746 19.3108 124.886 19.3108C127.051 19.3108 128.469 21.1351 128.469 23.9307C128.469 26.7395 127.051 28.5376 124.886 28.5376Z" fill="white"/>
<path d="M140.321 31.307C144.573 31.307 147.237 28.4982 147.237 23.9176C147.237 19.3764 144.547 16.5545 140.321 16.5545C136.121 16.5545 133.417 19.3895 133.417 23.9176C133.417 28.4982 136.094 31.307 140.321 31.307ZM140.321 28.6951C138.089 28.6951 136.737 26.9363 136.737 23.9307C136.737 20.9383 138.089 19.1664 140.321 19.1664C142.565 19.1664 143.917 20.9251 143.917 23.9307C143.917 26.9363 142.578 28.6951 140.321 28.6951Z" fill="white"/>
<path d="M150.348 13.5489V16.7514H148.392V19.2845H150.348V27.2907C150.348 30.0601 151.556 31.1626 154.601 31.1626C155.296 31.1626 155.966 31.1101 156.32 31.0313V28.5245C156.11 28.5507 155.664 28.5901 155.349 28.5901C154.167 28.5901 153.616 28.0257 153.616 26.8445V19.2845H156.333V16.7514H153.616V13.5489H150.348Z" fill="white"/>
<path d="M164.155 25.7682C164.3 29.2595 167.161 31.412 171.519 31.412C176.099 31.412 178.987 29.1545 178.987 25.5582C178.987 22.7364 177.359 21.1483 173.514 20.2689L171.335 19.7701C169.012 19.2189 168.054 18.4839 168.054 17.2239C168.054 15.6489 169.497 14.5989 171.637 14.5989C173.802 14.5989 175.285 15.662 175.443 17.4339H178.672C178.593 14.1002 175.837 11.8427 171.663 11.8427C167.542 11.8427 164.615 14.1133 164.615 17.4733C164.615 20.177 166.269 21.857 169.76 22.6576L172.214 23.2351C174.603 23.7995 175.574 24.587 175.574 25.952C175.574 27.527 173.986 28.6557 171.702 28.6557C169.392 28.6557 167.647 27.5138 167.437 25.7682H164.155Z" fill="white"/>
<path d="M181.375 31.097H184.644V22.9201C184.644 20.7808 186.048 19.3501 188.095 19.3501C190.077 19.3501 191.272 20.5708 191.272 22.592V31.097H194.54V21.9357C194.54 18.6676 192.492 16.5808 189.329 16.5808C187.137 16.5808 185.51 17.4995 184.67 19.2451H184.604V11.2783H181.375V31.097Z" fill="white"/>
<path d="M197.348 31.097H200.617V16.7514H197.348V31.097ZM198.976 14.927C200 14.927 200.813 14.1395 200.813 13.1289C200.813 12.1052 200 11.3308 198.976 11.3308C197.965 11.3308 197.138 12.1052 197.138 13.1289C197.138 14.1395 197.965 14.927 198.976 14.927Z" fill="white"/>
<path d="M209.647 19.1008C211.589 19.1008 212.928 20.4658 212.993 22.5395H206.195C206.339 20.492 207.73 19.1008 209.647 19.1008ZM213.006 26.8314C212.626 28.0126 211.405 28.7607 209.83 28.7607C207.638 28.7607 206.168 27.2251 206.168 24.9151V24.7182H216.209V23.642C216.209 19.2976 213.663 16.5545 209.647 16.5545C205.538 16.5545 202.9 19.4683 202.9 23.9832C202.9 28.4982 205.525 31.307 209.765 31.307C213.112 31.307 215.658 29.4826 216.078 26.8314H213.006Z" fill="white"/>
<path d="M218.519 31.097H221.787V11.2783H218.519V31.097Z" fill="white"/>
<path d="M230.056 31.2545C232.156 31.2545 233.81 30.257 234.584 28.6557H234.65V31.097H237.852V11.2783H234.584V19.1664H234.505C233.731 17.5783 232.116 16.5939 230.043 16.5939C226.486 16.5939 224.084 19.4683 224.084 23.9176C224.084 28.3801 226.473 31.2545 230.056 31.2545ZM231.014 19.3108C233.166 19.3108 234.597 21.1614 234.597 23.9307C234.597 26.7132 233.18 28.5376 231.014 28.5376C228.848 28.5376 227.431 26.7526 227.431 23.9307C227.431 21.122 228.848 19.3108 231.014 19.3108Z" fill="white"/>
<path fill-rule="evenodd" clip-rule="evenodd" d="M21.9401 50.0974C21.731 50.0189 0.984375 43.2411 0.984375 19.1276V1.50663C0.984375 1.08221 1.32391 0.737305 1.74249 0.737305H42.6682C43.0868 0.737305 43.4263 1.08221 43.4263 1.50663V19.1276C43.4263 43.2411 22.6796 50.0173 22.4706 50.0974C22.3857 50.1296 22.2961 50.1468 22.2053 50.1468C22.1146 50.1468 22.025 50.1296 21.9401 50.0974ZM31.4536 31.4431C30.5401 32.0717 29.5363 32.5681 28.4705 32.9189C25.4879 33.9004 22.3063 33.6469 19.5115 32.2049C16.8292 30.821 14.7957 28.4802 13.7867 25.614C13.7394 25.4792 13.601 25.4018 13.4636 25.4324C13.3262 25.4631 13.2323 25.5915 13.245 25.7333C13.4137 27.6663 14.1007 29.5214 15.2329 31.0993C18.6754 35.8979 25.3319 36.9654 30.0706 33.4792C30.7125 33.007 31.3014 32.4633 31.8208 31.8637C31.9136 31.7568 31.9136 31.5967 31.8202 31.4898C31.7269 31.3829 31.5704 31.363 31.4536 31.4431ZM23.1529 10.3038C29.1351 12.2723 32.5623 18.8444 30.7924 24.9539C30.7527 25.0903 30.8195 25.2359 30.9484 25.2929C31.0418 25.3342 31.1468 25.3203 31.2248 25.2622C31.2545 25.2408 31.2805 25.2128 31.3002 25.179C32.2853 23.5151 32.8063 21.6047 32.8058 19.6551C32.8063 16.7867 31.6996 14.086 29.6916 12.052C27.683 10.018 25.0166 8.89788 22.1831 8.89788C21.3878 8.89842 20.5958 8.9876 19.8292 9.16328C19.6928 9.19498 19.5995 9.32445 19.6127 9.46629C19.626 9.60812 19.7416 9.71771 19.8822 9.72255C20.9873 9.75801 22.0876 9.95303 23.1529 10.3038ZM9.48469 20.7586C9.85924 19.7061 10.3834 18.7063 11.0418 17.7876C11.775 16.7663 12.6509 15.8772 13.6456 15.1449C15.1459 14.0414 16.8473 13.3312 18.7036 13.033C21.6777 12.556 24.6816 13.2399 27.1618 14.958C27.261 15.0267 27.3899 15.0224 27.4838 14.9537C27.4997 14.9418 27.5146 14.9279 27.5283 14.9123C27.6217 14.8059 27.6228 14.6458 27.5305 14.5384C26.2721 13.0749 24.6386 11.9833 22.8072 11.381C17.2378 9.54795 11.2322 12.6457 9.42209 18.2872C9.17699 19.0507 9.01571 19.8415 8.94356 20.6366C8.9303 20.7784 9.02367 20.9079 9.16108 20.9391C9.29901 20.9697 9.43748 20.8918 9.48469 20.7586ZM14.3281 31.7648C10.6309 26.6116 11.6734 19.2546 16.6513 15.3655C16.7627 15.2785 16.7929 15.1211 16.7218 14.998C16.6507 14.875 16.5001 14.825 16.3712 14.8809C14.6119 15.639 13.0755 16.8795 11.9466 18.4536C8.50402 23.2522 9.55817 29.993 14.2968 33.4791C14.9398 33.9519 15.6321 34.3511 16.3547 34.6659C16.4481 34.7062 16.5515 34.6917 16.6295 34.6347C16.6598 34.6122 16.6858 34.5837 16.7059 34.5493C16.7775 34.4263 16.7473 34.2689 16.6364 34.1818C15.7632 33.4958 14.9865 32.6824 14.3281 31.7648Z" fill="white"/>
</svg>
