<svg width="16" height="15" viewBox="0 0 16 15" fill="none" xmlns="http://www.w3.org/2000/svg">
<path opacity="0.5" fill-rule="evenodd" clip-rule="evenodd" d="M0.353516 2.55587C0.353516 1.6374 1.06257 0.941406 2.14637 0.941406C3.22935 0.941406 3.89514 1.63577 3.91636 2.55342C3.91636 3.45475 3.22935 4.1683 2.12596 4.1683H2.10473C1.04257 4.1683 0.353516 3.4572 0.353516 2.55587ZM11.6874 5.24189C10.006 5.24189 8.95243 6.1526 8.75772 6.79104V5.33128H5.46062C5.50307 6.10647 5.46062 14.6311 5.46062 14.6311H8.75772V9.5987C8.75772 9.56572 8.75754 9.53273 8.75736 9.49988V9.49975C8.756 9.25412 8.75468 9.01573 8.82956 8.83861C9.05612 8.27937 9.54311 7.6993 10.4187 7.6993C11.5637 7.6993 12.0842 8.55899 12.0842 9.81872V14.6311H15.4123V9.46032C15.4123 6.57959 13.7734 5.24189 11.6874 5.24189ZM0.73315 5.33128H3.66817V14.6311H0.73315V5.33128Z" fill="#959595"/>
</svg>
