<svg width="17" height="14" viewBox="0 0 17 14" fill="none" xmlns="http://www.w3.org/2000/svg">
<path opacity="0.5" d="M15.1171 12.6307L16.3255 13.7884V13.8269H10.1959V13.7884L11.4262 12.6307C11.5574 12.5235 11.6202 12.3533 11.5902 12.1862V4.78413C11.5902 4.47137 11.5902 4.04886 11.6449 3.68671L7.5111 13.975H7.46188L3.18046 4.50978C3.0875 4.27383 3.06016 4.25737 3.00002 4.09825V10.3041C2.94876 10.7195 3.01905 11.1408 3.20233 11.5168L4.92474 13.7884V13.8269H0.353516V13.7884L2.07593 11.5113C2.25785 11.1369 2.32811 10.7177 2.27824 10.3041V3.44528C2.30625 3.10757 2.20453 2.77189 1.99391 2.50699L0.77455 0.921222V0.882812H5.14893L8.81248 8.89945L12.0386 0.882812H16.32V0.921222L15.1171 2.26556C14.9729 2.37131 14.9009 2.54988 14.9311 2.72647V12.1862C14.8993 12.3583 14.9723 12.533 15.1171 12.6307Z" fill="#959595"/>
</svg>
