<svg width="16" height="16" viewBox="0 0 16 16" fill="none" xmlns="http://www.w3.org/2000/svg">
<g opacity="0.5">
<path fill-rule="evenodd" clip-rule="evenodd" d="M15.2931 11.5845C15.2931 12.8866 14.8385 14.0188 14.0429 14.8114C13.2474 15.604 12.1109 16.0002 10.8607 16.0002H4.66675C3.41659 16.0002 2.28009 15.604 1.48453 14.8114C0.632152 14.0188 0.234375 12.8866 0.234375 11.5845V5.35716C0.234375 2.753 1.99596 0.941406 4.66675 0.941406H10.9175C12.2245 0.941406 13.3042 1.3943 14.0998 2.18687C14.8953 2.97944 15.2931 4.05508 15.2931 5.35716V11.5845ZM10.6003 2.82376H4.8752C4.04245 2.82376 3.3138 3.08399 2.84538 3.55241C2.37696 4.02083 2.11673 4.74948 2.11673 5.58223V11.3074C2.11673 12.1401 2.37696 12.8688 2.89743 13.3892C3.41789 13.8576 4.0945 14.1179 4.92725 14.1179H10.6003C11.4331 14.1179 12.1617 13.8576 12.6301 13.3892C13.1506 12.9208 13.4108 12.1922 13.4108 11.3594V5.63428C13.4108 4.80153 13.1506 4.12492 12.6822 3.60446C12.1617 3.08399 11.4851 2.82376 10.6003 2.82376Z" fill="#959595"/>
<path fill-rule="evenodd" clip-rule="evenodd" d="M10.5882 4.7068C10.5882 5.23621 11 5.64798 11.5294 5.64798C12.0588 5.64798 12.4706 5.23621 12.4706 4.7068C12.4706 4.17739 12.0588 3.76562 11.5294 3.76562C11 3.76562 10.5882 4.17739 10.5882 4.7068ZM9.64706 8.47151C9.64706 9.5111 8.8043 10.3539 7.76471 10.3539C6.72511 10.3539 5.88235 9.5111 5.88235 8.47151C5.88235 7.43191 6.72511 6.58915 7.76471 6.58915C8.8043 6.58915 9.64706 7.43191 9.64706 8.47151ZM7.73723 12.2362C5.64878 12.2362 4 10.52 4 8.47151C4 6.3677 5.70374 4.7068 7.73723 4.7068C9.77072 4.7068 11.5294 6.3677 11.5294 8.47151C11.5294 10.5753 9.82568 12.2362 7.73723 12.2362Z" fill="#959595"/>
</g>
</svg>
