<svg width="23" height="15" viewBox="0 0 23 15" fill="none" xmlns="http://www.w3.org/2000/svg">
<path opacity="0.5" fill-rule="evenodd" clip-rule="evenodd" d="M11.6669 10.0695C11.6669 9.31462 11.4961 8.67163 11.1542 8.14206C10.8147 7.61063 10.3067 7.22468 9.6372 6.97959C10.0792 6.75445 10.4131 6.50504 10.6391 6.23084C11.0454 5.74178 11.2472 5.0981 11.2472 4.29365C11.2472 3.51403 11.0478 2.8433 10.6454 2.28434C9.97487 1.37295 8.83929 0.90887 7.23751 0.882812H0.882812V14.0411H6.80878C7.47562 14.0411 8.09467 13.9814 8.66662 13.8633C9.23674 13.7453 9.73268 13.5246 10.1516 13.2026C10.5235 12.9242 10.8331 12.5785 11.0824 12.1691C11.4743 11.5505 11.6669 10.8502 11.6669 10.0695ZM14.6817 2.74487H19.9804H19.9809V1.4287H14.6817V2.74487ZM3.91743 6.07046H6.7018C7.27399 6.07046 7.73654 5.9617 8.0928 5.74429C8.44881 5.52722 8.62645 5.14137 8.62645 4.58737C8.62645 3.9753 8.39124 3.56904 7.91969 3.37351C7.51436 3.23766 6.99576 3.1677 6.36649 3.1677H3.91743V6.07046ZM8.0576 8.47197C8.61519 8.72552 8.89455 9.19805 8.89455 9.88156C8.89455 10.6921 8.60599 11.2379 8.03056 11.5248C7.71147 11.6808 7.26932 11.7556 6.69806 11.7556H3.91743V8.24895H6.74177C7.30585 8.25421 7.74579 8.32786 8.0576 8.47197ZM21.9464 7.74092C22.0104 8.17142 22.0394 8.79602 22.0277 9.61242H15.1652C15.203 10.5597 15.53 11.2221 16.1502 11.6011C16.5242 11.8389 16.9777 11.9549 17.5087 11.9549C18.0686 11.9549 18.5249 11.8134 18.8762 11.5224C19.0676 11.3682 19.2365 11.1505 19.3824 10.8758H21.8978C21.8319 11.4352 21.529 12.0027 20.9847 12.5793C20.1415 13.4958 18.9589 13.9553 17.44 13.9553C16.1853 13.9553 15.0795 13.5678 14.1197 12.7954C13.1631 12.0204 12.6826 10.7634 12.6826 9.01973C12.6826 7.38461 13.114 6.1331 13.9795 5.26197C14.8483 4.38923 15.9695 3.95485 17.3515 3.95485C18.1706 3.95485 18.9091 4.10126 19.5678 4.39562C20.2245 4.69027 20.7673 5.154 21.1947 5.79134C21.5816 6.35262 21.8304 7.00161 21.9464 7.74092ZM18.812 6.49692C19.2058 6.83573 19.4245 7.33147 19.4706 7.98645V7.9865H15.2242C15.3134 7.371 15.5312 6.88484 15.8811 6.52726C16.2287 6.16894 16.7179 5.98663 17.3515 5.98663C17.9336 5.98663 18.4215 6.15719 18.812 6.49692Z" fill="#999999"/>
</svg>
