<svg width="16" height="16" viewBox="0 0 16 16" fill="none" xmlns="http://www.w3.org/2000/svg">
<path opacity="0.5" fill-rule="evenodd" clip-rule="evenodd" d="M7.51369 0.941406C3.36374 0.941721 0 4.30567 0 8.45572C0 12.605 3.36374 15.9694 7.51369 15.9694C11.6636 15.9694 15.0275 12.605 15.028 8.45572C15.0275 4.30567 11.6636 0.941721 7.51369 0.941406ZM12.1176 4.83734C12.8507 5.7683 13.3098 6.92105 13.3677 8.17991C12.5194 7.99987 11.7179 7.91224 10.9708 7.91224V7.91207H10.9652C10.3637 7.91207 9.79914 7.96668 9.26705 8.06105C9.13774 7.74412 9.00664 7.43969 8.87457 7.14812C10.0596 6.62837 11.197 5.88828 12.1176 4.83734ZM11.1692 3.88155C10.165 3.07675 8.89645 2.59333 7.51369 2.59333C7.08603 2.59333 6.67046 2.64389 6.26786 2.73323C6.77647 3.38443 7.5205 4.44959 8.29049 5.93852C9.38633 5.468 10.4007 4.80164 11.1692 3.88155ZM4.92438 3.20442C5.33128 3.68505 6.14596 4.7422 7.01608 6.39274C5.24645 6.91951 3.46447 7.04327 2.38628 7.04295C2.35554 7.04295 2.32514 7.04295 2.2953 7.04264H2.29432C2.11274 7.04264 1.9566 7.03978 1.82624 7.03579C2.24687 5.35263 3.39997 3.95866 4.92438 3.20442ZM1.65406 8.37128C1.65242 8.40014 1.65144 8.42816 1.65144 8.45572C1.65189 9.89299 2.17469 11.2055 3.03731 12.2268C3.34557 11.7565 3.87316 11.052 4.65405 10.3408C5.4652 9.60191 6.56187 8.85997 7.95431 8.39427C7.8431 8.12562 7.73059 7.86686 7.61693 7.61833C5.53183 8.27663 3.47436 8.37508 2.29596 8.38277H2.2945C2.03612 8.38277 1.82145 8.37746 1.65406 8.37128ZM7.51369 14.3182C6.20909 14.3182 5.00666 13.8868 4.03119 13.1628C4.23852 12.8213 4.68305 12.1658 5.39092 11.4884C6.11923 10.7905 7.12461 10.0721 8.43727 9.6445C8.88345 10.8952 9.28717 12.325 9.59471 13.9344C8.94683 14.1811 8.24678 14.3182 7.51369 14.3182ZM9.74963 9.33791C10.1602 10.5092 10.5341 11.8217 10.8316 13.2772C12.0835 12.4138 12.9814 11.0788 13.2698 9.52871C12.4366 9.33937 11.6682 9.25248 10.969 9.25248H10.968H10.9671H10.9519C10.53 9.25248 10.1304 9.2833 9.74963 9.33791Z" fill="#999999"/>
</svg>
