<svg width="1121" height="795" viewBox="0 0 1121 795" fill="none" xmlns="http://www.w3.org/2000/svg">
<path d="M910.818 159.321L772.657 80.9679L772.657 240.387L911.736 322.876L910.818 159.321Z" fill="#313238"/>
<path d="M909.926 160.174L1049.24 78.2289L1049.24 242.789L908.996 325.967L909.926 160.174Z" fill="#18191A"/>
<rect width="161.619" height="161.619" transform="matrix(0.866044 0.499967 -0.866044 0.499967 911.662 0)" fill="#515258"/>
<path d="M676.085 144.975L816.054 225.779L676.085 306.583L536.115 225.779L676.085 144.975Z" fill="#18191A"/>
<path d="M676.086 304.251L537.924 225.899L537.924 385.318L677.003 467.807L676.086 304.251Z" fill="#313238"/>
<path d="M676.098 304.254L815.408 225.899L815.408 386.869L675.168 470.047L676.098 304.254Z" fill="#18191A"/>
<path fill-rule="evenodd" clip-rule="evenodd" d="M676.085 182.364L600.88 225.779L676.085 269.194L751.289 225.779L676.085 182.364ZM676.085 144.975L536.115 225.779L676.085 306.583L816.054 225.779L676.085 144.975Z" fill="#515258"/>
<rect width="161.619" height="161.619" transform="matrix(0.866044 0.499967 -0.866044 0.499967 442.525 289.006)" fill="#515258"/>
<path d="M442.361 448.214L304.2 369.861L304.2 529.281L443.279 611.77L442.361 448.214Z" fill="#313238"/>
<path d="M442.539 448.286L581.85 369.931L581.85 530.901L441.609 614.079L442.539 448.286Z" fill="#18191A"/>
<rect width="161.619" height="161.619" transform="matrix(0.866044 0.499967 -0.866044 0.499967 208.957 429.146)" fill="#515258"/>
<path d="M208.957 588.421L70.7952 510.068L70.7953 669.488L209.874 751.977L208.957 588.421Z" fill="#313238"/>
<path d="M208.977 588.425L348.287 510.07L348.287 671.041L208.047 754.219L208.977 588.425Z" fill="#18191A"/>
<path d="M443.171 393.506C419.175 393.506 399.723 374.053 399.723 350.057C399.723 326.062 419.175 306.609 443.171 306.609C467.167 306.609 486.619 326.062 486.619 350.057C486.619 374.053 467.167 393.506 443.171 393.506Z" fill="url(#paint0_radial)"/>
<defs>
<radialGradient id="paint0_radial" cx="0" cy="0" r="1" gradientUnits="userSpaceOnUse" gradientTransform="translate(457.455 341.725) rotate(105.422) scale(53.7147)">
<stop offset="0.484375" stop-color="#FF8E5E"/>
<stop offset="1" stop-color="#D16233"/>
</radialGradient>
</defs>
</svg>
