<svg width="768" height="742" viewBox="0 0 768 742" fill="none" xmlns="http://www.w3.org/2000/svg">
<path d="M-98.2546 666.88C-97.4237 610.589 -81.0002 511.713 37.3625 549.05C199.949 600.336 191.12 398.549 339.832 351.586C495.98 302.274 584.701 437.074 715.823 380.329C846.944 323.584 830.534 120.88 842.039 88.6742" stroke="#FF8E5E" stroke-dasharray="5 5"/>
<path d="M800.245 88.4794C793.796 184.27 821.634 547.195 454.25 408.021C86.8648 268.847 -71.3577 592.759 -75.9137 666.522" stroke="#6A6968" stroke-width="4"/>
<path d="M-158.56 632.597C-157.712 576.288 -96.2633 478.937 0.392506 448.371C117.495 411.34 258.428 621.297 399.694 576.625C540.96 531.953 574.105 289.721 630.015 176.929C685.925 64.1373 749.308 26.0092 791.343 1.99978" stroke="#FF8E5E" stroke-width="4"/>
</svg>
