<svg width="21" height="24" viewBox="0 0 21 24" fill="none" xmlns="http://www.w3.org/2000/svg">
<path d="M1.5625 23.2496C1.31386 23.2496 1.0754 23.1508 0.899588 22.975C0.723772 22.7992 0.625 22.5607 0.625 22.3121V1.68708C0.625074 1.52246 0.668494 1.36076 0.750894 1.21824C0.833294 1.07573 0.951768 0.957422 1.0944 0.875226C1.23703 0.793029 1.3988 0.749839 1.56342 0.75C1.72804 0.750161 1.88972 0.793668 2.03219 0.876143L19.8447 11.1886C19.9868 11.2711 20.1047 11.3893 20.1867 11.5317C20.2686 11.674 20.3118 11.8353 20.3118 11.9996C20.3118 12.1638 20.2686 12.3252 20.1867 12.4675C20.1047 12.6098 19.9868 12.7281 19.8447 12.8105L2.03219 23.123C1.88952 23.2059 1.72748 23.2495 1.5625 23.2496Z" fill="white"/>
</svg>
