<svg width="104" height="17" viewBox="0 0 104 17" fill="none" xmlns="http://www.w3.org/2000/svg">
<path d="M8.66667 0L10.9044 6.02593L17.3333 6.2894L12.2876 10.2778L14.0227 16.4667L8.66667 12.9047L3.31067 16.4667L5.04573 10.2787L0 6.28853L6.42893 6.02507" fill="#FF8E5E"/>
<path d="M30.3332 0L32.5709 6.02593L38.9998 6.2894L33.9541 10.2778L35.6892 16.4667L30.3332 12.9047L24.9772 16.4667L26.7122 10.2787L21.6665 6.28853L28.0954 6.02507" fill="#FF8E5E"/>
<path d="M52.0002 0L54.2379 6.02593L60.6668 6.2894L55.6211 10.2778L57.3562 16.4667L52.0002 12.9047L46.6442 16.4667L48.3792 10.2787L43.3335 6.28853L49.7624 6.02507" fill="#FF8E5E"/>
<path d="M73.6667 0L75.9044 6.02593L82.3333 6.2894L77.2876 10.2778L79.0227 16.4667L73.6667 12.9047L68.3107 16.4667L70.0457 10.2787L65 6.28853L71.4289 6.02507" fill="#FF8E5E"/>
<mask id="path-5-inside-1" fill="white">
<path d="M95.3332 0L97.5709 6.02593L104 6.2894L98.9541 10.2778L100.689 16.4667L95.3332 12.9047L89.9772 16.4667L91.7122 10.2787L86.6665 6.28853L93.0954 6.02507"/>
</mask>
<path d="M94.8645 -0.174083L92.6267 5.85098L93.5642 6.19915L95.8019 0.174083L94.8645 -0.174083ZM97.5709 6.02593L96.6335 6.37406L96.8651 6.99785L97.53 7.02509L97.5709 6.02593ZM104 6.2894L104.62 7.07391L106.737 5.40072L104.041 5.29024L104 6.2894ZM98.9541 10.2778L98.334 9.49329L97.8114 9.90636L97.9912 10.5477L98.9541 10.2778ZM100.689 16.4667L100.135 17.2993L102.38 18.7918L101.652 16.1967L100.689 16.4667ZM95.3332 12.9047L95.8869 12.072L95.3332 11.7037L94.7794 12.072L95.3332 12.9047ZM89.9772 16.4667L89.0143 16.1967L88.2866 18.7919L90.5309 17.2993L89.9772 16.4667ZM91.7122 10.2787L92.6751 10.5486L92.8549 9.90739L92.3325 9.49429L91.7122 10.2787ZM86.6665 6.28853L86.6256 5.28937L83.9305 5.39982L86.0462 7.07291L86.6665 6.28853ZM94.3957 0.348122L96.6335 6.37406L98.5084 5.67781L96.2706 -0.348122L94.3957 0.348122ZM97.53 7.02509L103.959 7.28856L104.041 5.29024L97.6119 5.02677L97.53 7.02509ZM103.38 5.50489L98.334 9.49329L99.5742 11.0623L104.62 7.07391L103.38 5.50489ZM97.9912 10.5477L99.7263 16.7366L101.652 16.1967L99.917 10.0079L97.9912 10.5477ZM101.243 15.634L95.8869 12.072L94.7794 13.7373L100.135 17.2993L101.243 15.634ZM94.7794 12.072L89.4234 15.634L90.5309 17.2993L95.8869 13.7373L94.7794 12.072ZM90.94 16.7366L92.6751 10.5486L90.7494 10.0087L89.0143 16.1967L90.94 16.7366ZM92.3325 9.49429L87.2868 5.50415L86.0462 7.07291L91.092 11.063L92.3325 9.49429ZM86.7075 7.28769L93.1364 7.02423L93.0545 5.02591L86.6256 5.28937L86.7075 7.28769Z" fill="#FF8E5E" mask="url(#path-5-inside-1)"/>
<path d="M89.9806 16.4667L95.3366 12.9047V0L93.0989 6.02507L86.6699 6.28853L91.7157 10.2787L89.9806 16.4667Z" fill="#FF8E5E"/>
</svg>
