<svg width="162" height="56" viewBox="0 0 162 56" fill="none" xmlns="http://www.w3.org/2000/svg">
<path d="M157.354 18.5378V17.1676H158.561C159.14 17.1676 159.495 17.4158 159.495 17.8328C159.495 18.2994 159.069 18.5378 158.511 18.5378H157.354ZM159.951 17.8132C159.951 17.1676 159.373 16.7608 158.582 16.7608H156.918V20.3942H157.354V18.9348H158.43L159.606 20.3942H160.174L158.937 18.8653C159.536 18.7562 159.951 18.4088 159.951 17.8132V17.8132ZM158.318 21.9928C156.401 21.9928 154.962 20.5132 154.962 18.6866C154.962 16.8599 156.411 15.3611 158.338 15.3611C160.255 15.3611 161.695 16.8403 161.695 18.667C161.695 20.4931 160.245 21.9928 158.318 21.9928V21.9928ZM158.338 15.083C156.279 15.083 154.657 16.7208 154.657 18.6866C154.657 20.6524 156.26 22.2703 158.318 22.2703C160.376 22.2703 162 20.6325 162 18.667C162 16.7014 160.397 15.083 158.338 15.083V15.083ZM103.107 19.289L90.0213 19.2578L89.082 22.4376L93.8884 22.4493L90.1838 34.9459L93.6589 34.9545L97.3628 22.4576L102.168 22.4693L103.107 19.2892V19.289ZM105.91 28.5956L113.242 28.6129L114.154 25.5898L106.822 25.5719L107.762 22.3697L116.109 22.3899L117.022 19.3214L105.222 19.2933L100.58 34.9696L111.565 34.9404L112.479 31.8722L104.922 31.9103L105.91 28.5956V28.5956ZM82.6746 20.2107L80.288 17.9904L73.8499 24.2639L71.0356 18.1029L67.8128 19.8364L71.2814 26.7677L64.1848 33.5378L66.7028 35.5587L72.6294 29.6396L75.1282 35.448L78.4654 34.0263L75.2202 27.1584L82.6746 20.2107V20.2107ZM80.914 28.5859L87.8629 28.6006L88.8493 25.6415L81.9001 25.6265L80.914 28.5859V28.5859ZM148.258 18.0887L141.487 30.1381L135.888 18.2463L130.966 35.0443H134.456L136.737 27.0788L141.295 36.0262L146.526 27.1401L148.051 34.8981L151.646 34.8517L148.441 19.2663L148.258 18.0887V18.0887ZM121.141 29.3147L124.104 25.3777L125.027 29.3147H121.141V29.3147ZM125.458 18.2784V18.2733L113.115 35.0006H116.862L118.85 32.359H125.741L126.356 34.9809H129.889L125.474 18.2557L125.459 18.2784" fill="#F6F4F2"/>
<path d="M42.0599 25.8048L15.4918 0L3.00812 12.219L16.9909 25.9051L0 43.5904L12.1313 55.2797L42.0599 25.8048Z" fill="#F6F4F2"/>
<path d="M31.2725 39.8836L43.457 51.8101L55.9404 39.5914L43.7556 27.665L31.2725 39.8836" fill="#F6F4F2"/>
<path d="M31.3738 11.8265L43.8578 24.0455L55.9401 12.219L43.4564 0L31.3738 11.8265Z" fill="#F6F4F2"/>
</svg>
