<svg width="260" height="31" viewBox="0 0 260 31" fill="none" xmlns="http://www.w3.org/2000/svg">
<path fill-rule="evenodd" clip-rule="evenodd" d="M174.142 3.4043V28.6404H176.331V8.23263L194.55 28.6404H205.301C223.842 28.6404 223.262 3.4043 205.301 3.4043H195.258V25.8721L175.301 3.4043H174.142ZM197.382 26.6447V5.59314H205.301C220.236 5.59314 219.915 26.6447 205.301 26.6447H197.382Z" fill="#F6F4F2"/>
<path d="M221.652 28.6405V3.46875H241.996L242.446 5.33571H223.906L223.841 15.5074H240.708V17.5031H223.841V26.8379H241.996V28.6405H221.652Z" fill="#F6F4F2"/>
<path d="M107.639 3.4043H105.644L105.579 28.7209H107.639V19.4987H125.858V28.7209H127.854V3.4043H125.858V17.3743H107.639V3.4043Z" fill="#F6F4F2"/>
<path d="M140.25 5.41052H130.944V3.4043H151.288V5.41052H142.367V28.7048H140.25V5.41052Z" fill="#F6F4F2"/>
<path d="M20.0214 5.33563V3.4043H-0.00012207V28.7048H1.99559V17.8249H18.7338V15.7005H1.99559V5.33563H20.0214Z" fill="#F6F4F2"/>
<path d="M71.2658 3.46875H69.1414V28.7048H71.2658V3.46875Z" fill="#F6F4F2"/>
<path d="M22.5323 3.4043V28.6404H24.3349V5.07812H31.2877C40.6868 5.07812 41.0087 19.8206 31.4808 19.8206H27.1675L35.9872 28.6404H38.9486L31.4808 21.4945H31.8027C43.7126 21.4945 43.0044 3.4043 31.8027 3.4043H22.5323Z" fill="#F6F4F2"/>
<path d="M251.331 3.46875H241.417V5.33571H243.863H251.009C260.408 5.33571 260.537 19.8851 251.009 19.8851H246.696L255.515 28.7049H258.477L251.009 21.5589H251.331C263.241 21.5589 262.533 3.46875 251.331 3.46875Z" fill="#F6F4F2"/>
<path d="M64.6994 5.1425V3.4043H44.4848V28.7048H64.6351V26.7734H46.4161V17.3099H63.3475V15.1854H46.4161V5.1425H64.6994Z" fill="#F6F4F2"/>
<path d="M171.503 5.1425V3.4043H151.288V28.7048H171.438V26.7734H153.219V17.3099H170.151V15.1854H153.219V5.1425H171.503Z" fill="#F6F4F2"/>
<path d="M101.978 17.8777C101.41 21.0913 99.6297 23.9732 96.9821 25.9668C94.3345 27.9603 91.0069 28.9242 87.6419 28.6722C84.2769 28.4203 81.1132 26.9704 78.7617 24.6025C76.4102 22.2347 75.0376 19.1168 74.909 15.8509C74.7805 12.5851 75.9051 9.40291 78.0656 6.9189C80.2262 4.43489 83.2694 2.82523 86.6078 2.40075C89.9461 1.97626 93.3428 2.76706 96.1418 4.62043C98.9408 6.4738 100.944 9.2583 101.764 12.4362L99.9119 12.8652C99.2066 10.1322 97.4842 7.7375 95.077 6.14359C92.6698 4.54969 89.7487 3.86961 86.8777 4.23467C84.0068 4.59973 81.3895 5.98403 79.5315 8.12028C77.6734 10.2565 76.7063 12.9932 76.8168 15.8018C76.9274 18.6105 78.1078 21.2918 80.1301 23.3282C82.1524 25.3646 84.8732 26.6115 87.7671 26.8282C90.661 27.0448 93.5227 26.2159 95.7996 24.5014C98.0766 22.787 99.6072 20.3086 100.096 17.5448L101.978 17.8777Z" fill="#F6F4F2"/>
<path d="M100.874 19.0474H90.2581V16.9873H102.168C102.061 17.7946 101.901 18.245 101.715 19.0474H100.874Z" fill="#F6F4F2"/>
</svg>
