<svg width="170" height="39" viewBox="0 0 170 39" fill="none" xmlns="http://www.w3.org/2000/svg">
<path d="M28.7295 11.4535L30.5628 5.34227C16.4052 1.67554 3.87721 5.85154 0.312407 20.7221C-1.92841 36.4075 8.05322 41.6021 24.8591 35.7964L27.9146 20.111H17.6274L16.3034 25H20.1738L19.2571 31.6204C8.96443 33.2806 6.47821 30.6908 7.03473 20.7221C11.6692 9.92403 16.6547 8.3356 28.7295 11.4535Z" fill="#F6F4F2"/>
<path fill-rule="evenodd" clip-rule="evenodd" d="M53.8871 13.5935L50.2204 32.8438L54.3964 33.0475L53.4797 37.2235L43.2944 37.8346L45.637 29.9919C41.8773 36.1117 38.9205 38.0582 34.8406 37.9365C28.0165 37.7327 29.5253 27.7511 30.2574 25.4085C33.8222 14.0009 40.0224 11.4715 53.8871 13.5935ZM47.063 18.1769C46.1463 25.9178 36.6057 38.5476 36.1647 29.9919C35.6554 20.1121 42.453 16.1874 47.063 18.1769Z" fill="#F6F4F2"/>
<ellipse cx="65.9929" cy="6.34001" rx="3.87043" ry="3.98515" transform="rotate(32.6493 65.9929 6.34001)" fill="#F6F4F2"/>
<path d="M56.7393 17.4641L57.4522 13.5936L67.7394 13.2881L63.869 32.7421L68.045 33.3532L67.2301 37.2236L57.0448 37.631L60.9152 18.177L56.7393 17.4641Z" fill="#F6F4F2"/>
<path d="M70.1835 18.0741H74.4613L72.1187 30.0928C71.1002 35.2873 73.5446 37.7074 75.378 37.8337C78.4769 38.047 80.0793 37.9526 82.7114 37.4262L83.3225 32.4354C79.4588 32.8979 77.6188 33.3521 78.5354 29.0743L80.5725 18.0741H86.3781L87.2948 13.0833H81.4892L83.1188 4.42578L76.7021 5.85173L75.378 13.0833H71.202L70.1835 18.0741Z" fill="#F6F4F2"/>
<path d="M92.1838 6.25878L88.0078 5.74952L88.6189 1.98095L98.9061 1.47168L96.4616 14.3052C95.6073 18.8724 95.2394 21.0275 97.582 21.0275C100.332 21.0275 105.527 14.6108 107.36 1.67539H113.675L109.703 21.0275L113.98 21.3331L113.064 25.4072L103.082 25.8146L105.119 18.2775C101.51 24.8046 97.8876 27.2231 93.5079 26.222C89.943 25.4072 88.9245 22.2498 89.6375 18.9904L92.1838 6.25878Z" fill="#F6F4F2"/>
<path fill-rule="evenodd" clip-rule="evenodd" d="M117.24 1.87916L127.425 1.47174L125.286 9.00889C126.712 6.15699 130.786 0.555063 135.675 0.962477C141.787 1.47174 141.379 7.27738 140.87 12.37C140.361 17.4627 135.675 27.5462 122.842 26.1202L121.62 33.25L125.286 34.2685L124.166 37.3241H111.027L111.944 34.2685L115.203 33.25L119.99 6.25885L116.323 5.74958L117.24 1.87916ZM123.759 20.8239C124.675 12.8793 133.74 0.758768 134.759 9.00889C135.501 15.0182 131.092 23.7776 123.759 20.8239Z" fill="#F6F4F2"/>
<path fill-rule="evenodd" clip-rule="evenodd" d="M145.657 1.47168V26.0183H170V1.47168H145.657ZM155.129 10.8422V4.73098H160.629V10.8422H166.639V16.3423H160.629V22.4535H155.129V16.3423H149.12V10.8422H155.129Z" fill="#F6F4F2"/>
</svg>
