<svg width="211" height="45" viewBox="0 0 211 45" fill="none" xmlns="http://www.w3.org/2000/svg">
<path d="M24.2482 38.838V43.7867C24.2499 44.7757 23.5326 44.9668 21.7304 43.7867C14.1728 38.8383 5.35938 35.1269 2.84362 26.4668C1.93456 23.3376 3.72831 25.0538 4.99083 25.677C7.48645 26.909 16.8177 32.6839 21.7304 35.1265L21.7745 35.1484C24.2344 36.3714 24.2482 36.3783 24.2482 38.838Z" fill="#F6F4F2"/>
<path d="M25.2386 38.838V43.7867C25.2368 44.7757 25.9542 44.9668 27.7564 43.7867C35.3139 38.8383 44.1273 35.1269 46.6431 26.4668C47.5522 23.3376 45.7584 25.0538 44.4959 25.677C42.0003 26.909 32.669 32.6839 27.7564 35.1265L27.7123 35.1484C25.2523 36.3714 25.2386 36.3783 25.2386 38.838Z" fill="#F6F4F2"/>
<path d="M24.2731 25.3895V33.5167C24.2731 34.5155 23.0786 34.0254 21.7294 33.5167C20.103 32.9035 14.612 29.7775 10.9315 27.2735C4.95016 23.2041 2.07253 19.4922 0.383831 12.2916C-0.538828 8.35743 0.383684 9.06278 1.55903 9.79278C3.86593 11.2257 13.2419 16.4453 21.0184 20.4182C24.2193 22.0535 24.2731 22.9033 24.2731 25.3895Z" fill="#F6F4F2"/>
<path d="M25.2137 25.3895V33.5167C25.2137 34.5155 26.4081 34.0254 27.7573 33.5167C29.3837 32.9035 34.8748 29.7775 38.5552 27.2735C44.5366 23.2041 47.4142 19.4922 49.1029 12.2916C50.0256 8.35743 49.103 9.06278 47.9277 9.79278C45.6208 11.2257 36.2448 16.4453 28.4683 20.4182C25.2675 22.0535 25.2137 22.9033 25.2137 25.3895Z" fill="#F6F4F2"/>
<path fill-rule="evenodd" clip-rule="evenodd" d="M3.37578 9.59445L21.3693 18.5921C23.6188 19.7168 25.3973 20.0162 28.1176 18.5921C30.904 17.1333 34.0327 15.6123 37.1384 14.1024C39.9859 12.7181 42.8141 11.3431 45.3416 10.0341C48.3624 8.46968 47.6649 7.90127 44.2867 6.72248C42.2691 6.01842 38.9933 4.84156 35.8755 3.72146C33.0364 2.70151 30.3284 1.72862 28.8205 1.20262C26.1383 0.267029 23.6847 0.00356316 20.2446 1.20472C18.6165 1.77322 15.6949 2.84944 12.6219 3.98146C9.20253 5.24109 5.59554 6.56982 3.37416 7.34503C1.95155 7.84224 1.2666 8.49279 3.37578 9.59445ZM30.367 7.34503C30.343 6.78694 29.9415 6.70683 28.8205 6.72248C28.8205 6.72248 18.6981 6.72248 16.4839 6.72248C14.2696 6.72248 14.6211 7.8225 15.7458 7.8225C23.6888 8.14661 25.1421 7.71348 28.1176 12.7712C30.6966 15.0206 30.367 12.7712 30.367 11.6465V7.34503Z" fill="#F6F4F2"/>
<path d="M79.8542 37.5145L94.4754 10.5215L107.972 37.5145H101.879L94.4754 21.4708L85.9297 37.5145H79.8542Z" fill="#F6F4F2"/>
<path d="M138.609 37.4452L153.23 10.4521L166.727 37.4452H160.633L153.23 21.4015L144.685 37.4452H138.609Z" fill="#F6F4F2"/>
<path d="M182.686 37.6386L197.307 10.6455L210.803 37.6386H204.71L197.307 21.5948L188.761 37.6386H182.686Z" fill="#F6F4F2"/>
<path d="M138.563 37.5145L153.184 10.5215L166.681 37.5145H161.057L153.184 20.6975L144.187 37.5145H138.563Z" fill="#F6F4F2"/>
<path d="M182.651 37.5145L197.272 10.5215L210.769 37.5145H205.145L197.272 20.6975L188.275 37.5145H182.651Z" fill="#F6F4F2"/>
<path d="M115.797 37.5145H110.221V10.5215H112.471L123.718 20.6439L134.965 10.5215H137.214V37.5145H131.649V20.6439L123.718 27.4637L115.797 20.6439V37.5145Z" fill="#F6F4F2"/>
<path d="M172.08 26.952L163.083 10.5215H169.831L174.892 21.084L179.953 10.5215H186.702L177.704 26.952V37.5145H172.08V26.952Z" fill="#F6F4F2"/>
<path d="M76.0219 14.517C73.5908 12.3695 70.477 11.1538 67.234 11.0858C63.9911 11.0178 60.829 12.102 58.3101 14.1457C55.7912 16.1893 54.0786 19.06 53.4767 22.2474C52.8749 25.4348 53.4229 28.7323 55.0232 31.5538C56.6236 34.3752 59.1726 36.5377 62.2171 37.6569C65.2616 38.7761 68.6043 38.7794 71.651 37.6662C74.6977 36.553 77.251 34.3955 78.8569 31.5772C79.772 29.9711 80.3457 28.2097 80.5597 26.4015L80.529 21.7694L69.7318 21.7694L69.7318 26.4015L75.5711 26.4015C75.3931 27.3546 75.057 28.2789 74.5696 29.1343C73.5418 30.9381 71.9076 32.319 69.9576 33.0314C68.0076 33.7439 65.8682 33.7418 63.9196 33.0255C61.971 32.3092 60.3396 30.9251 59.3153 29.1193C58.291 27.3135 57.9403 25.2029 58.3255 23.1629C58.7107 21.1229 59.8068 19.2856 61.419 17.9775C63.0312 16.6695 65.055 15.9756 67.1306 16.0191C69.2062 16.0626 71.1992 16.8408 72.7551 18.2152L76.0219 14.517Z" fill="#F6F4F2"/>
</svg>
