<svg width="250" height="45" viewBox="0 0 250 45" fill="none" xmlns="http://www.w3.org/2000/svg">
<path d="M39.2457 26.2146L39.2355 26.1936L39.2243 26.1731L25.9713 1.86523H45.1169L68.6976 43.1068C68.1589 43.0847 67.5067 43.0459 66.7618 42.9794C64.4991 42.7776 61.3931 42.3216 58.0194 41.3069C51.2651 39.2756 43.5351 35.0394 39.2457 26.2146Z" stroke="#F6F4F2" stroke-width="2" stroke-linecap="round"/>
<path fill-rule="evenodd" clip-rule="evenodd" d="M46.1462 0.865234H24.7362L-0.000244141 44.1282C-0.000244141 44.1282 23.1763 44.9839 32.0864 26.6518L46.1462 0.865234" fill="#F6F4F2"/>
<path fill-rule="evenodd" clip-rule="evenodd" d="M99.4983 29.0652C97.9666 30.4299 96.4965 31.1568 93.9743 31.1568C90.6717 31.1568 88.5096 29.0347 88.5096 26.3077C88.5096 23.2759 90.551 21.488 93.5539 21.488H99.2579V19.4563C99.2579 17.2744 97.9364 15.789 95.7754 15.789H94.2437C92.7434 15.789 91.3928 16.5475 90.7019 17.8805L88.9008 17.0317C89.8612 15.123 91.9328 13.8193 94.3041 13.8193H95.8056C99.0477 13.8193 101.36 16.0926 101.36 19.366V30.9141H99.9186L99.4983 29.0652V29.0652ZM93.4631 23.4577C91.662 23.4577 90.6111 24.4589 90.6111 26.2773C90.6111 27.9433 91.8118 29.1861 94.0634 29.1861C97.366 29.1861 99.2576 27.4286 99.2576 25.3066V23.4577H93.4631V23.4577Z" fill="#F6F4F2"/>
<path fill-rule="evenodd" clip-rule="evenodd" d="M127.922 15.4856C128.733 14.4246 130.174 13.8185 131.674 13.8185H132.816C136.058 13.8185 138.671 16.4552 138.671 19.7285V25.2447C138.671 28.5192 136.058 31.1559 132.816 31.1559H131.674C129.964 31.1559 128.493 30.3376 127.593 29.0643L127.262 30.9132H125.821V9.21094H127.922V15.4856V15.4856ZM132.816 15.7882H131.674C129.573 15.7882 127.922 17.4553 127.922 19.5774V25.2448C127.922 27.4277 129.513 29.1852 131.674 29.1852H132.816C134.977 29.1852 136.569 27.4277 136.569 25.2448V19.7286C136.569 17.5468 134.977 15.7882 132.816 15.7882V15.7882Z" fill="#F6F4F2"/>
<path fill-rule="evenodd" clip-rule="evenodd" d="M168.685 13.8193H169.825C173.069 13.8193 175.68 16.4561 175.68 19.7294V25.2456C175.68 28.52 173.069 31.1568 169.825 31.1568H168.685C165.443 31.1568 162.83 28.52 162.83 25.2456V19.7294C162.83 16.4561 165.443 13.8193 168.685 13.8193V13.8193ZM169.825 29.1857C171.987 29.1857 173.578 27.4282 173.578 25.2453V19.7291C173.578 17.5473 171.987 15.7887 169.825 15.7887H168.685C166.523 15.7887 164.933 17.5473 164.933 19.7291V25.2453C164.933 27.4282 166.523 29.1857 168.685 29.1857H169.825V29.1857Z" fill="#F6F4F2"/>
<path fill-rule="evenodd" clip-rule="evenodd" d="M211.249 30.9132L210.949 29.2461C209.959 30.429 208.547 31.1559 206.837 31.1559H205.695C202.453 31.1559 199.841 28.5192 199.841 25.2447V19.7285C199.841 16.4552 202.453 13.8185 205.695 13.8185H206.837C208.337 13.8185 209.628 14.3941 210.589 15.3344V9.21094H212.69V30.9132H211.249V30.9132ZM201.943 25.2448C201.943 27.4277 203.535 29.1852 205.696 29.1852H206.837C208.998 29.1852 210.589 27.4277 210.589 25.2448V19.7286C210.589 17.5468 208.998 15.7882 206.837 15.7882H205.696C203.535 15.7882 201.943 17.5468 201.943 19.7286V25.2448V25.2448Z" fill="#F6F4F2"/>
<path fill-rule="evenodd" clip-rule="evenodd" d="M249.67 27.9433C248.708 29.8531 246.727 31.1568 244.446 31.1568H243.004C239.762 31.1568 237.151 28.52 237.151 25.2456V19.7294C237.151 16.4561 239.762 13.8193 243.004 13.8193H244.146C247.388 13.8193 250 16.4561 250 19.7294V23.4576H239.251V25.2456C239.251 27.4286 240.843 29.186 243.004 29.186H244.446C245.947 29.186 247.208 28.3383 247.808 27.0651L249.67 27.9433V27.9433ZM247.898 19.7291C247.898 17.5473 246.307 15.7887 244.146 15.7887H243.005C240.844 15.7887 239.252 17.5473 239.252 19.7291V21.4877H247.898V19.7291V19.7291Z" fill="#F6F4F2"/>
</svg>
