<svg width="190" height="73" viewBox="0 0 190 73" fill="none" xmlns="http://www.w3.org/2000/svg">
<path d="M29.672 19.4434L27.4014 25.1761H20.4978V49.9104H13.5949V25.1754H5V19.4434H29.672Z" fill="#F6F4F2"/>
<path d="M43.3935 40.9851H29.7665C29.8249 42.2491 30.4184 43.235 31.5476 43.9459C32.5572 44.5923 33.7149 44.9155 35.0215 44.9155C36.9808 44.9155 38.9108 44.4237 40.8109 43.4362L42.3248 47.8289C39.8305 49.5241 37.0391 50.3717 33.9521 50.3717C30.3001 50.3717 27.5095 49.2156 25.5795 46.9028C23.8867 44.8999 23.0403 42.3416 23.0403 39.2293C23.0403 35.9935 23.9159 33.2813 25.6685 31.092C27.5671 28.7186 30.1063 27.5322 33.2838 27.5322C36.2526 27.5322 38.6788 28.5725 40.5646 30.6531C42.4505 32.7336 43.3927 35.4543 43.3927 38.8121V40.9851H43.3935ZM36.5789 36.3633C36.4008 33.836 35.2139 32.572 33.0167 32.572C31.9772 32.572 31.1383 32.9729 30.4999 33.7739C29.8616 34.5756 29.5435 35.4388 29.5435 36.3633H36.5789V36.3633Z" fill="#F6F4F2"/>
<path d="M64.6372 49.9093H57.2569L52.7555 42.9599L48.5213 49.9093H41.6139L49.0953 38.6745L42.1482 28.041H49.4964L53.5487 34.8374L57.6902 28.041H64.593L57.3789 39.0901L64.6372 49.9093Z" fill="#F6F4F2"/>
<path d="M79.1356 47.8759C76.8792 49.5408 74.1769 50.3737 71.0301 50.3737C67.2598 50.3737 65.3747 48.5697 65.3747 44.9641V33.0821H61.4114V28.0431H65.3754V22.8658L72.0995 20.877V28.0431H78.7344L76.865 33.0821H72.0995V42.2737C72.0995 43.8516 72.7677 44.6393 74.1036 44.6393C75.2022 44.6393 76.315 44.3006 77.4443 43.6224L79.1356 47.8759Z" fill="#F6F4F2"/>
<path d="M111.268 49.9097H104.543V34.3762C104.543 32.8046 104.543 31.7099 104.543 31.093C104.395 31.4333 103.739 32.5109 102.579 34.3296L97.7569 41.819H94.7657L89.2743 34.0523C88.8275 33.4362 88.1719 32.4495 87.3091 31.093H87.22C87.22 31.7713 87.22 32.789 87.22 34.1447V49.9097H80.4952V19.4434H86.6415L93.9897 30.0776C94.9094 31.4022 95.666 32.6049 96.2602 33.684H96.3493C96.9727 32.3889 97.6851 31.1101 98.4866 29.8469L105.078 19.4441H111.268V49.9097V49.9097Z" fill="#F6F4F2"/>
<path d="M132.668 49.9086H126.967L126.032 48.0588C124.34 49.6002 122.381 50.3717 120.154 50.3717C118.046 50.3717 116.324 49.7082 114.988 48.3836C113.653 47.0574 112.984 45.3156 112.984 43.1589C112.984 40.8779 113.827 39.1058 115.514 37.8418C117.112 36.6702 119.285 36.023 122.036 35.9003L125.41 35.7612V35.5763C125.41 34.6518 125.055 33.9425 124.344 33.4499C123.635 32.9574 122.762 32.7103 121.728 32.7103C119.776 32.7103 117.987 33.157 116.361 34.0512L114.41 29.9367C116.815 28.334 119.739 27.5322 123.183 27.5322C129.269 27.5322 132.312 30.2755 132.312 35.762V45.8136C132.311 47.7372 132.429 49.1014 132.668 49.9086ZM125.409 44.3328V40.2463H123.137C120.85 40.3372 119.708 41.1156 119.708 42.5801C119.708 44.1689 120.702 44.9621 122.691 44.9621C123.849 44.9621 124.754 44.7531 125.409 44.3328Z" fill="#F6F4F2"/>
<path d="M155.404 54.6928C155.404 56.7897 154.38 58.5152 152.332 59.8716C150.075 61.3812 146.958 62.1371 142.98 62.1371C139.952 62.1371 137.524 61.5047 135.699 60.2422C133.874 58.9782 132.961 57.4516 132.961 55.6639C132.961 54.462 133.347 53.3985 134.118 52.4747C134.801 51.6116 135.662 50.9955 136.702 50.6249C135.781 50.1013 135.32 49.162 135.32 47.8055C135.32 46.0785 136.271 44.7539 138.171 43.8286C137.013 43.2746 136.093 42.3493 135.41 41.055C134.757 39.8531 134.43 38.5138 134.43 37.0338C134.43 34.846 135.143 32.9807 136.567 31.4393C138.26 29.6213 140.635 28.7116 143.692 28.7116C145.356 28.7116 146.78 29.0821 147.967 29.821C148.116 29.9134 148.294 29.8676 148.502 29.6827C149.809 28.3884 151.634 27.7412 153.98 27.7412C154.484 27.7412 155.033 27.7723 155.628 27.8329L154.38 32.6411C153.073 32.3638 152.11 32.3335 151.485 32.5487C152.614 34.0901 153.178 35.8933 153.178 37.9575C153.178 40.2688 152.294 42.1349 150.528 43.552C148.762 44.9691 146.677 45.6776 144.271 45.6776C143.025 45.6776 142.045 45.5548 141.333 45.3086C141.184 45.7397 141.109 46.1554 141.109 46.5555C141.109 47.3868 142.341 48.0044 144.806 48.4053C148.428 48.9911 150.729 49.4689 151.709 49.8379C154.171 50.8261 155.404 52.4421 155.404 54.6928ZM148.101 55.4782C148.101 54.6772 146.899 54.0456 144.494 53.5834C141.377 52.9976 139.624 52.5967 139.239 52.3815C138.645 52.937 138.349 53.6137 138.349 54.4162C138.349 55.2475 138.824 55.9638 139.774 56.5651C140.723 57.1664 142.001 57.4679 143.603 57.4679C146.601 57.4679 148.101 56.8029 148.101 55.4782ZM146.632 37.2637C146.632 36.4324 146.364 35.6928 145.83 35.0457C145.206 34.2439 144.36 33.843 143.292 33.843C141.538 33.843 140.664 34.8763 140.664 36.9405C140.664 37.9272 140.916 38.7429 141.421 39.3909C141.955 40.1297 142.697 40.5003 143.648 40.5003C145.636 40.5003 146.632 39.4212 146.632 37.2637Z" fill="#F6F4F2"/>
<path d="M164.801 22.7461C164.801 23.8563 164.414 24.8034 163.642 25.5896C162.871 26.3758 161.92 26.7689 160.792 26.7689C159.663 26.7689 158.715 26.3836 157.942 25.6129C157.17 24.843 156.783 23.8866 156.783 22.7469C156.783 21.6375 157.17 20.6974 157.942 19.9267C158.714 19.1568 159.663 18.7715 160.792 18.7715C161.92 18.7715 162.87 19.1491 163.642 19.9042C164.415 20.6586 164.801 21.6072 164.801 22.7461Z" fill="#F6F4F2"/>
<path d="M164.132 28.041H157.408V49.9085H164.132V28.041Z" fill="#F6F4F2"/>
<path d="M185 47.8281C182.743 49.5233 180.086 50.3709 177.029 50.3709C173.615 50.3709 170.942 49.2599 169.012 47.0419C167.201 44.9768 166.296 42.2957 166.296 38.997C166.296 35.6082 167.454 32.8191 169.77 30.6297C171.937 28.5655 174.535 27.5322 177.563 27.5322C180.294 27.5322 182.432 28.0714 183.976 29.1505L183.843 34.6052C182.393 33.3419 180.678 32.7103 178.697 32.7103C177.13 32.7103 175.792 33.2728 174.683 34.3977C173.575 35.5235 173.02 36.9483 173.02 38.6738C173.02 40.369 173.449 41.7706 174.307 42.8815C175.313 44.2062 176.761 44.8696 178.656 44.8696C180.134 44.8696 181.731 44.3763 183.447 43.3904L185 47.8281Z" fill="#F6F4F2"/>
<path d="M166.831 16.2039C168.609 18.0506 170.418 21.4068 169.255 23.8463C172.612 22.5932 170.037 16.9979 168.051 14.936C166.065 12.8733 160.678 10.2023 159.468 13.686C161.818 12.4802 165.053 14.3588 166.831 16.2039Z" fill="#F6F4F2"/>
<path d="M164.562 18.5584C166.417 20.4844 166.73 22.8966 166.054 23.4949C169.121 23.0629 167.127 18.6866 165.784 17.2913C164.436 15.8921 160.223 13.8255 159.808 17.01C160.384 16.3069 162.705 16.6317 164.562 18.5584Z" fill="#F6F4F2"/>
</svg>
