<svg width="231" height="72" viewBox="0 0 231 72" fill="none" xmlns="http://www.w3.org/2000/svg">
<path fill-rule="evenodd" clip-rule="evenodd" d="M65.2823 26.5768H62.6691V32.2581H65.2823C66.1537 32.2581 66.8975 32.0201 67.5185 31.5437C68.1393 31.0669 68.4493 30.3516 68.4493 29.398C68.4493 28.5246 68.1323 27.8357 67.499 27.3325C66.8655 26.8299 66.1262 26.5768 65.2823 26.5768ZM71.6554 47.0789L64.8471 37.106H62.6691V47.0789H56.7701V21.7295H66.1924C68.4612 21.7295 70.3892 22.4252 71.972 23.8162C73.5558 25.2064 74.3475 27.0682 74.3475 29.3979C74.3475 30.855 73.9912 32.1472 73.279 33.272C72.5659 34.398 71.6287 35.2263 70.4681 35.7558L78.5039 47.0789H71.6554Z" fill="#F6F4F2"/>
<path fill-rule="evenodd" clip-rule="evenodd" d="M85.7874 32.9353C84.8897 32.9353 84.1108 33.2128 83.4515 33.7692C82.7915 34.3256 82.3556 35.0806 82.1454 36.0336H88.4794L88.5185 35.6366C88.5185 34.8948 88.268 34.2591 87.7667 33.7291C87.2647 33.1995 86.6049 32.9353 85.7874 32.9353V32.9353ZM93.6259 37.4652L91.2897 39.7685H82.3433C82.607 40.7067 83.1808 41.5178 84.065 42.2011C84.9496 42.8847 86.1301 43.2258 87.6081 43.2258C89.5085 43.2258 91.2366 42.7495 92.7941 41.7963L92.2795 46.6032C91.5668 46.9486 90.7947 47.2055 89.964 47.3781C89.132 47.5498 88.1227 47.6362 86.9354 47.6362C83.9529 47.6362 81.4583 46.7489 79.4534 44.9742C77.4473 43.1998 76.4447 40.8681 76.4447 37.9816C76.4447 35.1475 77.3484 32.8622 79.1567 31.1265C80.9642 29.3921 83.1745 28.5254 85.7875 28.5254C88.1889 28.5254 90.1282 29.2271 91.6072 30.6302C93.0844 32.0348 93.8233 33.7172 93.8233 35.6771C93.8233 36.2863 93.7571 36.8824 93.6259 37.4652V37.4652Z" fill="#F6F4F2"/>
<path fill-rule="evenodd" clip-rule="evenodd" d="M104.433 47.2396H100.079L93.1903 29.0811H98.8117L101.306 35.9153C101.385 36.1279 101.556 36.6771 101.821 37.5645C102.084 38.452 102.257 39.0412 102.335 39.333L103.445 35.9153L105.978 29.0811H111.361L104.433 47.2396Z" fill="#F6F4F2"/>
<path fill-rule="evenodd" clip-rule="evenodd" d="M111.798 47.0802H117.617V29.081H111.798V47.0802ZM114.688 26.1416C114.225 26.1416 113.626 25.7642 112.895 25.0084C112.163 24.2539 111.798 23.6382 111.798 23.161C111.798 22.6587 112.163 22.029 112.895 21.2749C113.626 20.5191 114.225 20.1416 114.688 20.1416C115.175 20.1416 115.786 20.5191 116.518 21.2749C117.251 22.029 117.617 22.6587 117.617 23.161C117.617 23.665 117.257 24.2883 116.538 25.0287C115.818 25.7709 115.201 26.1416 114.688 26.1416Z" fill="#F6F4F2"/>
<path fill-rule="evenodd" clip-rule="evenodd" d="M128.107 32.9353C127.21 32.9353 126.431 33.2128 125.77 33.7692C125.111 34.3256 124.675 35.0806 124.465 36.0336H130.799L130.838 35.6366C130.838 34.8948 130.587 34.2591 130.086 33.7291C129.584 33.1995 128.924 32.9353 128.107 32.9353ZM135.944 37.4652L133.609 39.7685H124.662C124.926 40.7067 125.5 41.5178 126.384 42.2011C127.269 42.8847 128.45 43.2258 129.928 43.2258C131.828 43.2258 133.556 42.7495 135.113 41.7963L134.598 46.6032C133.886 46.9486 133.114 47.2055 132.282 47.3781C131.451 47.5498 130.442 47.6362 129.255 47.6362C126.271 47.6362 123.777 46.7489 121.772 44.9742C119.766 43.1998 118.764 40.8681 118.764 37.9816C118.764 35.1475 119.667 32.8622 121.476 31.1265C123.283 29.3921 125.494 28.5254 128.107 28.5254C130.507 28.5254 132.447 29.2271 133.925 30.6302C135.404 32.0348 136.142 33.7172 136.142 35.6771C136.142 36.2863 136.077 36.8824 135.944 37.4652V37.4652Z" fill="#F6F4F2"/>
<path fill-rule="evenodd" clip-rule="evenodd" d="M156.846 47.2396H152.888L150.513 40.1272C150.328 39.5712 150.143 38.9888 149.959 38.3784C149.775 37.7699 149.602 37.1343 149.445 36.4717C149.26 37.1343 149.054 37.8299 148.831 38.558C148.606 39.287 148.442 39.7958 148.335 40.0876L145.96 47.2396H141.963L135.707 29.0811H141.012L143.229 35.8758C143.387 36.3792 143.546 36.9289 143.704 37.5246C143.863 38.1205 143.994 38.6974 144.1 39.2538L145.091 35.8758L147.306 29.0811H151.7L153.958 35.8365C154.089 36.2605 154.234 36.7832 154.394 37.4057C154.55 38.0284 154.696 38.6434 154.828 39.2538C155.039 38.458 155.211 37.8299 155.343 37.366C155.474 36.9029 155.633 36.3925 155.818 35.8365L158.035 29.0811H163.101L156.846 47.2396Z" fill="#F6F4F2"/>
<path fill-rule="evenodd" clip-rule="evenodd" d="M172.106 26.5788H169.594V32.2601H172.106C172.983 32.2601 173.733 32.022 174.357 31.5456C174.982 31.0688 175.295 30.3536 175.295 29.4C175.295 28.5265 174.977 27.8377 174.339 27.3345C173.701 26.8318 172.957 26.5788 172.106 26.5788ZM172.96 37.1079H169.594V47.0808H163.696V21.7314H172.96C175.229 21.7314 177.155 22.4272 178.74 23.8182C180.323 25.2084 181.114 27.0702 181.114 29.3999C181.114 31.7312 180.329 33.5981 178.76 35.002C177.19 36.407 175.256 37.1079 172.96 37.1079V37.1079Z" fill="#F6F4F2"/>
<path fill-rule="evenodd" clip-rule="evenodd" d="M224.42 47.0801V36.3525C224.42 35.6369 224.184 35.0416 223.709 34.5644C223.234 34.0869 222.56 33.8491 221.69 33.8491C220.819 33.8491 220.113 34.0949 219.571 34.5844C219.03 35.0747 218.76 35.6913 218.76 36.4321V47.0801H213.021V18.79H218.76V30.2728C219.947 29.1609 221.557 28.6053 223.591 28.6053C225.569 28.6053 227.172 29.1937 228.4 30.3726C229.627 31.5514 230.241 33.121 230.241 35.0809V47.0801H224.42Z" fill="#F6F4F2"/>
<path fill-rule="evenodd" clip-rule="evenodd" d="M192.634 29.0811V39.7294C192.634 40.4711 192.363 41.088 191.822 41.5779C191.28 42.0675 190.576 42.312 189.704 42.312C188.833 42.312 188.161 42.0742 187.685 41.5972C187.21 41.1208 186.972 40.5247 186.972 39.809V29.0811H182.983C182.986 29.1876 182.998 29.2901 182.998 29.3994C182.998 31.6563 182.372 33.588 181.154 35.1732V41.0807C181.154 43.0414 181.766 44.6109 182.994 45.7889C184.221 46.9679 185.825 47.5574 187.804 47.5574C189.097 47.5574 190.185 47.3649 191.07 46.9807C191.956 46.598 192.659 46.0344 193.187 45.2926L193.346 47.0804H198.452V29.0811H192.634Z" fill="#F6F4F2"/>
<path fill-rule="evenodd" clip-rule="evenodd" d="M208.528 36.2932C206.034 35.4859 204.787 34.7633 204.787 34.1277C204.787 33.2803 205.34 32.8564 206.45 32.8564C207.242 32.8564 208.005 32.9821 208.745 33.2342C209.484 33.4865 210.091 33.7702 210.566 34.0876L211.002 29.6777C210.474 29.3601 209.794 29.0884 208.963 28.8638C208.131 28.6385 207.175 28.5264 206.093 28.5264C204.114 28.5264 202.517 29.0536 201.302 30.1095C200.089 31.1671 199.483 32.5273 199.483 34.1922C199.483 35.5663 199.943 36.7548 200.867 37.7588C201.791 38.7623 203.019 39.5353 204.55 40.0772C206.08 40.6189 206.845 41.2333 206.845 41.9194C206.845 42.3153 206.673 42.6328 206.33 42.871C205.986 43.1078 205.525 43.2267 204.944 43.2267C203.837 43.2267 202.734 43.0262 201.639 42.6227C200.82 42.3209 200.102 41.9499 199.483 41.5112V46.1269C200.164 46.5781 200.99 46.941 201.96 47.2201C202.931 47.4979 204.019 47.6372 205.225 47.6372C207.535 47.6372 209.285 47.0941 210.479 46.0076C211.673 44.9216 212.268 43.5442 212.268 41.8762C212.268 38.9624 211.022 37.1011 208.528 36.2932V36.2932Z" fill="#F6F4F2"/>
<path fill-rule="evenodd" clip-rule="evenodd" d="M4.3006 51.6553L2.32125 15.1981C2.27897 14.4244 2.38945 13.6774 2.62675 12.9913C2.86524 12.3036 3.23016 11.6799 3.69121 11.1535C4.15223 10.6284 4.7074 10.2008 5.33196 9.90302C5.95052 9.60641 6.63571 9.44028 7.35558 9.43188L39.1325 9.07882C39.3502 9.07683 39.5605 9.10444 39.7614 9.15488C39.6478 8.84386 39.5154 8.54963 39.3444 8.29385C39.0775 7.89315 38.7429 7.56851 38.3588 7.34395C37.972 7.11778 37.5332 6.99609 37.0619 7.0001L5.2845 7.35316C4.56423 7.36156 3.87944 7.52768 3.26048 7.8247C2.63671 8.12212 2.08075 8.54963 1.61972 9.07482C1.15868 9.60121 0.794957 10.2253 0.556063 10.9126C0.318764 11.5987 0.20829 12.3456 0.249767 13.1198L2.22912 49.5761C2.26023 50.1662 2.42055 50.6909 2.68099 51.1354C2.93943 51.5773 3.29717 51.9387 3.7275 52.2049C3.95164 52.3435 4.19771 52.4551 4.45813 52.5396C4.37239 52.2641 4.31735 51.9699 4.3006 51.6553V51.6553Z" fill="#F6F4F2"/>
<path fill-rule="evenodd" clip-rule="evenodd" d="M9.13221 56.5045L7.15285 20.0482C7.11138 19.274 7.22185 18.5266 7.45915 17.8405C7.69804 17.1532 8.06177 16.5296 8.5228 16.0028C8.98384 15.478 9.5398 15.0501 10.1644 14.7527C10.7825 14.456 11.4681 14.2895 12.1876 14.2815L43.9649 13.9285C44.1823 13.926 44.3921 13.9537 44.5939 14.0041C44.4802 13.6939 44.3478 13.3993 44.1767 13.1435C43.9099 12.7428 43.5753 12.4181 43.1908 12.1936C42.8039 11.9674 42.3657 11.8453 41.8938 11.8497L10.1165 12.2028C9.39663 12.2108 8.71224 12.3773 8.09288 12.6739C7.46832 12.9713 6.91317 13.3993 6.45212 13.924C5.99108 14.4508 5.62736 15.0745 5.38807 15.7622C5.15117 16.4479 5.04029 17.1953 5.08217 17.9694L7.06153 54.4258C7.09263 55.0151 7.25296 55.5402 7.51338 55.985C7.77223 56.4265 8.12917 56.7884 8.55949 57.0546C8.78404 57.1935 9.02971 57.3043 9.29053 57.3892C9.20479 57.1137 9.14935 56.8196 9.13221 56.5045V56.5045Z" fill="#F6F4F2"/>
<path fill-rule="evenodd" clip-rule="evenodd" d="M43.8995 27.4702L26.1141 28.9913L26.1165 26.3198L44.052 25.0845L43.8995 27.4702ZM43.5314 33.2229L18.8559 36.3228L18.7901 33.6644L43.677 30.9333L43.5314 33.2229ZM43.178 38.7414L19.0154 42.7007L18.9511 40.1713L43.3184 36.5489L43.178 38.7414ZM42.8371 44.0572L19.1663 48.8035L19.1068 46.3817L42.9735 41.9436L42.8371 44.0572ZM37.0837 50.4422L19.3114 54.6285L19.2539 52.3136L37.1738 48.3416L37.0837 50.4422ZM49.7244 19.5157C49.6015 18.9905 49.4009 18.5185 49.1342 18.119C48.8665 17.7187 48.5327 17.3937 48.1478 17.1691C47.761 16.943 47.323 16.8213 46.8513 16.8253L15.0739 17.1788C14.3541 17.1868 13.6689 17.3533 13.0503 17.6495C12.4261 17.9473 11.8706 18.3748 11.4087 18.8996C10.9481 19.4264 10.584 20.0501 10.3455 20.7373C10.1082 21.4239 9.9977 22.1708 10.0396 22.9449L12.0189 59.4018C12.05 59.991 12.2104 60.5158 12.47 60.9605C12.7292 61.4024 13.0866 61.7639 13.5165 62.0297C13.9425 62.2935 14.4402 62.4632 14.9826 62.5236C15.5198 62.5845 16.1029 62.5381 16.7056 62.3707L23.5074 60.4825C23.5074 60.4825 23.5617 60.4942 23.649 60.5314C23.7367 60.5679 23.8584 60.6302 23.9888 60.7324C24.1208 60.8333 24.2628 60.9742 24.3944 61.1667C24.5255 61.3592 24.6468 61.6043 24.7361 61.914C24.8235 62.2218 24.8818 62.5726 24.8854 62.9708C24.8897 63.3683 24.8423 63.8139 24.7222 64.3153C24.601 64.815 24.4084 65.3706 24.1208 65.9886C23.8353 66.6071 23.4535 67.2884 22.9574 68.0421L22.9654 68.0397L22.9926 68.0318L23.0372 68.0181L23.0974 67.9989C23.3849 67.906 24.0877 67.6638 24.9814 67.2439C25.8657 66.8292 26.9361 66.242 27.9842 65.453C29.0223 64.6712 30.0417 63.689 30.8489 62.4668C31.6546 61.2476 32.2567 59.7764 32.4661 57.996L44.1313 54.7587C44.5521 54.6418 44.9569 54.4337 45.3313 54.1575C45.7038 53.8829 46.0444 53.5407 46.3399 53.1524C46.6339 52.7645 46.8803 52.3306 47.0654 51.873C47.2488 51.4155 47.3701 50.9311 47.4104 50.4447L49.8389 21.2141C49.8886 20.6117 49.8456 20.0381 49.7244 19.5157V19.5157Z" fill="#F6F4F2"/>
</svg>
