<svg width="181" height="47" viewBox="0 0 181 47" fill="none" xmlns="http://www.w3.org/2000/svg">
<g clip-path="url(#clip0)">
<path d="M40.1777 23.4225C40.209 28.0788 36.4136 31.8969 31.7279 31.9122C29.4787 31.9279 27.3545 31.0743 25.7458 29.5065C24.996 28.7772 24.4025 27.9544 23.9808 27.0389C23.5591 27.9544 22.9656 28.7927 22.2315 29.5377C20.6383 31.1208 18.5141 32.0055 16.265 32.0055H16.1869V32.021L7.73701 32.0986L7.6433 15.181L16.2025 15.1344C18.4517 15.1189 20.5759 15.957 22.1846 17.5246C22.9343 18.2539 23.5279 19.0767 23.9496 19.9769C24.3713 19.0612 24.9492 18.223 25.6833 17.4779C27.2764 15.8949 29.385 15.0256 31.6341 15.0102C36.3355 14.9947 40.1621 18.7663 40.1777 23.4225ZM7.48711 7.29641C3.14501 11.6733 0.755302 17.4781 0.802159 23.6243C0.833397 29.786 3.26997 35.5443 7.67454 39.8746C12.0635 44.2047 17.8894 46.564 24.0745 46.5328C30.2597 46.5018 36.0543 44.0652 40.412 39.7037C44.7541 35.3268 47.1438 29.522 47.097 23.3758C47.0657 17.2142 44.6292 11.4558 40.2246 7.12552C35.8357 2.79522 30.0098 0.436058 23.8246 0.467099C17.6395 0.498296 11.8292 2.93506 7.48711 7.29641Z" fill="#F6F4F2"/>
<path d="M40.1777 23.4225C40.209 28.0788 36.4136 31.8969 31.7278 31.9122C29.4787 31.9279 27.3545 31.0743 25.7458 29.5065C24.996 28.7772 24.4025 27.9544 23.9808 27.0389C23.5591 27.9544 22.9656 28.7927 22.2315 29.5377C20.6383 31.1208 18.5141 32.0055 16.265 32.0055H16.1869V32.021L7.73701 32.0986L7.6433 15.181L16.2025 15.1344C18.4517 15.1189 20.5759 15.957 22.1846 17.5246C22.9343 18.2539 23.5279 19.0767 23.9496 19.9769C24.3713 19.0612 24.9492 18.223 25.6833 17.4779C27.2764 15.8949 29.385 15.0256 31.6341 15.0102C36.3355 14.9947 40.1621 18.7663 40.1777 23.4225ZM7.48711 7.29641C3.14501 11.6733 0.755302 17.4781 0.802159 23.6243C0.833397 29.786 3.26997 35.5443 7.67454 39.8746C12.0635 44.2047 17.8894 46.564 24.0745 46.5328C30.2597 46.5018 36.0543 44.0652 40.412 39.7037C44.7541 35.3268 47.1438 29.522 47.097 23.3758C47.0657 17.2142 44.6292 11.4558 40.2246 7.12552C35.8357 2.79522 30.0098 0.436058 23.8246 0.467099C17.6395 0.498296 11.8292 2.93506 7.48711 7.29641Z" fill="#F6F4F2"/>
<path d="M31.9322 28.839C30.4952 28.839 29.152 28.2958 28.1211 27.3026C27.1059 26.3093 26.528 24.9745 26.4967 23.5619V23.4378C26.5124 22.0098 27.0746 20.6751 28.0899 19.6662C29.1051 18.6574 30.4484 18.0984 31.8697 18.0831C34.8529 18.0676 37.2895 20.4733 37.3051 23.4378C37.3207 26.4022 34.8998 28.8235 31.9322 28.839Z" fill="#F6F4F2"/>
<path d="M16.5008 28.9164C13.5176 28.9321 11.081 26.5263 11.0654 23.5617C11.0498 20.5972 13.4551 18.176 16.4383 18.1605C17.8597 18.145 19.2185 18.7037 20.2338 19.697C21.249 20.6902 21.8269 22.0252 21.8581 23.4375V23.6393C21.8425 25.0207 21.2646 26.3865 20.2806 27.3643C19.2966 28.3732 17.9534 28.9164 16.5008 28.9164" fill="#F6F4F2"/>
<path d="M66.4275 37.756C71.0001 37.756 74.6147 36.2413 77.097 34.7268C78.7081 33.7746 79.4486 32.4333 79.4486 30.4859V23.1293C79.4486 21.2685 77.9681 19.7972 76.0954 19.7972H68.4311C66.8197 19.7972 65.5131 21.0953 65.5131 22.6966C65.5131 24.2979 66.8195 25.5526 68.4309 25.5526H72.9598V29.8801C71.2616 31.0918 69.0841 31.6976 66.6454 31.6976C61.2454 31.6976 57.4131 27.6299 57.4131 22.0908V22.0042C57.4131 16.8544 61.289 12.5704 66.1663 12.5704C69.0406 12.5704 71.0004 13.3495 72.8294 14.6477C73.3081 14.9938 73.9181 15.3401 74.876 15.3401C76.705 15.3401 78.1857 13.8687 78.1857 12.0512C78.1857 10.753 77.4453 9.84414 76.792 9.36827C74.0485 7.46418 71.0001 6.42553 66.3839 6.42553C57.1517 6.42553 50.4017 13.4793 50.4017 22.091V22.1776C50.4017 31.135 56.9341 37.756 66.4275 37.756V37.756ZM85.1621 34.2075C85.1621 36.0249 86.6427 37.4963 88.4717 37.4963C90.3007 37.4963 91.7814 36.0249 91.7814 34.2075V28.0625C91.7814 23.3888 93.6538 20.8357 97.0071 20.0568C98.3572 19.7537 99.4894 18.7151 99.4894 16.9842C99.4894 15.1234 98.3136 13.7818 96.2667 13.7818C94.3072 13.7818 92.7393 15.8591 91.7812 18.1093V17.0709C91.7812 15.2534 90.3007 13.7821 88.4717 13.7821C86.6427 13.7821 85.1621 15.2534 85.1621 17.0709V34.2075V34.2075ZM103.277 8.58913C103.277 10.4932 104.888 11.7048 106.978 11.7048C109.069 11.7048 110.68 10.4931 110.68 8.58913V8.50252C110.68 6.59827 109.069 5.43003 106.978 5.43003C104.888 5.43003 103.277 6.59843 103.277 8.50252V8.58913H103.277ZM103.669 34.2075C103.669 36.0249 105.149 37.4963 106.978 37.4963C108.807 37.4963 110.288 36.0249 110.288 34.2075V17.0709C110.288 15.2534 108.807 13.7821 106.978 13.7821C105.149 13.7821 103.669 15.2534 103.669 17.0709V34.2075V34.2075ZM140.02 8.67558C140.02 6.85809 138.539 5.38672 136.71 5.38672C134.881 5.38672 133.401 6.85809 133.401 8.67558V17.0708C131.833 15.21 129.656 13.6087 126.128 13.6087C120.598 13.6087 115.502 17.8496 115.502 25.5957V25.6823C115.502 33.4283 120.685 37.6692 126.128 37.6692C129.568 37.6692 131.789 36.0681 133.401 33.9043V34.2073C133.401 36.0248 134.881 37.4962 136.71 37.4962C138.539 37.4962 140.02 36.0248 140.02 34.2073V8.67558H140.02ZM127.826 19.1912C130.918 19.1912 133.488 21.7444 133.488 25.5959V25.6825C133.488 29.5338 130.918 32.0872 127.826 32.0872C124.734 32.0872 122.122 29.534 122.122 25.6825V25.5959C122.122 21.7011 124.734 19.1912 127.826 19.1912ZM146.281 34.2075C146.281 36.0249 147.762 37.4963 149.591 37.4963C151.42 37.4963 152.901 36.0249 152.901 34.2075V8.67573C152.901 6.85825 151.42 5.38688 149.591 5.38688C147.762 5.38688 146.281 6.85825 146.281 8.67573V34.2075ZM164.517 23.8216C165.039 20.8357 166.825 18.8883 169.568 18.8883C172.355 18.8883 174.097 20.8788 174.489 23.8216H164.517V23.8216ZM178.321 34.9431C178.8 34.5104 179.192 33.8613 179.192 32.9957C179.192 31.5245 178.104 30.3993 176.623 30.3993C175.926 30.3993 175.491 30.5723 175.012 30.9186C173.662 31.9139 172.138 32.4764 170.308 32.4764C167.347 32.4764 165.257 30.9186 164.604 27.9327H177.712C179.454 27.9327 180.804 26.6777 180.804 24.7736C180.804 19.9702 177.363 13.6087 169.568 13.6087C162.775 13.6087 158.028 19.0613 158.028 25.6823V25.7689C158.028 32.866 163.21 37.7558 170.221 37.7558C173.618 37.756 176.275 36.674 178.321 34.9431V34.9431Z" fill="#F6F4F2"/>
</g>
<defs>
<clipPath id="clip0">
<rect width="180" height="46.0664" fill="white" transform="translate(0.803467 0.466797)"/>
</clipPath>
</defs>
</svg>
