<svg id="Layer_1" data-name="Layer 1" xmlns="http://www.w3.org/2000/svg" viewBox="0 0 233.04 71.52"><defs><style>.cls-1{fill:#4385f4;}.cls-2{fill:#fff;}</style></defs><title>badge-6</title><rect class="cls-1" x="0.5" y="0.6" width="232.04" height="70.32" rx="10.05" ry="10.05"/><path class="cls-2" d="M56.5,14.66H27.14C16.53,17.26,16.3,26.3,16.3,26.3V56.85H27.59V29a2.82,2.82,0,0,1,2.26-2.79H56.5ZM34.19,30.74S32,30.52,32,32.51v8.85h14.5V44a1.26,1.26,0,0,1-1.31,1.33H32v11.5H47.81s9.59-1.5,9.67-11.5V30.74Z"/><path class="cls-2" d="M89.5,33c-.46.32-.79.55-1,.69A19.57,19.57,0,0,1,86,35a7.72,7.72,0,0,1-3,.69,10.47,10.47,0,0,1-7.5-2.84,9.46,9.46,0,0,1-3-7.17,10.51,10.51,0,0,1,2.71-7.22,8.44,8.44,0,0,1,6.59-3A10.77,10.77,0,0,1,85.3,16a9.3,9.3,0,0,1,3.8,2.24l-1.73,2a6.58,6.58,0,0,0-2.8-1.61,9.66,9.66,0,0,0-2.77-.38,5.7,5.7,0,0,0-4.56,2.24,8.28,8.28,0,0,0-1.83,5.37,6.79,6.79,0,0,0,2.09,5.11A7.29,7.29,0,0,0,82.81,33a5.26,5.26,0,0,0,2.75-.86l1.2-.91V26.9H80.94l.84-2.67H89.5Zm17.56-5.22a7.55,7.55,0,0,1-2.15,5.37,7.17,7.17,0,0,1-10.45,0,7.36,7.36,0,0,1-2.19-5.39,7.85,7.85,0,0,1,2.09-5.43,6.64,6.64,0,0,1,5.12-2.3,7.18,7.18,0,0,1,5.45,2.22A7.55,7.55,0,0,1,107.06,27.78Zm-2.73,0A4.94,4.94,0,0,0,103,24.27a4.47,4.47,0,0,0-3.4-1.46,4.2,4.2,0,0,0-3.25,1.5A5.07,5.07,0,0,0,95,27.76a4.92,4.92,0,0,0,1.35,3.47,4.43,4.43,0,0,0,3.37,1.46,4.33,4.33,0,0,0,3.24-1.44A4.73,4.73,0,0,0,104.33,27.82Zm20,0a7.55,7.55,0,0,1-2.15,5.37,7.17,7.17,0,0,1-10.45,0,7.36,7.36,0,0,1-2.19-5.39,7.85,7.85,0,0,1,2.09-5.43,6.64,6.64,0,0,1,5.12-2.3,7.18,7.18,0,0,1,5.45,2.22A7.55,7.55,0,0,1,124.38,27.78Zm-2.73,0a4.94,4.94,0,0,0-1.37-3.55,4.47,4.47,0,0,0-3.4-1.46,4.2,4.2,0,0,0-3.25,1.5,5.07,5.07,0,0,0-1.33,3.45,4.92,4.92,0,0,0,1.35,3.47A4.43,4.43,0,0,0,117,32.69a4.33,4.33,0,0,0,3.24-1.44A4.73,4.73,0,0,0,121.65,27.82ZM140.41,35l-2.51.39V32.92l-.54.63a6.45,6.45,0,0,1-1.59,1.12,6.27,6.27,0,0,1-2.73.61,6.51,6.51,0,0,1-5-2.21,7.6,7.6,0,0,1-2-5.29,7.93,7.93,0,0,1,2-5.43A6.33,6.33,0,0,1,133,20.1a6.87,6.87,0,0,1,2.91.56,5,5,0,0,1,1.49,1.06l.42.59V15.79l2.67-.39,0,19.61Zm-2.35-7a5.08,5.08,0,0,0-1.46-3.7,4.45,4.45,0,0,0-3.32-1.52,4.27,4.27,0,0,0-3.36,1.44,5,5,0,0,0-1.22,3.36A5.41,5.41,0,0,0,130,31.23a4,4,0,0,0,3.18,1.44,4.86,4.86,0,0,0,3.38-1.34A4.38,4.38,0,0,0,138.06,28Zm16.42-9.46H147v5.2h5.79v2.67H147V35l-2.91.44V15.81h9.79Zm6-1.53-1.79,2.32L157,17l1.81-2.29Zm-.53,18-2.67.37V20.87l2.67-.42ZM172,20.3l-1.25,3a3.62,3.62,0,0,0-.5,0,5.12,5.12,0,0,0-.78.06,3.06,3.06,0,0,0-.83.29,3.33,3.33,0,0,0-1.46,1.61,6.73,6.73,0,0,0-.69,3V35l-2.67.44V20.87l2.47-.46v3c.32-.53.65-1.05,1-1.59a4,4,0,0,1,1.6-1.17,6.94,6.94,0,0,1,1.77-.31A7.31,7.31,0,0,1,172,20.3ZM191.85,35l-2.67.39v-10a2.8,2.8,0,0,0-.6-2,2.32,2.32,0,0,0-1.77-.63A2.35,2.35,0,0,0,184.68,24a3.38,3.38,0,0,0-.5,1.71V35l-2.66.5v-10a3.08,3.08,0,0,0-.58-2,2,2,0,0,0-1.59-.69h-.26a2.12,2.12,0,0,0-2,1.21,5,5,0,0,0-.48,2.32V35l-2.77.5V20.87l2.49-.44v1.86a5.82,5.82,0,0,1,.82-1.05,3.46,3.46,0,0,1,2.49-1,4.3,4.3,0,0,1,2.36.52,4.45,4.45,0,0,1,1.34,1.72,4.34,4.34,0,0,1,3.92-2.24,4.23,4.23,0,0,1,3.64,1.59,6.36,6.36,0,0,1,1,3.86ZM204,30.6a4.34,4.34,0,0,1-1.37,3.3,4.79,4.79,0,0,1-3.47,1.3,5.49,5.49,0,0,1-2.84-.76,5.23,5.23,0,0,1-1.91-1.73L196.31,31a4,4,0,0,0,.38.5,3.34,3.34,0,0,0,2.5,1.11,2.25,2.25,0,0,0,1.6-.55,1.87,1.87,0,0,0,.57-1.5c0-.73-.45-1.23-1.37-1.5-1.81-.57-2.79-.88-2.93-.94a5.09,5.09,0,0,1-1.81-1.43,4.11,4.11,0,0,1-.63-2.42A4.09,4.09,0,0,1,196,21.14a4.51,4.51,0,0,1,3.2-1.23,5.39,5.39,0,0,1,2.61.64A4.35,4.35,0,0,1,203.49,22l-1.59,1.77a7.37,7.37,0,0,0-.77-.67,3.2,3.2,0,0,0-1.84-.69,2.36,2.36,0,0,0-1.37.38,1.61,1.61,0,0,0-.64,1.38,1.42,1.42,0,0,0,.62,1.29,8.5,8.5,0,0,0,2.31.75A5.5,5.5,0,0,1,203,27.72,3.9,3.9,0,0,1,204,30.6Z"/><path class="cls-2" d="M75.69,53.75a.31.31,0,0,1-.09-.22V46.37H73.19a.32.32,0,0,1-.22-.1.3.3,0,0,1-.09-.23v-1a.36.36,0,0,1,.08-.23.32.32,0,0,1,.23-.09h6.64a.32.32,0,0,1,.24.09.32.32,0,0,1,.09.23v1a.3.3,0,0,1-.09.23.33.33,0,0,1-.24.1H77.44v7.16a.29.29,0,0,1-.31.31H75.91A.29.29,0,0,1,75.69,53.75Z"/><path class="cls-2" d="M80.5,53.19A3,3,0,0,1,79.6,51V49.89a3,3,0,0,1,.91-2.15,3.88,3.88,0,0,1,4.69,0,3,3,0,0,1,.91,2.15c0,.1,0,.29,0,.57s0,.47,0,.57a3,3,0,0,1-.89,2.16,4,4,0,0,1-4.72,0Zm3.42-1a2,2,0,0,0,.4-1.26c0-.09,0-.26,0-.51s0-.42,0-.51a2,2,0,0,0-.4-1.26,1.34,1.34,0,0,0-1.06-.44,1.32,1.32,0,0,0-1.06.44A2,2,0,0,0,81.39,50v1a2,2,0,0,0,.41,1.26,1.35,1.35,0,0,0,1.06.43A1.33,1.33,0,0,0,83.92,52.23Z"/><path class="cls-2" d="M87.41,56.23a.32.32,0,0,1-.09-.23V47.39a.32.32,0,0,1,.09-.23.35.35,0,0,1,.22-.08h1a.32.32,0,0,1,.24.09.31.31,0,0,1,.09.22v.52a2.38,2.38,0,0,1,2.07-1,2.47,2.47,0,0,1,2,.83A3.46,3.46,0,0,1,93.83,50c0,.11,0,.26,0,.47s0,.36,0,.47a3.43,3.43,0,0,1-.74,2.2,2.5,2.5,0,0,1-2,.84,2.34,2.34,0,0,1-2-.92v3a.32.32,0,0,1-.09.23.31.31,0,0,1-.22.08H87.63A.35.35,0,0,1,87.41,56.23Zm4.64-5.38a3.81,3.81,0,0,0,0-.78c-.06-1.14-.55-1.72-1.48-1.72a1.29,1.29,0,0,0-1.1.48A2,2,0,0,0,89.08,50c0,.11,0,.27,0,.5s0,.39,0,.51a1.74,1.74,0,0,0,.4,1.1,1.35,1.35,0,0,0,1.09.46C91.5,52.57,92,52,92.05,50.85Z"/><path class="cls-2" d="M96.8,53.76a.27.27,0,0,1-.08-.19l0-.12,3.12-8.39a.47.47,0,0,1,.47-.32h1.43a.46.46,0,0,1,.46.32l3.12,8.39,0,.12a.25.25,0,0,1-.09.19.25.25,0,0,1-.18.08H104a.38.38,0,0,1-.38-.25L103,52H99.13l-.6,1.57a.38.38,0,0,1-.38.25H97A.28.28,0,0,1,96.8,53.76Zm2.78-3.25h2.94l-1.47-4Z"/><path class="cls-2" d="M106.26,56.23a.32.32,0,0,1-.09-.23V47.39a.32.32,0,0,1,.09-.23.35.35,0,0,1,.22-.08h1a.32.32,0,0,1,.24.09.31.31,0,0,1,.09.22v.52a2.38,2.38,0,0,1,2.07-1,2.47,2.47,0,0,1,2,.83,3.52,3.52,0,0,1,.76,2.21c0,.11,0,.26,0,.47s0,.36,0,.47a3.49,3.49,0,0,1-.75,2.2,2.5,2.5,0,0,1-2,.84,2.34,2.34,0,0,1-2-.92v3a.32.32,0,0,1-.09.23.31.31,0,0,1-.22.08h-1.14A.35.35,0,0,1,106.26,56.23Zm4.64-5.38a3.81,3.81,0,0,0,0-.78c-.06-1.14-.55-1.72-1.48-1.72a1.29,1.29,0,0,0-1.1.48,2,2,0,0,0-.39,1.17c0,.11,0,.27,0,.5s0,.39,0,.51a1.74,1.74,0,0,0,.4,1.1,1.35,1.35,0,0,0,1.09.46C110.35,52.57,110.84,52,110.9,50.85Z"/><path class="cls-2" d="M114,56.23a.29.29,0,0,1-.1-.23V47.39a.29.29,0,0,1,.1-.23.33.33,0,0,1,.22-.08h1a.32.32,0,0,1,.23.09.31.31,0,0,1,.09.22v.52a2.38,2.38,0,0,1,2.07-1,2.46,2.46,0,0,1,2,.83,3.52,3.52,0,0,1,.76,2.21c0,.11,0,.26,0,.47s0,.36,0,.47a3.49,3.49,0,0,1-.75,2.2,2.5,2.5,0,0,1-2,.84,2.34,2.34,0,0,1-2-.92v3a.28.28,0,0,1-.31.31h-1.13A.33.33,0,0,1,114,56.23Zm4.64-5.38c0-.09,0-.22,0-.39s0-.3,0-.39c-.06-1.14-.56-1.72-1.49-1.72a1.29,1.29,0,0,0-1.1.48,2.1,2.1,0,0,0-.39,1.17c0,.11,0,.27,0,.5s0,.39,0,.51a1.8,1.8,0,0,0,.4,1.1,1.35,1.35,0,0,0,1.09.46C118.07,52.57,118.57,52,118.63,50.85Z"/><path class="cls-2" d="M124.55,53.75a.31.31,0,0,1-.09-.22V45.06a.32.32,0,0,1,.09-.23.29.29,0,0,1,.23-.09H128c2.55,0,3.86,1.18,3.91,3.54,0,.5,0,.84,0,1s0,.5,0,1a3.66,3.66,0,0,1-1,2.69,4.14,4.14,0,0,1-2.87.86h-3.23A.33.33,0,0,1,124.55,53.75Zm3.4-1.42a2.14,2.14,0,0,0,1.56-.48,2.25,2.25,0,0,0,.5-1.6c0-.52,0-.84,0-1s0-.46,0-1a2.14,2.14,0,0,0-.53-1.56,2.22,2.22,0,0,0-1.6-.5H126.3v6.08Z"/><path class="cls-2" d="M133.8,53.14a3.36,3.36,0,0,1-.9-2.37v-.32a3.63,3.63,0,0,1,.85-2.56,3.46,3.46,0,0,1,4.74,0,3.57,3.57,0,0,1,.84,2.49v.28a.31.31,0,0,1-.09.22A.32.32,0,0,1,139,51h-4.32v.1a2,2,0,0,0,.4,1.2,1.23,1.23,0,0,0,1,.48,1.47,1.47,0,0,0,1.21-.6,1,1,0,0,1,.18-.18.57.57,0,0,1,.22,0h1.14a.31.31,0,0,1,.21.07.22.22,0,0,1,.08.18,1.17,1.17,0,0,1-.37.73,3,3,0,0,1-1.06.74,3.81,3.81,0,0,1-1.6.31A3.19,3.19,0,0,1,133.8,53.14Zm3.73-3.28v0a1.83,1.83,0,0,0-.39-1.23,1.41,1.41,0,0,0-2.08,0,1.88,1.88,0,0,0-.38,1.23v0Z"/><path class="cls-2" d="M141.36,53.67a2.65,2.65,0,0,1-1-.69,1.23,1.23,0,0,1-.32-.69.29.29,0,0,1,.09-.21.27.27,0,0,1,.2-.07h1.07a.24.24,0,0,1,.18.1l.29.25a1.58,1.58,0,0,0,.52.3,1.66,1.66,0,0,0,.64.11,1.55,1.55,0,0,0,.85-.2.62.62,0,0,0,.32-.58.6.6,0,0,0-.15-.42,1.27,1.27,0,0,0-.53-.3,9.92,9.92,0,0,0-1.15-.3,3.49,3.49,0,0,1-1.63-.72,1.64,1.64,0,0,1-.53-1.27,1.75,1.75,0,0,1,.31-1,2.3,2.3,0,0,1,.93-.76A3.55,3.55,0,0,1,143,47a3.68,3.68,0,0,1,1.52.28,2.63,2.63,0,0,1,1,.67,1.14,1.14,0,0,1,.33.69.3.3,0,0,1-.08.2.27.27,0,0,1-.2.08h-1a.25.25,0,0,1-.22-.1,2.66,2.66,0,0,1-.29-.24,1.78,1.78,0,0,0-.45-.28,1.57,1.57,0,0,0-.6-.1,1.14,1.14,0,0,0-.74.2.68.68,0,0,0-.26.55.61.61,0,0,0,.12.39,1.16,1.16,0,0,0,.5.29,7.34,7.34,0,0,0,1.13.28q2.34.47,2.34,2a1.74,1.74,0,0,1-.8,1.5A3.77,3.77,0,0,1,143,54,4.05,4.05,0,0,1,141.36,53.67Z"/><path class="cls-2" d="M147.15,45.88a.29.29,0,0,1-.09-.22v-.95a.32.32,0,0,1,.09-.23.29.29,0,0,1,.22-.09h1.2a.31.31,0,0,1,.32.32v.95a.27.27,0,0,1-.1.22.31.31,0,0,1-.22.09h-1.2A.29.29,0,0,1,147.15,45.88Zm0,7.87a.31.31,0,0,1-.09-.22V47.39a.32.32,0,0,1,.09-.23.33.33,0,0,1,.22-.08h1.11a.31.31,0,0,1,.31.31v6.14a.31.31,0,0,1-.31.31h-1.11A.29.29,0,0,1,147.2,53.75Z"/><path class="cls-2" d="M151.48,56.32a2.59,2.59,0,0,1-1-.88,1.71,1.71,0,0,1-.3-.85.26.26,0,0,1,.1-.21.29.29,0,0,1,.22-.09h1.15a.32.32,0,0,1,.2.06.37.37,0,0,1,.14.22,1.63,1.63,0,0,0,.43.58,1.36,1.36,0,0,0,.88.24,1.3,1.3,0,0,0,1.51-1.55V53a2.47,2.47,0,0,1-2,.83,2.5,2.5,0,0,1-2-.82,3.62,3.62,0,0,1-.74-2.24V50a3.71,3.71,0,0,1,.75-2.24,2.45,2.45,0,0,1,2-.84,2.7,2.7,0,0,1,1.21.26,2.37,2.37,0,0,1,.86.7v-.5a.3.3,0,0,1,.1-.24.32.32,0,0,1,.23-.09h1.06a.29.29,0,0,1,.22.09.32.32,0,0,1,.09.24l0,6.26a3,3,0,0,1-.81,2.24,3.34,3.34,0,0,1-2.43.79A4,4,0,0,1,151.48,56.32Zm2.91-4.38a2,2,0,0,0,.4-1.14,3.32,3.32,0,0,0,0-.42,3.13,3.13,0,0,0,0-.41,2,2,0,0,0-.4-1.15,1.3,1.3,0,0,0-1.09-.47c-.94,0-1.43.58-1.48,1.72l0,.31c0,1.35.5,2,1.5,2A1.3,1.3,0,0,0,154.39,51.94Z"/><path class="cls-2" d="M158.13,53.75a.31.31,0,0,1-.09-.22V47.39a.32.32,0,0,1,.09-.23.35.35,0,0,1,.22-.08h1.08a.34.34,0,0,1,.23.08.32.32,0,0,1,.09.23v.53a2.63,2.63,0,0,1,2.17-1,2.41,2.41,0,0,1,1.89.78,3.07,3.07,0,0,1,.71,2.14v3.66a.31.31,0,0,1-.09.22.29.29,0,0,1-.23.09H163a.31.31,0,0,1-.31-.31V50a1.69,1.69,0,0,0-.37-1.17,1.33,1.33,0,0,0-1.06-.43,1.41,1.41,0,0,0-1.06.43,1.65,1.65,0,0,0-.41,1.17v3.58a.35.35,0,0,1-.08.22.3.3,0,0,1-.23.09h-1.16A.31.31,0,0,1,158.13,53.75Z"/><path class="cls-2" d="M166.52,53.14a3.4,3.4,0,0,1-.9-2.37v-.32a3.63,3.63,0,0,1,.85-2.56,3.46,3.46,0,0,1,4.74,0,3.57,3.57,0,0,1,.84,2.49v.28a.31.31,0,0,1-.09.22.32.32,0,0,1-.23.09H167.4v.1a2,2,0,0,0,.4,1.2,1.21,1.21,0,0,0,1,.48,1.47,1.47,0,0,0,1.21-.6,1,1,0,0,1,.18-.18.57.57,0,0,1,.22,0h1.15a.31.31,0,0,1,.2.07.22.22,0,0,1,.08.18,1.17,1.17,0,0,1-.37.73,3,3,0,0,1-1.06.74,3.81,3.81,0,0,1-1.6.31A3.19,3.19,0,0,1,166.52,53.14Zm3.73-3.28v0a1.88,1.88,0,0,0-.38-1.23,1.3,1.3,0,0,0-1.05-.46,1.26,1.26,0,0,0-1,.46,1.88,1.88,0,0,0-.38,1.23v0Z"/><path class="cls-2" d="M173.25,53.75a.31.31,0,0,1-.09-.22V47.41a.32.32,0,0,1,.09-.24.31.31,0,0,1,.22-.09h1.07a.32.32,0,0,1,.23.09.32.32,0,0,1,.09.24v.53a2.23,2.23,0,0,1,1.88-.86h.54a.34.34,0,0,1,.23.08.31.31,0,0,1,.08.23v1a.29.29,0,0,1-.08.22.3.3,0,0,1-.23.09h-1A1.21,1.21,0,0,0,174.94,50v3.56a.31.31,0,0,1-.09.22.29.29,0,0,1-.22.09h-1.16A.31.31,0,0,1,173.25,53.75Z"/></svg>